<mxfile host="app.diagrams.net" modified="2022-01-11T09:11:14.885Z" agent="5.0 (Windows)" etag="s3wX2NVaqZhJCLlmIjdz" version="16.0.3" type="github" pages="2">
  <diagram id="FunsHZ4eJjHg2m2l2UVa" name="UI">
    <mxGraphModel dx="2031" dy="1129" grid="1" gridSize="10" guides="1" tooltips="1" connect="1" arrows="1" fold="1" page="1" pageScale="1" pageWidth="1169" pageHeight="827" math="0" shadow="0">
      <root>
        <mxCell id="0" />
        <mxCell id="1" parent="0" />
        <mxCell id="xKtpnFUolzDi3XCpDmT7-1" value="" style="shape=image;verticalLabelPosition=bottom;labelBackgroundColor=#ffffff;verticalAlign=top;aspect=fixed;imageAspect=0;image=data:image/png,iVBORw0KGgoAAAANSUhEUgAABusAAAHYCAYAAABEJtUhAAAgAElEQVR4nOy9eZRURbruXXd9f511z713ne+se7917jqeI92NfaBFEBUoBSfURhBtu53ALhRJUFtkLpBJJhlUUhRQhoJ2FrQLxKQVkSpFmkktEEEKEauY5xm0qsiqrOf7I3Pv3EPsKXOPVU+u9VtKZtbOiDfeiB3xPvuNKLisRUsQQgghhBBCCCGEEEIIIYQQQvynIOgCEEIIIYQQQgghhBBCCCGEENJcoVhHCCGEEEIIIYQQQgghhBBCSEBQrCOEEEIIIYQQQgghhBBCCCEkICjWEeITV7RugzZt2+OK1m0i/RuEEEIIIYQQQgghhBBCCHGPgl79hsCIe3sPwK9/e2VOF+75wKO66/V84FHXCn7Pg33Rq98QFD0+3LD80mf3Ptzf1Xro7RRzfH2p/Eb0jg3Fw/2H4rdt2udlp9Ztr8XQMdPx+NDxvjvX40PHY+iY6Wjd9tq8rvO7q67GlW3bW/K7q662fc3/+NUVaHVlO7S6sh3+41dX5P09u+W/48675P9v3aada7b26jdatGyF9td1wjUdCi1p2/46332MEEIIIYQ0DXosqAbKRuVxjVFYU12CHiGoCyGEEEIIIYQ4pWB31SEYMe3lRbivz5M5CV29+g1B+aadKnr1G+JawXv1G4LdVYfk3zH6vd1Vh/Dy/Ldw3yN/ca0eWqa8VOLYTlLZjOjVbwhemPsWih4fkbNgd+31t2DstDlYsepLjJsxz3fnGjdjHlas+hJjp83BtdffkvN1rmzbHt17/sGSK9vat1OrK9uhsPNNKOx8E3531dVCIe4/fnUFfnfV1fL3Wl1pX/hq0bIV2rS7RhbNjMrbpt01aNGyVU52sfsbufzOf/zqCvzXlW1xXacb0L3nH9Dj7ntNub1bD1zTodB3HyOEEEIIIU2FUViDcgw3/AxYU9wSw8uQfVWXYPiCaoheVQvuFf9Ocbnw+wCyYqHZd9I/jPk9vbLDvZgvrpLmpbSVxnY9S1BVXYIe0n81v9FjQTXWFKttq69i5u96lqDKTnFs2cT7uhFCCCGEEBJVTMW6cTPmYcYri3H/I085FrqMxDMRuWTcORHrdlcdwtySd3Hfnx+3fX2rzL2ix4dj6NgZ+PiLLSjftBPTX/kr/vSw/evbEevKN+3MWbC7udsfMH7Ga/hy0za5LbUUT3gRvfsORMtWV+XsQC1bXYXefQeieMKLwt/YXXUIX27ahvEzXsMtv78np9/wUqzr3vMPQsFOKdRJ33Ei1rVpdw063XAjutzcFe2v6yTMBGx/XSd0uuFGtGl3TU52sfsbXW7u6vh32ra/DjfderulSNfj7nvR5eauuL7LzRTrCCGEEEKIY3oIxbZyDFcJZnoRr8eCao0gp8isKy6XP1OJe4BCpLoX86sNxMHicpMsv3sxv1okTKVFL0OR0EsU9ZXqLNdT85nOVsKMRMV7PUtQJdsiLbZlbWhlkyDqlhu9Hn0cDz0ywP+2I4QQQgghJIOlWDduxjzMmP26I6Hrshb2MtLyybjTinVG19UKYLleX/s7vfoNwfzXP8BfiifLgl0u17cS6yTB7s8Dhjmyz6gpL6N8/VbD61fuOYCNFTvxdukqjJk6Bx063+q4DTp07ooxU+fg7dJV2FixE5V7Dhj+Xvn6rRg1+RVb15XEN+n/vRDrRGKcJNiZfWb3+le2bY8uN3e1hZNy5/obTn/nmg6FuOPOuyy5vsvNMhTrCCGEEEKIc9SimSzCmQlmxeWZzC+DrDA52UshOFlmiimEO0dinZQtVo41ZUGIdfdiflkJekjlKjbJhCt7WZ3ZJtkwY5vhZVK9xGKdVvjMXATze3ol1jmpW+5bqHa+5fd47MmheOzJoeh8y+9D0CcIIYQQQkhzxFSsy1XouqxFVqwrnhC3PPNNzrC7336GnSR2jZ/2iuH1xk+b7ZpYZyQEzn/9AwwdO8N1sU5br94xZ2Kdncy6qbMWoXz9FqzbvA1jps5xlGHXstVVGDN1DtZt3oby9VswddYi1zLrJKFOwgux7rIWxoJdvkKdVGZJJDPKesvnzD3tb1CsI4QQQgghkUW5taFyK0qhAGO0XaY4s051fe3/y2iy7HLcBnN4EGJdcXk606y4HGuKM8KhXD9jES17RqAdsa4kK/IpbJfNbvRIrMuxbk55esR4+aHNp0f4f9Y7IYQQQgghl7UQiHWSwOKGWPfJF1vw6F9G2RIDv6uswsMx98SufOtgJQYqhUBl9p1X5c8l+/C6G4zPrPvPX/8WHTp3xTPPvYLy9Vvwdukq9O470Pa1ez82EG+XrkL5+i145rlX0KFzV/znr3+r+k6Yz6yTEAl2+Qp1UpmVIpmb5f/1b1vbEv9EtG5jbytPinWEEEIIIcQPjM4wW1MmEMyqS9BDKaTZPbPOQKzLnt0mEOscb4MZjFgnZ7uVjcqIlCWG2YZy2YrLkc0ktJ9ZJ9sSit/U2qRnCapcOtMvp7oRQgghhBASUTwV695f+SUGPzPVlhj15cZv0euxpx1dX7Wt44/7MbfkXfQfNBb9B43F3JJ3Ufnj/rzFOrtCWhjFustatETrttdi6JjpeHyo+AnBDp27YuqsRdhYsRPFE160fd3iCS9iY8VOTJ21CB06dxV+5/Gh4zF0zHS0bnutozL7lVknoRXs8hXqpDJ7Jdb97qqrcX2Xm3F7tx648657bF3b6W9QrCOEEEIIIf6iOTtNIZhlRSST7wvPXssQNbHOMrNPc25cz3sN7CAoq05syz2zTi5ndTnW2BXrvKwbIYQQQgghEWH8hMlY/uEKFbJYZ7SFYT5i3eIlH2PCjDm2xKgVq9bi3l4xR9dX/v3ckncxcmIcibKvkSj7GiMnxjG35F1XxLqvv92FMZNnoc8TxRgzeRa+/naX52LdnurDOHL8NPbsPYzdVYcQe3o0Bg8rRqs2zrZKtOJXV/wO42e8hu9/2Idx01+1/Xfjpr+K73fvx/gZr+FXV/zO1TJRrDOn5X9diXbXXIduPe5Gx+u7CDPoOt1wI7r1uBtXX9uRmXWEEEIIISS09BBmxpVjuIFYJwtsmYwv8TlqGlEpF7HO9JWrWKc8Y88loUkpvlmc41e14N60LYsz2XJStpry7zTn2Kkz6+7VZEJKNvNIOHNYt1x/h9tgEkIIIYQQvzEV67zIrHu5ZClemfeWLbHuzSUf4fa77nd0feXf9x80Fomyr+Uz5RJlX6P/oLGuiHVjJs/CS/Pexep12/DSvHcxZvIsT8W6PdWHUVt3CbVnzqLuUhJ7DxzD/oOHUbl1K7bv2OGqU3Tschumvrw498y6lxejY5fbPHVcL8S6Fi1boXWbdrKIZbQNplLkatGylaMyeyXWXdaiJa5o3QZXX9sR3XrcjU433Iirr+2IG268BVdf2xGFnW+ShbrrOt3AM+sIIYQQQkh46VmCKpRjeItRWFNdjjUZ0Sx7Hpomsy4jtg2XhTYJi8w6SdQpK5fFuux1Q5ZZ54Ds2XMiOxiUVSXAZb5fXA5UV2dsY7INpuo693qa5ZZT3XKg8y2/x2NPDsVjTw5F51t+72v7EUIIIYQQIuGpWPfcS4vw5pKPbIl18Tl/Racb7U+M/RTr+jxRjNXrtqF8006sXrcNfZ4o9lSsO3r8NGrPnMW+yy/H6bXr0NjYiC1vvYt9l1+Oyq1bXWn4//zNf6Fjl9sw+rnZ+DyPM+s+X78Fo5+bjY5dbsN//ua/XCmb15l1LVq2Qtv21+HmrnfgzrvuQdc77lRl0ymz7LrecSfuvOse3Nz1DrRtf51twc5rse6yFi1x1dXXov11ndCtx924vsvNaNPuGlzf5WZ063E32l/XSSXUUawjhBBCCCFhJCu4jMpmeFWXYL5CoNNug5nOpssIfCb5b2uKs+eeqYW9lorsOYHgEyGxLk3WDmuKnYp12b9X/632u2pbq+3pzZl1OdUtRx56ZAAeemRAYP2AEEIIIYQQnVjn1plpvfoNwegpL2PFqrW2rj9qwvO4umMXR9f3axtM3zPr9h5G3aUkTq9dh32XX46jz07Avssvx+evzMauH3bb/o0nho7HuBnz8MTQ8ejQuSvGTn81u83p9Ncw9eXF+Hz9FqzbvA1jps5By1ZX2b52y1ZXYczUOVi3eRs+X78FU19ejHHTX5OvP3b6q+jQuauqDHavrRXrfnfV1cKtHrXY3eKxdZt2uLnrHbimw/W4/Ne/xTUdrsdtv++OK9u2l7c/ubJte3S9407Vd27ueoft3/BarGvZ6kq53u2v64Q777oHt97eDXfedQ+u6VCIK9u2R5t21+DajtdTrCOEEEIIIRFAk82lEI3EYh3UW12aZdZpyIp9mb8D1OKcZ9tguo+6Lor6CIstyJbLZB2my620Yeb/lVtR2rGJi2Kd07oF78OEEEIIIYTkjqdi3cCRU/Dlxm9tXX/A4LFo1fZaR9dX/n3lj/sxt+Rd9B80Fv0HjcXckndR+eN+V8Q6O2fW9eo3BHc/0Dfn8mvZe+AYGhsbZaGuIvY4UqkUbrm9m+3fkLIkx82Yh57398HfVpZn7bXnADZW7MTbpaswZuocdOh8q2Pn6dC5K8ZMnYO3S1dhY8VOVO45IF//byvL0fP+PqoyBO3sEm3aXYM777oHl//6t7isRUtc/uvfonvPe9CmXVbMurJte9137rzrHrRpd42t3/BarGvT7hp0KOyMO++6R3WNO++6B7/v3hO3d+uBG2+5DVddfa3nYl2Xm7uiQ2Fn20ImIYQQQgghWRTnoMln1Kkzt4arsuyygpj4vDvFS5sdpxKm1OVQbbmYY2adGxiewWenfi1awpZo2TN7Zp1aDNOcSVc2ynwbTIc28aVuhBBCCCGERBRPxbpHnxyJ7yqrbF3/zwOGocUVv3N0fbtlz1esc9s2VtfXZtZt6f+E+5l1M+aheMKL6N13oKOMOi0tW12F3n0HonjCi6pru5lZl+/3tIgy67RZc3a+Y0abdteg0w03+pJZZ4QfmXU33nIbrulQiJat2uTsQ4QQQgghhBBCCCGEEEJIc6ZAygqz4p4HH3N04Z4PPIqiJ0bYunavfkPwh4f6Obr+PQ/2tX3tXOrg5PpObWN1/dcWvYP9u/ekM+reeBupVAqfvzLb1TPrwowkXtn9f6doz6wTnUdn5ztWv9Gm3TWycObFmXVKQdCKTjfcaDsr8LIWLdG2/XW4pkOhJVdf2xEtXDqrkBBCCCGEEEIIIYQQQghpjhQEXQCip1Wbq7F9xw5Ubt2KXT/sxi23d8OuH3ajcutWbN+xI/DyNQVatGyF1m3aoU27a9C6TTuhCGfnO3Zw+8w9ZfmUgqBVll2u5SeEEEIIIYQQQgghhBBCiHdQrCOEEEIIIYQQQgghhBBCCCEkICjWEUIIIYQQQgghhBBCCCGEEBIQFOsIIYQQQgghhBBCCCGEEEIICQiKdYQQQgghhBBCCCGEEEIIIYQEBMU6QgghhBBCCCGEEEIIIYQQQgKCYh0hhBBCCCGEEEIIIYQQQgghAUGxjhBCCCGEEEIIIYQQQgghhJCAoFhHCCGEEEIIIYQQQgghhBBCSEBQrCOEEEIIIYQQQgghhBBCCCEkICjWEUIIIYQQQgghhBBCCCGEEBIQFOsIIYQQQgghhBBCCCGEEEIICQiKdYQQQgghhBBCCCGEEEIIIYQEBMU6QgghhBBCCCGEEEIIIYQQQgKCYh0hhBBCCCGEEEIIIYQQQgghAUGxjhBCCCGEEEIIIYQQQgghhJCAoFhHCCGEEEIIIYQQQgghhBBCSEBQrCOEEEIIIYQQQgghhBBCCCEkICjWEUIIIYQQQgghhBBCCCGEEBIQBR1v6oao0bpdB88M0rpdh8DrFyV7vRifhWQy2aR4MT6L/sX+R3vRXpGA9qK9aB/aK6zQPrRPWO1DCCGEEEIIIWEkkmKdVwu4prCw9dNeTVGo81Kwa0r+xf5He9Fe4YH2or1oH9orrNA+tE/Y7EMIIYQQQgghYSWyYp3bC7imtLD1w15NWajzQrBriv7F/kd70V7hgfaivWgf2ius0D60T1jsQwghhBBCCCFhJtJinVsLuKa4sPXSXs1BqHNTsGvK/sX+R3vRXuGB9qK9aB/aK6zQPrRP0PYhhBBCCCGEZOnUpStGPTsDb5d+ik/WbsEna7fg7dJPMerZGejUpWvg5WuuRF6sy3cB15QXtl7YqzkJdW4Ids3Bv9j/aC/aKzzQXrQX7UN7hRXah/YJyj6EEEIIISQctL31j2jfvcgRbW/9Y+Dlbkq0aNkaYybPRNnG71G+aaeQso3fY8zkmWjRsnXg5W1uNAmxLtcFXHNY2LppL/+EugRihXFUevZ9fwS75uRf7H+0F+0VHmgv2ov26YYON03EkqqVGKZ7rwLxItqL/hROaB/37UMIIYQQQsJD++5FmLRwmSPady8KvNxNhRYtW+PVxUtVwtxHa77Conf/jkXv/h0ffrZJ9dmri5c2K8GuxRWtMWHaTKzbsgM79h42Zd2WHZgwbSZaXOGufSzFugdmV2B31SET1IEQ0d8vGR2+BVwuC9sOo1ca26F0ovV3qg5htyZINKw0a78ON/VHfIOxfcWfC9iwEA+4bK9chbrKeCEK45XCzxKxAhQUZCiMIxEvzP5bgfT3Tr+fTCaRrIyjUCXkKYQ93WfuCXZuB06U/cjMx+TvCAKSaf/xLkjpRf/rMHql3LesxhU7dtHZsmgh1mb6i+FYp+hPTsoTiL2KFmKtonyiYLX6MxvjiXIMcmgvO20ZuL08qo9ovJZ8ZFips36oKptNG3p9P8wFq35i5K9Gf6dsP9G/g/YvOwwrNZpTLNT4T9ZndPW+aSKWZP6djw38to+X45XRfGntBkE/l2xnOccyn++GwZ/S90GtQJmul2nfK1qItUK/E89dw+hPdlHNAYz8StmfbPlddOxjey2huec4sZv6t7L+6PTe54Z9CCGEEEJIuHBdrOtZgqrqEvQw+reI4nJULbhX9x7KRhn8zb2YX12O4fK/R2FNdQl69CxBFZTvZ+mxoNrkesExZvJMXRbd+Omvole/IejVbwhGTpiJz9bvUH0+ZvJMU1tCZ4N7Mb8aWFOsf0/5WlNWDvGrGvN7BmOfCdNmWop0WiZMM7FPzxJUOfKDe1GwdnZ/y0Wt0Xe0izDtYs7o31a/6fUCzu7CVhtEyy5S9fWWbWISwBWJJcrAmvZzbeBK+bvq/89+Txm0c8te+WTUmYl1xt9RCGqJmO7vHX1fFuQqES/UC3tK8c+OaGdHsHM7sKQOrFQgPnulsA8p+5peeKjAklLjIGUY+5+2Pyn/3zB4rw1aa/riA7MrVP3TLLCd7v+aoKfD8vhtL6kskn9o6+vkb4Xt4dBe2s/zfXDDdf/ysD7a+4TSR0QBSzMxItd7phf+Zdu2o9XjlNl908r/7Ip1w0pzt1XQ9kr7k/H9W+kz2XpbBN1DPr5r29zN8UryBaP5UYfRKy2FhY42PwubP4kf1hFnFGbnuSZicIACsGf2kefd+j5nNI8wEj29ehAq0PFb0OZO7Ca/p1kTuSXW2bUPIYQQQggJH16LdcPLoBfiNAwvy4pB8v+LxLpisZi0pjgj1rVoictajMIaE8HOqix+0qlLV3nryw8/24SRE2Zi4MgpeLj/MCxbtQGln6xH79hQ9B88DoPHTMeSj76Qt8QUn2E3CmuEWls1qnTvZeylFK8UNu+xoDoj7t2L+dXBiXV2MupEGXbi6+kFSqAcw3V+pfbHAqsFptPMuqDFOqsFnOMnUJVimuETtgpBzaFYl7bJSsSL9MEjsVhn4ylYh0EVM3vlu/WlpViXiGWEsgRiRkKaUkyz/f3RGK0R52KJ/DLr7Ah2ngSWtEHv0SuxtnQllijeG1aaFuOWjJb8NO03w0oz/qB474HZFa4HcT3rf2biWOlKfZDRIsimDhqZZK0YCCROy+OnvXQZOqUrjTNRDMYoq+C3E3sZZgw5KI9/9nK/PmKxTiTIGfuLG/dLt+yVy/1HKZ5ZZb6qRRUrEWoJFmqzzkYbZ8A4EYndHL9s2dXALnr/q0C8SJyt6Udmnbf9z/3xStmXzfxV6RtuZtYF5U92fEvpY9K8M16afhBI6r/yPEExdwizP9myh7Z9NyzEA4q+IwlJRvMI8T1A6pfe7FoQlP/oHyR0ZjfpOlpxTv/v/B7ioWBHCCGEEBI9JLFu2l9XoOrQcTQ2NsqSRW3dJcx9f7X875q6S6ZinVoIqcb84hK9SCQLbJm/U4l7CtHNUWad9t9G5C88PfDnGC7/TSvVe9cV3oSbb+/h+Fqjnp0hZ8uNnvIyniqegufnvInlq7NbX65YvQlTXlqEJ4ZNwJDR0+T3Rz07Q3e94WVI26y4XBbjeiyoTgtSGSFPnV3XUi/WCV/2beamfS5r0VInxP1hwEhb74mulRVrNYKuKrMz6yPDy9K1L1hiESi1lVlnkmEShFhntIDLaetLrVhn8SS2020wO6r+Trx1kZkA59Y2oyJ7uXFGnblYl0CsIIaE6H1hppzT76d/XyX0CcU90TWdC3beZVxUYO0GRbAwI95JQQ4pmCT5gj6gpM/GDHv/0wdNM+OMoF6qjBOTIJtSNJD/X5CZI+pruZbH7/FK+dvKsdbuFpROM+uM7KUvV34ZT17Zy8v6GG2DqX1ow8xf3LpfumUvx/aVxxxxMFs5Jknjl+ihFsPMOvkBF+NzyNzaotbLDMTdpRMzfpAev4YJ2l3bt+Vt+gznHP4KLKEdryzmt3qxzr3MuiD8yWhsstp1YVhpBZaM1mbCioXjsPqTE6Qszg62xLqFwrm45H9BbDHuhn2ED2NKDyMZiP527WZ0jex39Q9QuWkfQgghhBASXiSxbuW6rWlZ5vAJbN9zANv3HMD6bbvx2t8+w/Y9B1B3KYkjJ89YZ9bJQtEorDEQebJZW5rtKQ3FIqBqwVBBVpTJS7j1ZibzLMftMDvccDM+/fJbvPTam/hV5ly0jp1vxfJVG/Dy/LcdX+/t0k9RvmknVpZ/g96xoZj35nKUb9qJvy79BLFBYxEbNBavv78K5Zt2Yt5bH6JXvyFYtmoDyjftxNuln4ptb/OlEktdyqxz2z6XtdCLddff28/We6JrSeKbzhZlYrFO+ruC9PkU+QULddsYWTzJ7IdYp13A5bqwNRLr1IHF3DLrZFHF5mLVjm2tnkS3a6/chDqLrSa14phSPLNzBp3T7ycV59zFEq6KdVrBzpcn5BUZXcrtvZZkgh8in5S+EzfwHS/Pk3Sl/2XqnT1PR/1QgLJPmWY+GWx9ZuvMsqpDuiCynfIEYS+t8COXa/RKxVlEuY/3Tu2l810XBWO3x3e362O0DaZ+O2NFoNPO2O7CmWx+nVEntJnG5tmxTP1Ai1l7ZLcT1dtDu5Virpkbftkr2ze1Yt1EwzPrlHOHIMQ6t+zjy3hl0Z9UvmR3fpVDH/Sz/4m2EzUS64zrrRGHc5xXhtE+yofj7Il1mq2ztcKWx2KdV/bR9h/VbgSihxOd2E0S44RiXXq89/oBHkIIIYQQEk4kse6rHXtQm8mcE3H2ws/YWXXQUqwbXqYXyrTnxQ0vk8QipXimEUnMMut0n9nMrCsuB8pK8squ63b3ffj0y2/x8vy3cdNt3bFi9UbMe6MULVtd5fhan6zdkj2H7rnZeGbyLJRv2onYoLEYPeVljJ7yMmKDxqJ80048M3kWRjybPd/uk7VbhPWzs82nJMSpxatqzF+Qf2adm/a5rIW7Yp3KH5WCpdE2mD3TmaEF2cCIgcBk63B146BQUJl1ygVcPgtbL8U65eLYbPsl9bk/Vk9H57+ljBsZdba3wdRmxgn/neP3K+MoLCxEYUbYi8X059+lBcbcxDpJsPMlQ0Ug1mnfV/ukvn9qfdXNs0M8638WZ8Tp+p9JkE0YwNSezaPcii9jZ6OMDzvl8dteysCrVHZ18NW8fE4z6yztZef+kUcA2M3x3e36mGfW2ct2dft+ma+9cvNJzT1PcFZYtr4LbfcdlcAn21y9dbTo98NmL1lskzMEpf47UThep322Amszot6SUv0Zpn5lUUdivHKUWafJDFLea10QZILof0Z1030mEEW93lI1CPtoxbZ8MuuyfXcllngs1nlhHydinVO7pedbKwXbYqpFcrftE3TgiRBCCCGEWCOJdbv3HZEz5xZ9+DneXbUec5Z+ikkLl2FyyXKkUo1Yv223hVinODNNFtP0Z8hJ59L1WFCNqrLydGaXMsOrRUuhWCeJLLpX2ajsWXeaM/OypM8rW1MsvrYTJEGqfNNOvPrX99GyVZucrqMU656ZPMtSrBs27nlzsU7bBnZENw/OrHPLPpe1cHcbzKwPpf0xLVaaiLwZXyrIPgHpfKFpRxhya5vGfLi60005/21OYp1pMFcs1mn/v+NN2WCvLphk80nxXJi/6E3XhDorsa4yXpg+R64yjsJYIpsFZ3BendPvJ2IFiMUV59K5nFkn0XfAU576r/bJdyk4mxUDRNvIqTPr9P/v/ZPgrvQ/O2fEaQNKgv6k2gbT5HwnZXBWGt905245KI/f9hqmyLJcu6EiKxBJGYF5ikNO7CWNVWs3VGgC3vYebvDFvzysj3FmnTb7wD+xLl975WRfTfumfXOl+j4oesDA4ozYB2ZXYG3pynT7jV6JJaOzNpbOgVX2ibDaS9QHHpAz6/S+Maz0EJbMVsxLAsqsc8M+voxXDuZL1vOr/O+ZfvQ/XQa4hX8oRdIlo40fHPNjLu+1fYaVZs63zGSlrp29MDMeZ9pecx6b8Oxb4YNQ4Z9PaXEi1jm127DSlRimutdJfcu/DERCCCGEEBJOJLHu+Olz2Fl9CJMWLsObK7/E0ZNn8cn6bzFp4TLMyZxb9/d/bDUV62TxrboEPYrLsaY4K/r0WFAuCz6SsDZ8QQl6aEU6CQNBLXu9atX5a8psMd25bNL1ZBEv/7Prut19H1567U385r9yF6KkbTCXrdqAXv2GYOgm3V4AACAASURBVN5bHxpvg/nmcuttMFu0hOrcPw2yoKl838D+WvsGYZ/LWujFOruIrpU+06/EYjtVhXgnZdZpF/fyv00yvYy3BdIHVqyeXPaLXBe4ymCHHBi8SfkkqUuZdYpgozJYrH9i3rvMOreFOsvMusp4NustYZY5l9v3E/E4KisVYp3ys1gh4pXu1dNrwU6UWafeMmyiRqwTBJSUwrOPwaW8+p9FJpvcJxTZULsNxG9RH8z2b2lrJr2wqexTTsvjp720W4IqxYts8Nu8bPaD39b2UpbBS7EuL//ysD6GYp0u+Cud6eb0fuu/vZyiy6qTx6CJWGLR7sb9N9MusxfiAe3DNALbu5FB7KW9jMQ2rVgn3fuf09TbzN5+EerxKkSZdX74U9oP9PNAo7mj1FfS22n3R7zU/MyxsPqTI99TjRUZu4xeid2ZjFUjsU5/nf6Rmk9pcXpmnRO7Kb8zbHYFjM709cLHKNgRQgghhIQbSayru5TE2Qs/y+fV/VJbh/dWbcD6b3/AsVPnAAB//WitqVgni2+SWKQSgrJbVapEI+k7Vuetyefg6V9StlxVdbVBxlz671TiU57ZdW4w6tkZcqbc4NHT8MSwCZjy0iKsWL1Jfn/56k14fs6beKp4MkZOfEl+f9SzMwyua5ZZJ8iuU7SRYeai1nY+4qZYp/VDy8+kzDrlAsfwYPqihVgieF8bEBA9BR0WsS6XBa7Rdi3Z4Jpg26BcxDrFAlm5gBa2hUeZdV4IdZZiXVI6Uy6GRDKBmMk5d5I45/T7SVmsM/9+gem2m8ELdllBbiGGjV6ZzkJQnctUgSWlosydbLBTLzL4G9jNKaCr7GuzDcQxRbBHJazpMlXTfUd7RpFsM81nov93Wh4/7SUSmFTBb00wToRZ8DsXe2mv6ZVYl4u9vK6P9Jn6vMhsPxX9vZP2CKI/OvLH0ertGbVb7Ynqpnw4Zslsc7FO/r7ZmYMbFiLukoDllb3sZtaJs/wt5gM+zrXCOl7ZF79tnhnpUmaQZ/5kIHAazb0lG6q2WY2gPzmykeHcQG+j7Fb1av/Qr33CP5/SYtZ/rMQ6K7sZ+ZyTbZHzgYIdIYQQQkh4kcS6XXsPq8SZi7/U4sW3VqK27hIaUils2VUtn19ndmadchtKofhTXYL5IrFOex0LMS2d+aXY2lK1/aU6u2x4GYRnuRm97xedunRF2cbvUb5pJ5Ym1mLwmOnoP3gceseGovST9Vi2agMe7j8M/QePw6hJL2H5pxtRvmknyjZ+j05duhpc1zizLl1ngVgnEPHyzaxzi3VbdjgW6tZt2WFyzXtzz6zLLjj1ItEDoyciXqpfqEdNrHNjgZsOACmzL9TBJMfbYGrPH1MKAYJAlReZdV4JdfbFOq1YZnxmndPvJwWZdYlYAQrjCcRj+Qt0fgl2sm/IWxDpAyzKQKdqy8eqlRg2eqVq2ys3sr+87H/Z7EBNFpwgcKva8stoS8zRK02DrFpxRi24SGcnOSuPn/bS/q42+K36nomYaFccsraX+JryPUIxTropRuU6vntRH0ksUNbvgdkV6m1bLcZzr894dWIvR+JH6WzB9tD6/ifZWr6XGp2RpEIsYAn7hMtnt3khIJhn1inGG23WsGA+tnb2RFVmlN+EcbwSbyduzy+M7rVB2Mu2XY3uSwZjzbDZ6t0i7No+bP6Uq42kcUbe6lj5oNOGTBarjyJuGOxj5EeO7Gbgc1o/E50l7BYU7AghhBBCwokk1jnBrlgn/o4ge8mRWKcUWzICU3E5gHLMX1CdFt/kv81811D0S38epGA3ZvJMOVuufNNOfLZ+B0ZOmIle/YagV78hGDlhJj5bv0P1nTGTZ5pc065Yl7WjSJQLi1g3YdpMx2LdhGlm9skzs67jTcaCnWqxJgiaKf/W6y28gljgKhem2s+Ui02nmXVquwmehpZFmtmebJPmnlBXiXihSeaaIJNtQaxAFvIq44Xm38+cUefk+yqxTnFenSrrTvv9kAp2WlFXLcapg0Xps0IUfbF0pZzRouq/HgVIvOh/6n4iDpLpHh6QnogvWoi1NoVJqS+r7GrQl6zK47e9hpUqRH7l1qdCIaC/Q/FF7CtO7JW1mbcicT4BTC/rozpL0kSsNMvgCJu97Pml+VhjFKy12gZT/o42+0ObIeXyOOe2vYwz6/rrsgV12bsKP1J9FuAYH6bxKv03RnMu5cMr/m5D66U/qc7GdFCPMIp1XthHrlfmwSf1Q0waP5DmD1Zb9gaQWeeFfbT1F2Y+27Rb+n1BpqLu4QSeYUcIIYQQ0tzwR6zTbM2oFM8ciHXpTL202KQ8u075veFlWQHKXuZcsIJdi5at8eripSox7sPPNmHRu3/Honf/jg8/26T67NXFS9GiZWuTazrcBlPZDqZ/VhKMfa5ojQnTZtrKsFu3ZQcmTJuJFleY2cdhZp1IrPOaoDPrvFjgRhUvM+qaO16fYRd12P9oL9orPNBetBftQ3uFFdqH9skHCnaEEEIIIeGi7a1/RPvuRY64uusfAy93U6JFy9YYM3mmvCWmiLKN32PM5JkWQh3xAt/FujDRnBe4FOoo2AVNc+5/tBftFTZoL9qL9qG9wgrtQ/vkAwU7QgghhBBC9HTq0hWjnp2Bt0s/xSdrt+CTtVvwdumnGPXsDJMz6ojXNGuxruNNzXOBS6GOgl1YaI79j/aivcIK7UV70T60V1ihfWiffKBgRwghhBBCCIkCzV6s63hT81rgUqijYBc2mlP/o71or7BDe9FetA/tFVZoH9onHyjYEUIIIYQQQsIOxboMzWGBS6GOgl1YaQ79j/aivaIC7UV70T60V1ihfWiffKBgRwghhBBCCAkzFOsUNOUFLoW64KFg13z7H+0VPLQX7UV70T5RgfaifWgf76BgRwghhBBCCAkrFOs0NMUFLoW68EDBrvn1P9orPNBetBftRftEBdqL9qF9vIOCHSGEEEIIISSMFAQtXhBCCCGEEEIIIYQQQgghhBDSXKFYRwghhBBCCCGEEEIIIYQQQkhAUKwjhBBCCCGEEEIIIYQQQgghJCAo1hFCCCGEEEIIIYQQQgghhBASEBTrCCGEEEIIIYQQQgghhBBCCAkIinWEEEIIIYQQQgghhBBCCCGEBATFOkIIIYQQQgghhBBCCCGEEEICgmIdIYQQQgghhBBCCCGEEEIIIQFBsY4QQgghhBBCCCGEEEIIIYSQgKBYRwghhBBCCCGEEEIIIYQQQkhAUKwjhBBCCCG+s3nb3sDLQJou9C9CCAk3HKdpH+I+9BtCCIk2FOsIIYQQQojvMJhAvIT+RQgh4YbjNO1D3Id+Qwgh0YZiHSGEEEII8R0GE4iX0L8IISTccJymfYj70G8IISTaUKwjhBBCCCG+w2AC8RL6FyGEhBuO07QPcR/6DSGERBuKdYRElOMnT6P30+PQvnuRK/QdMTnwOhFC7HPfE8/g1Tc/wLnzFwIvCyG5wGAC8ZKw+texE6fw8KDxnIuFnOMnTxu2E9uLEHcI6zgdFmgfkgtNxW+uml2Lsj2XAi8HIYT4DcU6QiLI8ZOncf+Tz2DkiwuxY+9hV2jfvciXcocl8GGnLFEUPs2CgGEqJxEDAI2NjTh5/iIqDxzF4VPnUN+QAgDUNzTg8Klz2HXgKE6d/xlHT5zC+Jnz8fuiQVj2yeeoqwtmMWPWl+hjxAwvgwlejvFu+nZUyhlFwhisOnbiFO5/8hnMf2c5tK8dVf7MxfLlwsWf0WfoxCbtb9I8W9ROUWuv5ojb42pT8eswEsZxOkyExT659Km+IyZHYo1Qte8ghk2ehS73DXBtzOhy3wAMmzwLVfsONmu/yZeyPZfwf6aFX7Bryv2DEBIMFOsIiRhKoW5JWUVkxLowBT7slCXXV5DBG7MgYJjKGWb6jpgcaPBm//HTqEvWAwAaGlI4cvocKvcfxYmzF5BKNQIA6pJJ7D12CrsPHcf5X2qx88dq9Ct+Dg/+ZQw2Vnznq72kvjTv7WU6H9v+06HI+FhdXR2eHPs8g3g+41Uwwcwv3XhVHT7pim9HpZzK8nohLHrVh8IWrLIS6paUVURizBw/cz7mvPGBrg7VR05FovxW2J2vRqW9mhtuz/E5X/aWsI3TYSMM9smlT0n9JuwPp1TtO4hbH3oSRcXPY+zcJZi0cJkrjJ27BEXFz+PWh54MRLALg9/Y5Tcza1Awxpx/m1YTeDmNaMr9Q4STWElY1we0C4kCFOsIiRBaoS4qYl2YAh9eC3VBBW+cCnVeldOLYK6fE5L23Ytw4txFSxvuOXTCE/udPH8RuzQZdZfq63HgxBn8cPAYzlz8BY2NadHuYk0d9hw+juqjJ1FTl0T5+q9xT2wEBk2YiZ/2HvDcVlZCXZQCmSs+XYu+IybLtrX7On7mgud1vKffCN8m/3+IjfDV7l4FEx4eNN5TAcwt345KOZNJ7+6dXgYkwhSssiPURWHMXLF6LR4rnoJUKqWqw7mfa/DBF1tDX347PDxovK35ahTaq7nhhVDHdvaWMI3TYSRo++QqRCxOrEP77kWhfzhl2ORZKCp+3jWRTktR8fMYNnlWs/Ob5kJT7x8i2ncvci3+GHQyAe1CwgzFOkIigkiocyrWPTgwfcbdgwPH+TrohynwYVWWXF9BBm9yEeq8KKcXwVy/nyyTJlpnLvxiWKYDx8941s4A0JBK4ejp87qMupq6S6g6ehJ7Dp/AxZo6AOktM89c+AU/HDiGgyfP4JfaOryzfBVu6/0U4gvfRTKZRE1NLYZPeVkWZG5+8AnX2tpMqAvzQkPJxYs/484+g7F91x7H/lm+ZbfndfRr4i/hp+29CiZ4uWBy07ejUs5k0pt7p9cBibAEq+wKdWEfM3dX7UP3R4bgxOmzqjrUN6Tw8abvQ19+u1j1y6i0V3PDK6GO7ewtYRmnw0qQ9slHiLijaHAkHk7pct8AVzPqRBl2Xe4b0Gz8xqvsojBmEjWH/iGCohTtQvyBYh0hEcBIqHMq1kk3EdHNxMtBP0yBD69upEEFb3IV6twup1dCnd/2VPrH+V9qdWU6duYC3i/f4lm50hl1DQCMM+rO/1KL3YeOY++xU6i9lBb4UqlGHDt7AXsOnwAAbNu9D+27F6GmphZDJr2Ex8fMwLc/HcDqzdvzLrddoS7MCw0lC99djlHT5zr2z+NnLvhSR78m/hJ+2p5iXTTK6VVZvR4nwhAEdiLUhX3M7P30OGzaukNXj80790ai/HYJ05yV2MNLoY7t7C1hGKfDTFD28VqICEu/at+9yDOhTiKIegblN17Na8PgK82xf4jgdo+0C/EHinWEhBwzoc6pWPfAU2PRvrv/mXVhCnw0JbEuH6Eu7NujBfVkmdI/vt93BD/X1sllOnPhF5R+sdXTchll1FULMupOX/gZuw4cxaGTZ5Gsb5DLWa3Y/k4r1LmxaDTauk8r1EllCPME8/jJ0+ja6y84eOS4Yx8t37IbS8srcE2PPp6WkdtgOicqIlhUyulVWZu6WOdUqAtzcMbMB6JS/nzr2VTrG3W8FurC3s5ubj9fNGSC7+UPepwOO0HZx2k2vdRv7uw7PFIPp7TvTrHObXt6MacNg680x/5hRW1dHR4rnoLHiqegtq7O0+9ECdqFuAHFOkJCjJVQ50Ss27pnPx54ahyee+0t3ydBYQp8NBWxLl+hzq1yei3UTVu4FA8PGu9bn9P6R+X+I6i9lMTFX2rx4bptnrczYJ5R96Mmo64hlcKxM+fljLrqI6ewpKwC76z+Cu27F+mEOmnR+OBfxrjeh7T+tf2nQ7q23f7ToVAtPqbNfR0zF7zj2EelrLr4myvwxJgZvpZZCizkY0c3ruEGFOuiUU6vytqUxbpchLqwB2co1jXN+kYdN7fojZqI7tYcvL6+HoMmxpuVqBAVoiK6KPuKnTVCWPoVxbpg/cYuYfCV5tg/rFixei1u7zMUt/cZihWr13r6nShBuxA3oFhHSIh5eNB4U6HOrli3dc9+xJ6ZjifGvYDt1Yd8nwSFKfDRFMQ6N4Q6t8rp9jlGWqHu/iefwfGTp33rcyL/+OHAUazcsMOXSfSR0+fQkEoBcJ5Rt/doVqh78OmJ6DNskk6oe3rafFzbow82b93heh+yI9SFafFRte8guvZ6CucuXHTsp+VbduP98grcHSvGt9//4Gu5Kdbl7qNdez9tO8NAlIHutsCkLaeT8lmVl2Kdv8Gqk+cuyPXasH03evaz//S09r7y2Te7sOzLb+X3/OyTIi5c/Bl9hk60LdYpCVMmtVu+HrVgmoSbGVhhamM3x6YoiehuCXXJjFD34NMTm7yo4FUf8LIfREV0iaoYIRLr3lj5JY6cPCPvcCJ61dRdkr8r/Lz2EsU6FwmDrzTH/mFGbV0d7uk3HE9PW4Cnpy3APf2G67K/3PpOlKBdiFtQrCMkxLTvXmQa1LEj1n1VWYU+wyfj8bEvYNtPBwKZBIUp8BF1sc4toS6smSFBCnVm9fFrEn341DnsOnAUp87/7Cijbt/R0yqhrt+oaUKhrvOfBuCD1f/w1EZmQl2YFh9DJr2Et5Z9YtmPtC8pq+75RaUYPCHue7kp1uXno6LAjNGT0FYLbrfLKSrf3L+VqX7Tbnkp1vkXrDp17qJcp3yEOskW2vf87pdaxs+cjzlvfJCug0k7bt65V1Xf6iOnAh9jvPD1KAXTJETCzumz51XvzX9nOfoMnWD784rtu3DTA08EbgOvxTq/d3jItT1zeSmFOmlHBr/r4tc4bcdmks8PnDJXbv+BU+bi/iefwemz5w3/bkeVd+voqIguURUjtPOq1xNr5YcmzV6HTpzGpIXLkPhyi/jz46cp1rlIGHylOfYPM6SsL8nPRdlfbn0nStAuxC0o1hESYvIV61Z++TW69RmMZ16cj20/HQxsEhSmwEeUxTo3hbowi3VBCXVm9fFrEg0Adckk9h47hd2HjuP8L7UAzDPq9h8TC3VvJL7QCXV/++wf2LH3sGc2shLqwrL4+Hrb97ir7zBcyoifTl7prLot6N53GCp/rA7ERynW5e6jURLrlEKdWdnn/q0sELHuzkeG2so4eGzEFM9t6ad/KTl59gK+z9QnX6EujGLditVr8VjxFKQywUujdvx40/eob8gGOM/9XIMPvtga+Bjjlq8HNWd1g+r9h3DnI4OFfVMpxDn9vNMfHsMLr68I3AZeinVBzkeN8EqoC8qf/RinvRbqon4fE+G1GBEWEVw7rzpw9JSt/rPjpwOYtHAZ/vHtD8LPt+/Z3yzFur4jJjvKSLVL0BncfvSPz77ZheNnLuDwyXN49b2VoegfZvxxwEg8PW2BItawAH8cMNKT70QJ2oW4BcU6QkJMrmLd5p0/YdQL83Dzg09iUekqW5MIinXuLfC9qIPbQp1biyS37Rl0YCRosU6ZUXexpg57Dh9H9dGTqKkTZ9QdOH4GS8u36IS6tz9eZyjULV/7jSc2siPUSXYLchF26dIlFA2ZgE/XbrK1IFe+pKy6KfOWYNT0Ob6U955+IzxZ+Ir4Q2yEr/2NYp2xWKcV6iRBTiTUiQIAfoh12t8xevlhSz/9S+Lk2Qv4ft8R7NjrjlA3beFSdO87PDRi3e6qfej+yBCcOH02WxdBO37wxVac+7lG/k59Qwofb/o+MmKWXV8PYs6aL9X7D6Fbn8GWGXVKQcLqcymj7oXXV4TCBl6JdUHPR0V4KdQ1VbHOD6EuyvcxI7wU68LUt5TzqskLl6G+Ifsw5PIvvsaMNxKY8fpHOqYu/hCTFi7D1MUfyu/t+OmA/LdrKyqbpVjXXHC7f6zcsAMXa+sxfk0Sq35swJ59B0PRP8yIjXxOt46MjXzOk+9ECdqFuAXFOkJCjFOxruzr7RgzcyFuvP9xDJ82B5u+32N7EkGxzr0Fvtt18EKoc2uR5PYTdA8PGh/o5DRosU6UUXfmwi/44cAxHDx5Rp1Rl4NQV/r515i0cJlvfUhrMyNBz8+F7Cefb0DRkAmyKOrkJZ1V163PYPy076Av5fVivDLDz/5GsU4s1omEOqlMZltkelVOK5s2V7FOEup27D2MPz4hvkc7Eeru6DMEixPrQiPW9X56HDZt3aGuj6Adq4+oMxE279wbGTFLQnuWlZP5XtAPoJjV6c5HvBXqwtDGXoh1YRITlO3ppVDXFMU6v4S6KN/HjMhFjJC2UrXqW2EaJ5Xzqpffy26Nf+7iL7bmikp+OnhM/vvlmfUWxTrn3DC/FgVjalTcML8WyWQSv5lZE3j5JL9xq398v+8Izl74BU+sSOJfp9bi9r/W4cjxk6HoH4SQ4KBYR0iI0Yp1PWMj0b57EXrGRmJx4h+Y8/5qLCpdhfGzFuHuWDFueegvGPtSCb7cutPxApVinTsLfLfr4GRx7rdQFyWciIqvLUmYtu+SsgpMfO1dT4JzgDijLpVqxLGzF/LKqPug/Cv5s3zK+PCg8Zg+723H/cIs886vhewvNTW4q+8wVGzfZdmftC8pq27CnLcx4aUFvvkuM+ucE3WxTiTUacU60RaZXpXTyqbNVazTzqGsxsBchLoP123ztU/aafOg5kNeIZpn2anfjqrDhnOxoOst1aln32G6cT6frS873t1XJdSFoY3dFuvCOk9+eNB4T4W6oLYl9HKctmMzN4S6KN/HjHDar95Z/RUeGPis6b1Q6lunz54PxTgp1VOaV73593VyG1cfOu5YrDtz/mf57xet+JxiXY4UjKnBd2ehomBMjfxZ0OWT/Mat/nH24i94fUsDLp9Ziz8uvYRJ5UkcPX0+FP2D+EsqlVI9TNzY2IhUKhV4uUgwUKwjJMRog3bSDb599yLc8KcBuO3Pg9B/9Aw899pbWF62Ad9Vm59LZwbFuvwX+G7XgUKdu+1+/OwFSztKT9hqBTutUKddyP+w/5gr7X6xpk6enBll1B08cVZ+Qs9UqLtPIdSVfaVaULrhl3YEOztCnZ/Bvjf+9ncMnTzL0g9Er/Itu7G0vAJ3/HkQDhw+Gqgv88w66/oZ+WOUxDqlUKcU64y2yPSqnFY2pViXu1iXFuoGC4W65V9uw7c/+ZPB66TNg5gPeYXRPMuqfmZCXRjqLRIp+gydYJgxZ/W5KKMuLG3s5rw+zPNktx7KeWjwJKFQF1S9vRyn7fiGaK29Yftu22Oc10JnFMS6b386gAcGPothU142/DutUBeGsUOqpzTHWrluizweVlRWy+9Pf/0jzHr3ExXaOeOURcvls10B4IU3V1Ksy5GmJtaZ9Y/Dp85i65EU/t/narF8TwqXz6xFxeEUvvlhfyj6B/GHhoYG1NUDszfWo+O8OvzzxBr888QadJxXh9kb61FXDzQ0NAReTuIvFOsICTHaBYQys05+stelBSrFuvxwuw4U6rxp91wFOyuhzq12//HQcew9dgq1l8QZdQePn8HSPIW6fMU6pX9aCXZ2hDq/FuynzpxF115PYe8BcZDV7CVl1Y156a+YNvf1wH2ZYp11/Yz80Uise3DIFHS4+1E8OGRKKMQ6rVAnlclsi0yvymllU4p1uYl1ZkLdsrXfYuueA9ix19+taZPJJC5c/Bl9hk50TaxTEqZtnczmWaZ1tBDqwhCEdkvYkbj+jzGhUBeGurq5HXvQW7Fbtanb65UwrA/CKNY5saHX9gubWKes++LEOtxeNBjtuxdh5LTZqK+vx2Mjpoj71uBnVUJdGMYOqZ7SHGv9tz/I4/mazduF7wPpDFXd+cHvr5Y/r627pJu7+V0vinXe+02+/ePR4ZNw/EI9WrxYixc2N2BldSP+bXotGhuBjzd9H4r+4TapVIqik4aGhgYcOg+0m1OHGxdfQsl3Ddh4vBEbjzei5LsG3Lj4EtrNqcOh8xTsmhsU6wgJMdoFhAi3xCaKde4tft2og93tbsIm1GnPfXEDN4J7ynbPRbCzEurcavfGxkacvvAzdh04ikMnz6oy6g6dOOuKUDdo+kI88JfReZdVOkvRTLCzI9SJArpeBHXjC9/B9FffsGx70at8y24sLfsat/UeiCPHTnjej6x8mWKddf2Mxmkjsa7D3Y/izLkL6HD3o4GLdSKhTiqTSKijWOevf0lo51B2AuMqoa5ILNT97Yut2PLjfvkafvfL8TPnY84bHwCwEK0s5kObd+5V+UH1kVOBjzkSbp3/Jb38Or/KLl7MdY38OIitE92yQ5jazG5dtGvAfP4dtFCXTEZbrPPDfmEV6xYn1uGOosGOxtCwjZNSPaV51M6q7JrlgzWbsllzJcvx3OIP8enGbQCA46fP6eZn7326Qf7bwyfOUKzLg6Yg1tnpH6lGoNsbdejzYRLfnQWKy+rRb3kSqcZG7Kg6jPnvLG9S4kwqlcL72xuwbl8KqVTKcMvH+vr6wMvqJ3X1QNs5dXh6Vb3O7yWeXlWPdnPqUFePwMtL/INiHSEhhmKd/2VxI4jhRRDXSfAkSKHOzeCXtLDzwp5OBTsroc6tdpdeDakUjp05L2fUHTpxBksshboF6jPqBELd0OcXo8t9j2P9N+6cg+RkS0wjnzUS9NwcC/YdPIJbH/qL6RkkRi8pq27kCyWYteg9z/uRHV+mWGddPyPfMxLrwpRZZ7Y1p0ioC4NYZ/Q0vYTXtvTTvyS0cyi792gzoe6DL7aiYvd+1TX87JMrVq/FY8VT5O28cp0Pfbzpe9Q3ZLcEO/dzDT74YmvgY04y6b1QF4YgtB9iXRiEnnztEKY286tNw9Z+URXr/LJfWMW6O/sOz0uoC0ufU865jp46K5f3nU/+gemvf6Tiq+9/AgDs2nsYkxYuw3OLP8SM1z/CS+98jJ8OHMvWdc8BinV50BTEOjv949myJK6dV4ctp9N1vH5hHZbvbNB9r6mcWdbQkBbq/vfUWrz3XQNGfZpEm9l1+KcJNfinCTVoM7sOoz5N4sC55nNOWyqVwuyN9bhx8SVDoU7ixsWXMHtjfbOxDaFYR0iooVjnf1ncCGKERaxrCkKdl/a0WUstCQAAIABJREFUK9g9PGg8Hh403lSoc6ucB06oz6cDgEMnz2Jp+Za8hbrhM19H5/sGoHzDN560vV3Bzo5Q5/ZYMGr6HJQsWZGTH5Zv2Y33PvsKt/V+CidPnfG8L9nxZYp11vUz8j0zMSwsZ9ZZiXVGW2R6VU4rm/6w/5hpH6JYZ1Oo+3wLvvlhn+4afvXH3VX70P2RIThxOhuwzGU+9MEXW3Hu5xr5GvUNKXy86fvQBGft7lxg52W0u0HQ9fRarAuL0JOvHcLUZnbrol0D5vLvMLVfFMU6P+0XVrHO6RgTxnFSqqc0j6qtS1oP+gA2fvcjJi1chu179gs/X7VhG8W6PGgKYp1Z/zh57iL+/kMK/9/0Wnx+qFGu45+Wpuun5K63LgFoOtlUAND/w3Q9byi5hPd2pfDViUZ8daIR7+1Koc/yJP5lSi3mbKpHY2Nj4OX1msbGRnScV4eS7xosxbqS7xrQcV5ds7ALSUOxjpAQYyXWiQLdubwWLVmB3k97t41NmBbLzUWsaypCndf2tCPYaV8ioc6tckrlOnz6HBpSKRw5eQ5Ly7dgSVkFHho8SSjUTVq4DNf1fNRUqBs56010vu9xfFy+3lMfsCPY2RHq3BwLvt25G90fGYLaujrHbS1l1Q2d9hpee6vU875k15cp1lnXz8j3oi7WmW2R6VU5zWxqJdQBFOvsCnVf7dorvIZf/bH30+OwaesOVdvlMh+qPnJKdY3NO/eGLjjrxdwvTEFoL8W6MAk9+dohTG3mV5uGrf28HKfdPM9QiZ9nG1Ks876e0jzq/MVfbK0NPvqyApMWLsOh46f164bT5zDtryso1uWBlVhXtieJq2bXBu43ufSP/cdP46fT6eyyN3emTMWZYZ/Vo/PCuiaTSdXY2Ihny5L49xdqMWldA/7luVrc/d4l/M/JNfgfk2rQd0US35wCEtUp/PsLtXi2LNnkhSkA+OeJNdh4vNFSrNt4vBH/PDH9IFzQ5Sb+QLGOkBCjFet6xkaiffci9IyNzEmok7apemzEFPm9dz5chXtiI3D0+ElP6xGWxXJzEOuaklDn1nkoRvYUCVtWLPjwC8/Fuh17D2PnviOyUCdd/53VX2FJWYWqPKs3b1eNFdryPvPyO+h8/+P428dlvviClWBnR6hzcyx4bMQUJNasy8kXy7fsxrufbsLtDw/E2XPnPe9Pdn2ZYp11/Yx8L+xi3UNP537mp1flNLOpHe58ZKjntvTTvySUdbHyFzOhLrF+Oyp+3G9oP7/6Y1TmR2Gqp9EcLOhz3LwS68Im9ORrh7D5phluCU9+Ck12iLKo0JTt0xzFuqWrN+KCIitc+2psbMRPB4/JYlxN7SX5s7pLSXy7ex9efOvvwvlkc/EbN7AS6/7PtFqU7bkUuN/k0j/qkvXo8FodRn9ufD7Zd2eBed+m8G/Ta3HgXNMQ6hoaGvB5VQr/NiObTTi7IoX/pskk7LsifX7f54ca09+tSjWpc/u0ABTriDEU6wgJMVqxTrrx57NIk/4eAJZ98jl6PDoUB48c87weYVksRyUYlatY53cgxc3tpAC9UOdWXUT2zEWoMxPs3BbrRH6lFeRWb94u92mRWDd69ru48cEn8dayj33xBzuCnR2hzi17lv3jKzw0cKx8/pKTl5RVN3DybCxe+pEv9rPryxTrrOtnNF6GWazbte+o6rB1J68/xIo9K6eZTd24bzZ1sU4k1JWu3YrPKnbha8G2l1r86o9RmR+FqZ5Bz8H8bMuw1M1NO4TNN5sjURYVmrJ9vBbrwvBQg1TPXNeCdqFY5wwzse7fptcELtRJfpNL/6hL1uOO1+tUAtV/n1iL0h+zWXYrqxvxr1Nr8WV1A+rr6wOvqxs0pBrR4sVazNuarecLmxsw86sGlWD3PyZl237e1hRavFiLhlTTza7jNpjEDIp1hIQYo8w6ZWack5cys+7v5f9At6JB2HfQ+0BQmBbLUQlG5SLWBRFIcdueXtVFW858hDojwc5Lse6d1V/pBDlJqNuxVyzWjZ27BLf0Goj57yzzzR+SSedn2IkW8SNfXOjKIv5Pj4/Sbetm91W+ZTfe+mQDuhUNwoWLF321oZUvU6yzrp+Rn4VZrPNiLKVY553/KutiZB+lUPe3L7Zi9TeV2LxrL7ZXH7JtJ7/6o9fzo5ffWYneT4/zrT5+1DPoOZgRXmz/F7aMLDfammJd8ERZVGjK9vFSrAvTWEmxLnyYiXVhIdf+UX30JC7V16vWm4Xz61DyXUrOnvr1S7WY91V9k8ooE4l1/2tyejtMpWD3Pyc3L7EulUph9sZ63Lj4kqVYd+PiS5i9sb7JbItKrKFYR0iI0Yp1bp1RV77hG9zx8EDs2XvAt3rYmcD78ZSd18Eor7dtNPvdIBY+Xoh1XtRFWU43hDqRYOeVWPfO6q/Qe+hk1XigFOp27NWLdeNffR+3/XkwZi16z1d/kHAq2GmFOi8zKp344hPPxvHuh58GYkOzOlGsy63dKdaFq6xe3/f9FOseHDhOKHD07FeM5WsrsKmy2pFAp8Sv/ujl/OjNj9fjjj8Pwu6qfb7Vx496Bj0HI/m1NcW64ImyqNCU7ZOLGPHDgWO4UFOLhlQKF2pq8cOBY/J7yfoGHD11Hq+8vQJ9hk7A+Qs/A0hvLRlk9lCX+wZg7Nwlngl1Y+cuQZf7BjQbv3GDpizWKancfwTn6xrx3yfW4OuTjfj2DHDL65cw4MNkkxNkRNtg9l2RxH8bW6MS7O5+71Kz2gYzmUyirh5oN6cOT68y3hr16VX1+N0rdahr4BaYzQmKdYSEGGUA3i2h7h9fb8PtDw9E5Z5qX+thJ2DnR6DDy2CU19s2Bm07P+zpVV2kcrop1GkFOy/EOkmoGzLpJZ14r+SWXgPl/3923gfo9uhwPDfnr777gxIngp0XQl2+/vn6ynXo/sgQ/FITvgUixbrc2n1JWQW69h5oO5PE6BpuZX56Lda5VU6vyur1vctPsc5L/OqPXvnj++VbcN9fxmLF6rW+1cWvegY9ByP5tXXYtuRrjkRZVGjK9jGbA01buFT4+YWaWsx94wN0/lN/zH3jA1yoqdW9t+OHn3D+wkXVe0Fu6zZs8iwUFT/vmVhXVPw8hk2e1Wz8xg2iLtYZ9Q8t+4+fxsofGtBhfh2+Ows8+XESNyyow6WGpplJ1tjYiGfLkvj3F2qRqE7hm1Npwe5/Ta7FC5saMLsihX95Lp1t9+8v1GJCWbJZbPnY0NCAQ+fTgt2Niy+h5LsGbDzeiI3HG1HyXQNuXHwJv3ulDv97ai2+qE41OSGXGEOxjpAQIwXn3RLqvtq2E7f1fgrbdv7oez2CDNg5KUtYgo52yxl0kMjtrZa82mapffciT4Q6pWDntlj37Z4DslBXU1NrKtYpt8vsGRuFcS/Ow6VLwe/pb1ew80Koc9KPRPR7ZgaWrfo8cBsa9bm+IyYHeg038FusG/H8Ats+ZnSNsGR+WuF2f4ritnoU68Lhj8Onz8P4mfN9q4ef9Qx6DkbMGfDMNDw8ZAKmznsbZZu3CecebMNgibKo0JTtYzROSv1F9HlDKoXOf+qPMXPeQ+c/9UdDKqV7T3pp3wvKvlX7DuLWh55EUfHzrmbYjZ27BEXFz+PWh55E1b6DzcZv3CDKYp1Z/9By6vxFDP04iYGr6jHr6wZc9nwtjl4MNtPUaxobGzFnUz3+ZUot+ixP4r1dKXx1ohFfnWjEe7tSuKHkEgrG1KD/h8lAxwW/aWhoQF09MHtjPTrOq8M/T6zBP0+sQcd5dZi9sR51DcAX1SkKds0MinWEhJj23YtcE+q2Ve5B115P4Zvvdpr+5vvLP3a9HlZBvlwCdrmW04uAoxdBR7vldOt3vWh3LwhbuyvJV/i4u99w3TWHT3kZNTW1SCaTuOmBJ2yVo3jqbNTW1YWm3e0IdlbCQhDt3nfEZNt2bGr4NR54FUwwancn46Ub18j1N8J4T4qi/1GsC4c/9hk6ERcu/uxZOwdZzyj3M7cJ6zyy8sdqLFr6EWIjn8OtD/0Fo55/DYtKP8G3P+6jUBeC9oyyqOCH3YKyj9UcSPT55q07VBlzm7fu0L3X2NiIxsZG3XtBjh9V+w5i2ORZ6HLfANfuDV3uG4Bhk2fphDr2K2tumF+LgswZZhI3zK8NvFxKcukfWvYdPIK2s+swcV0D/vW5WnxzyHjLx7DeX3MhlUrhwLlGjPo0iTaz6/BPE2rwTxNq0GZ2HUZ9msR73zXgf0+txbp9TX8LTJFtGhsb5fhtY2OjLMylUilZsNt8sPnZpjlCsY6QENOv+DnXJo033f841n+zzfT33l/+MXr1GxJ4va2ISjmjQlTsGZVyRgU/7Xn85Gk8PGh8TgFPtnvT9YsoBxOIN7jpf/Sv8MJxvWkRlfY8e+48Vn+5CRNfWohufQahaMizFOoCbs+mNE57Ybco2ae+vl4ONEtn0dl574MPP4nE+BFG/2gKftNcuXCpEf/PuBr83+dr8ebWBsNsqajcX51QX19vKEylUims25vC+9uNbdJcSaVS2HQghe+OUqxrDlCsI4QgmcxOBMI+GYhKOaNCVOwZlXJGhajYMyrlbCr4bW8GE4gSt/2P/hVOOK43LdieTQvOA8Jlt6ZiH7/tFjbYr4iWVKoRwz5J4pWN9YZnszWX/qGloYFCnZltKNQ1DyjWEUJUE4EJ018JvDxRL2dUiIo9o1LOqBAVe0alnE2FIOzNYAKR8ML/6F/hg+N604Lt2bTgPCB8dmsK9gnCbmGC/YoYkUqZb33ZHPoHIUQMxTpCCCGEEOI7DCYQL6F/EUJIuOE4TfsQ96HfEEJItKFYRwghhBBCfIfBBOIl9C9CCAk3HKdpH+I+9BtCCIk2FOsIIYQQQojvMJhAvIT+RQgh4YbjNO1D3Id+Qwgh0YZiHSGEEEII8R0GE4iX0L8IISTccJymfYj70G8IISTaUKwjhBBCCJFIxFAYr8z+uzKOwoIYEkb/JjnDYALxEvoXIYSEG47TtA9xH/oNIYREG4p1hEQRy2BxArGCAhRIFMZRmYhl/60glvCxzIVxVOrKGbKgdyKGglhC934i5qOtbFAZL5TLWRkvDLZtpbaU2lfZ1rLwUYl4obKtFd/3kURMbyc9MSSSlYgXqt8vLBTbWe5jLvuhSjCS+4rWjhm0/UvY38LX7pXxwqztKuMoLChEvNKDchrZQ9jfKxEvTJfD0l/ytrHaPpXxQnW768qn/L5mnBf2fXE/S8Sc2Vk1xgjGx1wJLJiQiMltZzR+FoTt3pQZk9TjQghQzEeMbRnEPckj/9KNzWl0fdfKZoJ+5PV9PRGzMWYZzBW1v10ZL1SXxUO72EFZHu18TVdWo9+2M54HXM80CcR098r0+CCuZw7zrbDUU1DudN8wGJ+dlNvE1y3vAa7OsbJzDtu/o7OtyTVC055i/JoHqMZU5bzTcI5lgsKeShvaGmuCtI+lz1vcayrjKLS6D+WyHhH5p8F63Da+lMNgjWMSp1He573E9X7lMD7iaD4jbBuLvmgwHiVi/s6Tjfu8UflF74vGb30cIhYz6r85rJ1tjAVZO+rLYrUmznc+63gsdelBWtX62HI+LF6Hq8utX+dH0S4kGCjWERIpMjdLxc1QPCkxCKALbhjBinXJ/CfjbqMoj1mgPgzCnXzDlxYXikWG/+KiJqgitXcihsJ4QjAJ1fio0cTPZd+wtotg4aWb5NhczOfph1mxqxDxSq1YpwnMafqXyHe9Wbzk3u7G/csD2zodf0SLQINgV37ofUn2UUMhUWAfw3HUiVhnLP55tfAN9Mlf03tPCB4kyTeo5ieZxWDcZE7h63wjQ1BBzsJ4pX4RXhhDTBoPFeOLSFjy5L5uWn6tr2vuz5p+ogo2+mQXazJjo6Bf2/Y9szEhNPUUBXgKEYsJgj5yXRzMt0JUT9vlNnkg0fn9TLoPWgSJXbo/WD3gYFRuyZ5ZuxqIdaFqTzFuzwMMbWrQt7Xr6Mp4IWJxjb8VxlFpN2Ct+Jsw2keHzbmtqa8qbStYj1hdXzknlf/fZbHO1XIYPgCtnHMbzyMdieRh8Zsc4iNO5jM6m1iJq5rxKLfxPl8UazL5HiW6H2t2ZzF5SNSsnso2yM5rLB7UMGlPU9u4sOa11/4Ox9VYwtHfOK+Dog8b2CBbdv0aW24Xua306/Zo2oUEAcU6QiKDcSBVvwgxEOsEE1c/gmfqSZRBUMFiMeUbqkm5WljIPkUTbBBXXjDJk9R0eZTtmba5R1lKpu1r9uRXAQrjn+oz1mIxn7LAnGTWSX+jaG/DYJG7dlaXMR0AL4zH1WKd0SKlMI6EYBHoNJPK/Xav1H8/ISqfR0KoJuvP/uTVZOKbp8/q7KENDmnGRZ3vKn9fEExwcn0zgcXLCX0wYp2dMTz4cV775L6yfbVPZgYu1inKJfYzcyEvUv7lKEOlEvGY8mEp46C3p/f1RAwFhYUCgcEoW9NIrMuMh6J5mkd2cVRPpYhiOM5bfW5xXwi6nnIdtXOTrL9kfUSwQ4Dd+VbA9RTev1TrF4N+kE8GWSIGy4eFhEKdSb+whcPMOsV7abuK5ima6wXttyZ4IdY5F/odzuujmlmXtCcQ63f2MAjuqvqM1o6FiCdszDtVPq4OlOfap/wrh3bNYncNk6PAEqDfOImP5DafSdsubuGf+vVk+hravueHIKqMC6R/SyneKB+uVfiEdu4hPwhgU6xzKw7hKLPOGW7MZ83HUnE/c238TcRkwc1NsS7ydiG+Q7GOkChi+eSwYBtMRSZOdpLjYzBSse2Y9v2wPN1hT8hxJ1DvBuk2r0QikZkgKtozEStEPO6jbUXtWxlHrLAQhYWCSYKJiOx1GzubsGgCYi5sKWjXnnLbVcZRKAda0xP6Qs2kXt5O0uzpcy/8No9292v7QZGoKNtW8JSi9H3xNp4Kv3DFlk5FIYPvu5JZp4dind9l09tfdA9XfRbwAy6JWIEt4TDymXUSTsR+acGfTMJu0Nv1+7o2ACkFJ023MxOLdarMBO3czWO7WJPeGlK+Nxo+gZ5nvw64nuqxWzu+G9yXcplvBd6e5uU2E+vsiq6695X30UydtEKMer4jEnly8S+Lp+EFv5neuUAZqFUGewWB3zC0pwFBiFHSvdOoHvL7mXEyyHWqF/YxewBB9blye3rV98wf3Ej7rGi73uxvqOYyNjK1HbeBZ+XQP3TqPF6QidN4OH9z029yjY/kPp+xMQc328LWp12bRAJhLGHwcL0sbip8Ua5D9h4gXDdHOLMu1/msbVFKaBOX1nB2xDpBW9vJrIu0XYhvUKwjJApYBeB1k1l9Zl3c5z28tRielRIisU4qT9DBT9vlFAXgkkmotk70O2NNuVWMvB1ipSqgm0wqF9OZLDGhP3uTDWaawaT7XbFYp1zMei7WqcohDjYq+5dye6SCWALJygRiHp11lXO7a4IknthQifA8vaRxf1dtQ+pkAe68nR0F+BIxFBQUojCm+W2Pt8F0vd4ZKNYZ4yg4EvA9SwpyaQVv5bykKYl19jJU1GOHOPtFE5xxcF/Pp/y637Xrd8pMA+044KVdbPYXlbhiS6yzeJrd4MGIIOupakep32sfghFtW+p0vhWCeqrmFw7EOkeZdfKW3RpbxGPybycqKw2C94IyZMrprD3tZ9ZJbSneMstcrAu6PY0INLPO4Kxk9dxW0d8C2J46+Mw60d8az9lF633tuKQLdstBbc15UXnMbXwph+4z+2ceFsTinmbX+XVmnen3bc5nFsQKDMY1k/4siVg2HlL1wr7JZDK9k43cZ+Ka9ZYgs0473qjWmtJDF+r1vPC+ZOdeZKd9bI0Dzrf/1c8TreJUNn5DaFv1ttWSr2jvk3aRymD4UJrU7prMuoRG9DcV6yJoFxIcFOsIiRTSk/XS4C0+n0O8DaadQ1C9QvHbvpwDlQc57MnuPwnElEEaeZJmYmfPyxNTHKotnuhkF0mJTOZVRtTJbMsUVwVfvNkOURngES3ahH0pILFOOQlL+2L2rDqVD8qZd+nvx3WZYenyub/tbX7trlxc+C3Wifu1ejLtfWZdJeKxGGKZc5bsjIOJWCZjMVZouu1ogXL8zyzkctl+mJl1fpdN294W5xEJz74IDqVYp1y4NgWxzvGT5YoxTjf2CtvNm/u6rtzae57wM+Mz64T3TU/t4gRFtofNzDqRuCXVS3tGWGjqqRMSswEjfaDN2XwrPPVUl1vaBjMuKJ/oAQG7wS3VuKQVQH0bW+1n1iVi6vmCsVgXtvY0JvBtMDP1UopYyqw66eEy7dlCyt8TvRdmsc4wk86gPtm5pHI7N4uHvpT3E818SprzV8YL02OSJLoo/Ssvsc7bcpidiyivZwyzmBW7JHj4gHCwZ9blMJ+R+5b5g4Oqta/mOkb3c7vkIkqpxJlMH9Fv5akQTWLK9XFM+ICFqh5eZdbljdk6OMf5rMlDJSJRPKbMgJZEs1hM1Ta5ZOSqHui18sOkwXgvFOsibBcSCBTrCIkKmieHVAsJxUQg/X0jsU6Uhu192eVzbJSLbhs3v0DQTEZVh0VXxhELKOhox8ZB3XjlbR8ET9qLJh2671dmfcMy4ykv1MKV4QRc9bvGYp03WWGVuie75GxA+SmrrGgnB8alz33cBjO/dney7ZMLaDPrtOf2CBbnXmfWpftsItue8bjBbykm87F49qk55e8Ln+4tSJ9TpSun9kk+qzJSrAsK3Xlm2sV/SMQ6rSDXFMU6tW9oxnydeCItmJVBb7EAZtbHPOt/Vg8HKP3KaBtM0RaMPtnFiESsIBtwtfNQhlG5TbZNC7ye0j1eIM65O98Ktp5m10p/nk/7qMufEASH0w9Fav7Gxi4nuY1xDs+sMxPr4jGD+Unw/dMIr8Q60wwyhxlCOtHS1A/cDZwHmVmn3orbvO5yZrM0v1ZsJZv+b0y2i9R/E/HMusVoO80c5zd+lEPpZ6LAveEDkqrMGu+EFq/FOqfxEcsxw0SQUF9TsS6zk+3q4RxZe2Z8pUqY0WbWVWrWb9rz7WycWWdqFycY/bZFmVRtlP2unfuBvXuG0X1XdE6sR2ezaeZGZpl1RmOpencH84fPI2MXEggU6wiJAtLErrJSly0hfiJDdGZdcJl18iQ4KttgZgI6MWkyqrkBB33TC9v2aIm4ctJpIcLEEprvJxUTGimY4NXixfi8L/VTpXG18C0Q65SBIk+3wVT812jSp+5f/j1hl3e7K64TF+7h72J5lYeAFxbKW3Rmt78xWpB4l1mXtof9DFJpj3vh951sgylt+xUXiHt2xxWXtpWhWGfhI7G0v6qe7E8qRJOQiHXKhWuT3gYzMz/QCpGiz9J2sR/09vK+buvaRpkEQh8TbBPmkV0c9RVlnxA+gW7xt8ls+Q3PYgq8nuItztWijWKsyGW+FYJ6ViYSBuVW/2Y+7aO7b2r+rSuzxXiby+4FuW4vZp5ZFz6/NcPtcVqVLWWw9amona3GSdU5bprsTPVZbuEW67TbGIvEJr3dpLWwwZahkoijXe+r+owy41Mw57cSXRzMO70uh2lMJRGT5236sgkelvMou86r+Y+d+EhO85nMuGYpJgvnJvp+5/mOLZr+k+43ccQKY4jpxnX9OfOxmMHZoNrf0Iy7RnZxPL9WxRX0Yp3w/qd9QEuV9a082iKP+ay23xpm8Jpt6y2Rwzouh7ik6AFFUdwm0nYhgUCxjpDIoJ4UKRflkRh0IyDWafe3N1p4By3WacsiPWFdGI+bPA3uNdpJm8G5b4LvqyaEmQmGJ/ZVCVp2JzGCsluc+eMKqn6h2DJFu52CMIO2EIUenzHiRrsrF62JmHqbRjfHBGlyrBwzVWdUiPqMD5l12ba1N36binu2xTpFm2ifFhfAzDq/y6Zp85g2iCoIGgYu1mV90uyJ8qiLdWnbZ4QS4X2jEPGEelsm5cLcSdDb8/u6xbxL1X46H1MHG/20iy0EfUJ/hojgbwoU91XDM6zCUk/BQxiah/gqKyuF37eab4W1ntrxQxuIdVxuRZsLA6Cih588EOvUVKJSGdCtNLCXLbEuoTgLKiztKcbdeUD23m1PrNMHyWVfM8gwjrxYJ9lAbnvzuU52G/6kKkisnlsr0J6hKehbth7Qy1fE8qkc2Qfp1FvPyescTVzBKFPH7bm26/OfHOMjtucztjPrBO2VOZtdmh97YU/z9k8gHo8jplq/mqzvNEdBWJ+fq1+rujGnTt9HBWKdcLcWwQ4EqnmIuA45zWc12+4KPxeswV3NrMtki6oebtA86CDbQVFO/XzTONstUnYhgUCxjpAIIS/cZLHAaGDX7IeuehIjG6h1fas5MyIg1mkJ65l1ynIptyoRigu+BXLVIkxCcyi98ClNedtG5SKwQN4m1W0bmy3cjX1QPwnLTpIU5+O4bU/tmW+qbSkU9tIEDxLxwsyh5WJBx1uxzn67x2PqyaZfT0DqJt3CfpINannfz52ezZiHWCd4Es9qQUuxzu+yqZG3uNX4ozwmhEGsM9geWORLURbrjOpkLnppMlQM5hParA5P7uuasU9+8lc7TmvnatrzUmwEFNy0S0711NhHO5cz80MnZ94EV09FQE0ReE4oyqMuW37zrcDraXLWVK7tIww2i+6j2nmWQd3yWxtotnVT+qJorScU62zUJfD2FOPmOK3sv7a2wdRuJaZdMwvOijIS67LjjLtzB6/uYyr72L2nVOrnI8LvmMYXNPNYH8Q6b8qhvC9n+mgiBunMMn12jZmd1RnRYfabZNI6PuJ4PmMgSEl/ZynWKduqwJt+aES6H0mil7IOJiKNYhcs4zYXnFFvxy6OMdoGU93eZqK89r0FOc9n1etvwwcCnAq7TpB8SI6piHxMHQdSlkVvK3FmXeTsQgKBYh0hkUG71aXxd7XBBuH2Wcmkpwcb68gpqylYopBZpyxTsKKnOHikXMyqF/dZ0UYOBuie0HJXCFMGIMyCLVLZP5UWsoqFhNEkyN1yKiYVCpubAAAgAElEQVRhAlFdNNlL968YYorz7PwRmXNrd/1CwA+xLrMg0TxFnkwms5PzmOJweItDzt0Rw9VnEJr5o06sVSIYyyuV/qtaXAj8zWBR4I3PZAmbWKcaG4IWwbTl8cwH80MbHFX7i9KX/M/6dj9jw0Z7OJzDmN273biv68cBfb9WjtO6eY8UEDM898t/uwhRPcSmHk919dEEk+z1sZDUU7K5QRBaLPA4mW+FsJ4acVl8f8y13FYPGAn6gsHnuWTWZTMCzb6nmQ8rA3KGAqKDeYxv7SnGzXFaOT+yk1kn378Uc0CV/9mYC0XpoSbh+kGyiWjc0/qXnYd8hSKZxg+VdvZVrHOnHFmBRr0Nojb2IvmNvUwvdwU7r8U6p/ER84cnlAKX9f1YucuEsehsJYa5ZYvsnEO9a4v+PrVA4AeGDxWIHhwxs4uTbWKdzH/sxCBsYNz+yja3tzaTtwO3WX4n7al8+MKwfop5pLz9utZeBnGRqNqFBAPFOkIIIYQQ4jvBiHWkuUD/IoSQcMNxmvYh7kO/IYSQaEOxjhBCCCGE+A6DCcRL6F+EEBJuOE7TPsR96DeEEBJtKNYRQgghhBDfYTCBeAn9ixBCwg3HadqHuA/9hhBCog3FOkIIIYQQ4jsMJhAvoX8RQki44ThN+xD3od8QQki0oVhHCCGEEEJ8h8EE4iX0L0IICTccp2kf4j70G0IIiTYU6wghhBBCiO8wmEC8hP5FCCHhhuM07UPch37jzFYkfATtF4QEDcU6QgghhBBCCCGEEEIIIc0CCkPhg21CCMU6QgghhBBCCCGEEEIIIc0ECkPhg21CCMU6QgghhBBCCCGEEEIIIc0ECkPhg21CCMU6QgghhBBCCCGEEEIIIc2Ezdv24sjxUyREUKwjhGIdIYQQQgghhBBCCCGEkGYCxbrwQbGOEIp1hBBCCCGEEEIIIYQQQpoJFOvCB8U6QijWEUIIIYQQQgghhBBCCGkmUKwLHxTrCKFYRwghhBBCCCGEEEIIIaSZQLEufFCsI4RiHSGEEEIIIYQQQgghhJBmAsW68EGxjpAkCjZv2wtCCCGEEEIIIeT/Z+/eo6Oq83zv13qef8+sdZ7pntOcMzPMZTWc04fjzOk09Ixlj46N0i0O00233aIYBGlKAQEvEG0FFaLTELyUDSKoiDYQFAXR7pTYRpsRjBJBQ0AFCiUBQ4JgIZfULal8nj+SSup+y669d6Xev7Vey1zq8kslXbMW7/n+NgAAQDkYbFz69Eirrp19jyrGV2Z0w7z7NX3Bg/re1VOSv3fb/ZZHMruw+u8BsAOHVf/j6+zshAXebzoqlnHL6v9DBgAAAAAAACB37zcNLtZ9eqRVP3NVafWGrRn/3fCDTz5XxfhK/eaJ59TT0xP3vf2ftalifKXlr4VdDPZ3UmqsjkLvN5XGJGO57dNx4cIF00LRufMX1HHqK2IdsW7ILKvf2AEAAAAAAADkbjBhKNdQt/vjz/TjqXfo0ac3pgx1m+r3EOsM+p2UIiv7CLHOvvt0mP3HcO7ceWKdhYh1xi6r39gBAAAAAAAA5G4wYeja2fdkDXX7P2vT+Kl36onnX0r5vU31e4h1Bv5OShGxjlhni1gX/YOwOlqVK2KdscvqN3YAAAAAAAAAuRtMGKoYX6n9R9syioa4dN8j1hn7OylFxDpiHbEOxDqDl9Vv7AAAAAAAAAByN1Rj3bvVY3TDplTfa9TiMVO0IaevN2rxmDFa/H7i1xxyOAbcUDkl7vMBifct/u+kFBHriHXEOhDrDF5Wv7EDAAAAAAAAyN3QjHUx4e39BzW6L5zdUDkmIabFxLn3H9ToyhdSPE6a4BZ7+01T5Oj7eCASZrhvEX8npYhYR6wj1oFYZ/Cy+o0dAAAAAAAAQLKTTU06X31fki/uuivl1zM59Va9TpwcXKz79Fi7Dh07qYOtHXrlnX3Gxrr+QOfQ6OpGnTj5gm4Y86DePXlaAyEvYZJuU8J03JgH9W4+sY7JuoIR64h1xDoQ6wxeVr+xAwAAAAAAAEjt1Fv1Co+/XBr+XwsW+e4IdXxyUCdOFh7rDrS0KRAKy/1ul9bt7daxEyc1afa9hv2ciUdg9n7+gm5IFdT6It6Gypiw1h/iBo68TDpSk8k6wxDriHXEOhDrDF5Wv7EDAAAAAAAAyOzrVSsUGTW8oFh35pk1/Y9TaKw79fV5Pbu3W994KKC/XBpQpz+gyXPvM+zn21A9Jmay7sGYqbrTSjlZ9/6DGh07BbdpSt9EXjS49UW7/rCXMD1XzWTdYBDriHW2jnVT71ysivGVaU29c7HloWsoSBXrblpQnfG1v2lBtfkVrESW1W/sAAAAAAAAALLrOPK5wldcnFeoC038Udxj5BLrZj3gjrvdZydO6chXEX3jwYBm1nXp6udD+vq8P+MxmNHptpz0BbX+Cbf+IyqnaHF16mvWvVs9RjdURgPdab1bPaUvssVPx71bPaZ/go7JOuMQ64h1BcW6VPEml+9l+4NI9TyZVq6PjfxjXS6v/VBaJ0/7DLmNRKwDAAAAAAAA7O7L3Y0KTvpJXqGu59vf0pe7G+MeJ1Ws21S/R2tfe0fjKudp9NVTtHrDVt00v3c44tJrXDrefkoXrw5qQX2XKreG9dCOLrV2+DT2ulmG/Xxxk2/9156LXp8ucbIu+t/ode0Sr2+XwzXrYiQewVkIYh2xjliXY6xb+dzmfomxLt33sv1BpHoeSdpUvyfujW7/0TZJRsS6Y3rz9UNq7+xUZ8chvRz9+MhHernptDo7T6vx9Y90sO/27U0NWru5Pqs3j1gf4IyKdZle+8KXV25nLv9fIC55+u/jkSv2c69bTqdb3uh/B7Gbk6d9uvQal9Zs3Jr2Nms2btWl17hyCnZWv7EDAAAAAAAASK39+Amdr75PPd/+Vt7HX56vTj6mMl2su2ranVq9IfW/Ny5+K6yLnwqqySddtCKoHZ9HJEmRSERnz3ca9rNGo9m71WP6jsKcohuSJvTiQ1x0wm4gtuUW695NmtgbUEi4I9YR64h1Oca6dJ9n+l6hsS4xFhUl1sUGuyMf6eWmY2p8vUGNHQO3b29q6It46R+zvakhS6w7pjc312d9HLvEukyvvanL45LT7Y351CGXJ/X3CllrNm5VxfjKlMEu0/dSLavf2AEAAAAAAAAk++qVrer+p/9T0HXqui79ntqPn0h6zHSxLtXXW09+pfeORfSNhwKqP96jfWekqzeE5LjHL8c9fo1ZFVSkp8ewn7c31r2gxdUP6gaHo/+IyxNxU3YJNk1JCHhZYl264MdkXd4/bz7/ph8dlEpl5XObiXVDZJ+2jHWJE16SBnUNu4O7Eqbhdn2UdlIuGtYGN1l3Wo2v12vt5o/05q7SinW5vPbFvYadV26XW1555XY65fa45Uw3jefyZH+4NCtVlMs31EnEOgAAAAAAAMBOOj45qMCUXxQU6aJOv16X8rHziXXBcJdGPhrQo7u7te+M4jzW2K0RjwbU1RUx7OfunXYbo8XvN/Zd825MzHXokmPdwPXoXkiIe4ka+6+hlyrKEesK+3nz+Tf9Q0eO6s2d76d06Eh+j0Wss+8+bXfNunRHMSauvCftjnyktbGTdZ2d6uw4pDdfb9DLrydPyBkzWdcbCksl1uXz2hdteVy9U3Qel1yeviM0+4++7At4gxus61+xca6QUCcR6wAAAAAAAAC7OLfsoYKOvIzlnz097ePnE+u6Iz36/pPB/km6f9sY0r4z0ltf9OibDwXU0BqR7+tzhv3sGyoHQl1vPOuNcEkDEGMe1COVyXEu7dGWidep65+wS2PMg3nvnVhnbh8YTFz62eOfFcSsCFb70mu6bvptg1b70mv2i3XF+oNIF+sSY1Hrya8U6enJGExyec7+6brXD6k9OvnWfwzm6d7v7zqWV6zL9XlLJdYV8tobvTyumKk5j0tOt1uuNG/8gz0OUxoIdoWEOolYBwAAAAAAAFjt9Ot16rr0e4OKdBr+XxX57gh1fHIw7fPkE+tOfPW1evr+bfXtzyL6x5W91637wTMhLXozrI8Pf27562YXxLrM7HQMpt1jXTgc1rPrXxpUqHt2/Uum7LMkYl1sLGo/F9Goxwf+PxASSbnEumN6c9dHvdes6zikl2OvI9cX66KBLhrsolNzmY/D/EgHh1isy/e1z2l5XOn/Py36xJ1o6fUq5op1chVpsk4i1gEAAAAAAAClquOTg/LPnj6oOBf7+Zln1mR8vnxi3f6jbfqktV1nL/i1+K0uTdsW1j1vd2nMqqDOXgjqSOsXlr9+dkGsy8xOx2AmxrdsMc6KWBcKhfTE0+v749vvX38r4+231b3Zf9snnl6vUChkz1hn1TGYsbFo3d6upEhy/Gwo51jXG96O9ca62O8d+Shumi75PoOPY6UU6wp57Q1f3phr1Dnd8spTtMk6jsEEAAAAAAAAStNZ93JFRg0vKNKFr7hYp1+v0/nq+/q/Fpr4o6zPmSrK/cdTL6SNdfuPtikQCuuKZ4O6449d+vMHAzp0KqIvvzpj+etnJ8Q6c/vAUI914XBYwWBQj6xcq+um36brf3W7dr73Qcrb/Wnne/2h7pGVaxUMBk3dZ96xbuVzm/slxrp03ys01kXfxCI9PRlj0b31F3KOdQebDqm9Mxrr+o7ATDct1xfvDu5qUGPTRxmm6mKP1Rwasa6Q197o5XU7e4/A7F/FmaxLFecKCXZWv7EDAAAAAAAA5eTUW/UKj7+8sEm6UcPVsmTgmmrRWNfz7W/py92NWZ/7htvuTxpeuXb2PZo8976Ugy1jJtyoSCSi//KAX39VE9CTu7vU6Q9Y/hraDbEuMzseg2n3WBcOh+X3+/WbR5/UddNvU+XN89X88cG473/wYbNucN2p66bfpt88+qT8fr8l+8wr1qX7PNP3BhPrNtXvkSQ57vFr3xklubf+gobXdOZxDGanOjvjJ+sO7mpQY0fM9+KOtEyewju4q75/0q696VDW4y9LNdbl+9oXZw1M07k8xse6TFEu32Bn9Rs7AAAAAAAAUA46jnyuzttnFXzk5YW7blfHkc/jwlA01p2vvq9o++6ORHR7XVgLXg+rq7tb7V9+ZflraTfEusw4BrNwFzo7tXjpb3Xd9Ns0fc6v9XnLMYXDYX166IimzqrSddNv0+Klv9WFzs6Cn2PIxrrYle5aacNrOjX7950a9XhQUiGx7pgOHomfsIsNau1NDTGf994u9kjM9o5DenNzbOwbGrGukNfe6OVxOeRwuDQwW5f+GEyH053345887dOl17gyxrg1G7fq0mtcOnnal/XxrH5jBwAAAAAAAIa6M8+sSbq+XK5CE3+kUzt39j9WYqzruvR7aj9+omh7P+X7WsFQWMFgSF+e5vjLVIh15vaBcop14XBYZ8+e0z1LHtZ102/T7Pn3KxwOa8a8e3Xd9Nt0z5KHdfbsuUE9/pC7Zt3UOxfHPY6Uebpr1ONBnbzQo2AwmF+sO/JRyiMs25sa+qPdwV3RKbssR2ZurjfkunZWx7qbFlQX9NrnsnrjW47ijr/sf4SYyTpjVi4RLpfbSMQ6AAAAAAAAoFi+3N1Y+JGX3x0h34ubkh4zMdadfr3O8p+z3BHriHXFjGDhcFhf+c70X5suHA73f/yV78ygH9u0WFesP4hst5HST3flH+oQ+9rnsrK99qzeZfUbOwAAAAAAADDUdBz5XOfvu7ugSNfz7W/pfPV9aaflYsNQLtepQ/ER68ztA+UY62IDXeLHxLost8m2CHWFv/Ys45bVb+wAAAAAAADAUOJ7cVPBR14GpvxCJ5uaMj5+uYWhUlBuvxNiHbGupGIdivfas4xbVr+xAwAAAAAAAEPBl7sbFZz0k4IiXdel38v5OMtyC0OloNx+J8Q6a2NdMBQi1sX+QVgdrcoVsc7YZfUbOwAAAAAAAFDK2o+f0Pnq+9Tz7W/lf126UcN11r08r+czOgDAmNhh9d+hmYh1uf9dGPl3Fg1091Y/SqyL/YOwOlqVK2KdscvqN3YAAAAAAACgVH31ylZ1/9P/KWiarvP2Weo48nnez0mssx9inbl9wIhYl69C/y6M/Dtr3LtPc+9a0h/qiHWdxDorEeuMXVa/sQMAAAAAAAClpuOTgwpM+UVBkS408Uc6tXNnwc9NrLMfYp25faBcY104HFZnZ6de3FqnG29ZQKyL/kFYHa3KFbHO2GX1GzsAAAAAAABQSs4te6iwIy+/O0Jn1j8/6Ocn1tkPsc7cPlAq/xso5j7bTnRomXuNrfZpeqw7d/48sc5CxDpjl9Vv7AAAAAAAAEApOP16nbou/V7eka7n29/S+fvuVvvxE4bso1RCRTkh1pnbB0rlfwPltk/H2XPnTPtDOHf+vDq+tPaPsdwR64xdVr+xAwAAAAAAAHbW8clB+WdPL+jIy8CUX+hkU5Oh+ymVABBVVVVVdqz+my02Yp25EaxU9ukotz/GckesM3ZZ/cYOAAAAAAAA2NVZ93JFRg3PO9J1Xfo9ffXK1qLsabD/sH7y1FeaPHeRKsZXDsq0+UtyjnXltMol1lnN6sBFrEsR66z+owAAAAAAAAAADB0HXnxN56+8NO9I1/2dv1bLkgeLvr/BhLpfzLxbT67fMqgg9VnbKVWMryTWpVhVVVWW//2WA6sDF7EuRaw70XZcAMxn9ZQlAAAAAAAAYCR/R7u6quYWdORlV9Vc+Vtbir7HwfzD+uS5iwwJdZvq9xDr0qyqqirL/46Hoth/ly63CFYq+yTWARax+g0aAAAAAAAAMEpowzr1VIzMO9JFJoxVoGGnafsczD+sV4yv1P6jbYOyqX4PsS7DItYVR+y/S5dbBCuVfRLrAItY/QYNAAAAAAAADFbgQLMiE8bmHel6KkYquLnW9P2Wc6xr21alFY0pv6NtVSuU/K1UX2/TtqoqbWtL/Nq1uvbaAStWrIj7fEDifeNXVVWVzp07l8Tqv/NSF/vv0uUWwUpln8Q6wCJWv0EDAAAAAAAAhfJ3tCtcvTD/Iy9HDFO4eqH8He2W7LskYt0nj+hih0MOh8PAWBcT3tq2qaovnK1YUZUQ02LiXNs2VSXVvVSxLsXtG1fo2r6PByJhhvv2raqqKnV0dMQh1g1e7L9Ll1sEK5V9Oqy+kCFQLoh1AAAAAAAAGAqCr24p6MjL7skT5T980NK9v99kXKwbe/0cVYyvzKqgWPer1xT+5BHjYl1/oLtWVdvaJDVqRdU2tfUHuBVqTJyka0yYjqvaprZ8Yl2Bk3V79uzpR6wzBrHO/vt0WP2DAOWAWAcAAAAAAIBSFzjQrO7JE/O/Lt1loxXcXmf5/js7jY11uRxnGb3Pp8fadfrseR1s7dAr7+zLLdaFjTsGM/EIzN7PG7UiVVDri3iNK2LCWn+IGzjyMnnozpjJug0bNmjDhg3EOgMR6+y/T2IdYAJiHQAAAAAAAEqWz6fwsiXSiGH5XZdu1HCF3TXW7z/GYGPdC40dumTVWTlXndU/PPyl/mzOBxr3bFDP7w1r3LNB7T0e1qI/hjTr1ZBavgrrz+Z8oCmbzqjtbJfc73Zp3d5uHTgR1J/N+SD9c/XFuk8eudiwWNe4rSpmsm5bzFRdNKIlTNa1bVNV7BRc44q+ibxocOuLdv1hL2F6blvhk3VLly4l1hmMWGf/fRLrABMQ6wAAAAAAAFCKgtvr1HPxRXlP03XNc8nf2mL5/hMN5h/W/+c1CzXsoQvadiCkfSfC2nMsIOdvT6vypZCOfx3Rpycj6gz16PjXER31RRTq6tG02lP6bUOXnt3brW88FNBfLg0o3B2R4x5/+ufKOlk3MN2Wk76g1j/h1n9E5Qpt25b6mnVt26q0YkU00Elt21b0Rbb46bi2bVX9E3RGTdYR64xHrLP/Pol1gAmIdQAAAAAAACgl/tYWdd80Kf8jLyeMVaBhp+X7T2cw/7D+/951Wm8cCuhCqEsXQl3yXQhq3a4T2n8youNne+Tv6lHr1z36OtCjr/w9Ony6R3/4tEve0xF948GAZtZ16ernQzrt78oh1v1Kv3I4jJusW5EY72KvT5c4WRf9b/S6donXt8vhmnVxX65KPjIzzSLWFUdirIP9EOsAExDrAAAAAAAAUCrC7pr8j7ysGKnQhnWW7z2bwcQ6xz1+7Tujfs/s69Yz+7o16eWwJr0c1ltf9Oj/PhHUE3u79cA7Xfq/K4P67KuILl4d1IL6LlVuDeuhHV06fDqov3hoMJN1ha1oNGvbVtV3FOYKrUia0IsPcdEJu4HYllusa0ua2BuQKdwR64ojMdax7LeIdYAJiHUAAAAAAACwu+COekUuG53fNN2IYQpXL5S/o93y/efCyFh3yx/CuuUP4bivxfrS36PFb4V18VNBNfmki1YEtePziCQpEulRd3d36uf65BFd7HDIYeBknRSNdY3atm2bVlx7bf8Rl4qbsktYjSsSAl6WWJcu+DFZZylinf0XsQ4wAbEOAAAAAAAAduVvbVHXPFfeR152T56owIFmy/efj8HGukT/z11fqf5wSOOfC2r0EwHtP9F7uxebw3rvWETfeCig+uM92ndGunpDqP9+Y1YF1SOlfq4iTtb1hrToNe+qYq5DlxzrBq5H15gQ95Ieuf8aeqmiHLHOesQ6+y9iHWACYh0AAAAAAADsKLTKrZ5Rw/O7Lt1loxXcXmf53gsxmFhXMb5S+4+29dtUv0cV4ytT3jbS06ORjwb06O7upIm7xxq7NeLRgCKRntTPVaTJusYVA6GuN571RrikoyqrtumNFclxLu3Rloklrn/CLo3+698lL2JdcRDr7L8c102/TfGe0/vhsMLhj/TbpO+lEr19WOFj23VXxtsu09Zj1ocTwGzEOgAAAAAAANhJoGGnIhPG5nddulHDFXbXqNPns3z/hTIr1vVI+v6Twf5Jun/bGNK+M9JbX/Tomw8F1NAayXwMZhEm60phEeuKg1hn/+W4a81HMW8EX2jr/THxLUHra8t012tfpH/DOrZd8Y+XECzWEOtQnoh1AAAAAAAAsAN/R7u6qubmf+TlzKnyt7ZYvv/BMivWdXd39/8j/NufRfSPK3uvW/eDZ0Ja9GZYdW/tyuk5iXXEOiMQ6+y/jI91TNYBSYh1AAAAAAAAsFpowzr1VIzM78jLCWMVaNhp+d6NYlasi3q7YY8Wv9WladvCuuftLo1ZFdQXJ3265Z7f5PScxDpinRGIdfZfGY7BTMZkHVAYYh0AAAAAAACsEjjQnP+RlxUjFVq72vK9G83IWDd/2RpNnrso4328R4/pimeDuuOPXfrzBwM6+GVED69Zr5OnvsrpOYl1xDojEOvsv5isA0xArAMAAAAAAIDZ/B3tClcvzPvIy3D1Qvk72i3ffzEMJtZNm79EFeMr+02euyhrdOvp6dF/ecCvv6oJ6MndXdq7/9OcQ1043Bvryg2xznjEOvsvrlkHmIBYBwAAAAAAADMFX92S95GX3ZMnKnCg2fK9F9NgYl0henp6dHtdWAte7/3YiMcMBAI6ffq0mpqa9MILL2j58uUlbd78hVq6dGkcYp2xiHX2X8Yfg8lkHZCEWAcAAAAAAAAzBA40q3vyxPyOvLz4IgVf3WL53s1gdqzr6upST0+Penp61NXVZchjJsa6Uvcfy1dpw4YNSYh1xjEj1t1638Nxk6exbr3v4aI851BaTNYBJiDWAQAAAAAAoKh8PoWXLZFGDMs91I0YprC7Rp0+n/X7N4nZsa4YYmPdUFC75Q3t2bMnJWKdMcyIdYnXdIxVMb6ysAf1uuV0OOTIgcsjeVy53dbhcMjh8vQ9hVN9H0ryyJXqtk63vHntxym3N78f1aBY94W23p9poi7B/dstf0MDzESsAwAAAAAAQLEEt9ep5+KL8jvycuZU+VtbLN+72YZSrBsq3np3vzo6OtIi1g2eHWKdYRN3HpecuZYwr1vOaGhL/4By9d8m9uMU3/e65ewve165nY6Y0KeYr1sW6+JvEw1yrf2P2RfpMkzdAUMZsQ4AAAAAAABG87e2qPumSXlFusi4SxRo2Gn53q0yVGLdUNLw4RGdO3cuI6v/bkqd1bFuMBN3XrdTDodLA8Nv8bHO43LEfJ5mMi6JS56+2BY/PTcQ5jyuaHBLHetST/E55fYOJtbFXmuuL7K9vyaPSbk1H/VHuowxr/G57LcBhiBiHQAAAAAAAIwUdtfkdeRlT8VIhdautnzfVhsKsW6oeb/pqOV/F0NdrrHu3ff3qrs7Eve19pOndOTz1qyxKdtk3eCOx+yNcC6PBmKdx9V//GXc7VJOwfXGtd5PPXLFxj/1BcHeB88h1rkHIl/MFJ7X7eyLhgXGOqv/hwiUA2IdAAAAAAAAjBDcUa/IZaPzmqbrWrRA/o52y/duB8Q6+yHWFV8use5Ex5e6cWaVlv/2aXV1dUuS2k6c1Kw779dS95qssalYk3VJK+MxmAlhLcV17ZJinccVM7mX+2SdEp8j7nhMYh1gS8Q6AAAAAAAADIa/tUVd81z5XZfumqsUONBs+d7thFhnP8S64st1sm7/J4d048wqLXWv0WdHj+mW2xdp8bIVCgZDWWNTMSbrUh81mUbCMZY5TdYlxbbCJ+uik34Op0suYh1gT8Q6AAAAAAAAFCq0drV6Rg3P/cjLiy9S8NUtlu/bjoh19kOsK758rlkXDXbX/+p2VS9fqWAoe6iTkmNd9PNM/y36ZF2WWOdxOeX29N3O45LT7e67f9+17zIGwIRr3vVP5zFZB9gWsQ4AAAAAAAD5CjTsVGTC2Nyn6UYMU3jZEnX6fJbv3a7ebzoKG7L672KoyyfWSb3Bbvlvn1YoFM45NsXGulyPxLTFMZhxAa7v/h6XHE6nnFmm9eKW19s3ZUesA2yLWAcAAAAAAIBc+Tva1bVoQX5HXs6cKn9ri+V7B2A/+ca6Qtat9z3cPy1nm1iX7RjMFLdT31SdyxPzWEm37Zu8i4uA/Tci1pV3BhcAACAASURBVAF2RawDAAAAAABALkIb1qmnYmTOkS4y7hIFd9Rbvm8A9mVGrItdlsa6nK5xlybW9U3j9T5+bKzr+zjFtF5qxDrAloh1AAAAAAAAyCRwoFnd11yV+3XpRg1XaO1qy/cNwP7MjnWJU3bpzLn/4fwfPNfJuvQPkHqyzuOKj3iJ16RzeTIfgxl3P2IdYEvEOgAAAAAAAKTk8ylcvTCvIy+7Fi2Qv6Pd+r0DKAlmxzpW/otYB5iAWAcAAAAAAIBEwVe35HXkZfc1Vymwt9HyfQMoLcQ6+y9iHWACYh0AAAAAAACi/IcPqnvyxNyPvKwYqeCrWyzfN4DSRKyz/yLWASYg1gEAAAAAAKDT51N42RJpxLDcQt2IYQovW6JOn8/6vQMoWcQ6+y9iHWACYh0AAAAAAEB5C26vU+Sy0bkfeXnTJPlbWyzfN4DSR6yz/yLWASYg1gEAAAAAAJQnf2uLum+alHOki1w2WsEd9ZbvG8DQQayz/yLWASYg1gEAAAAAAJSfsLtGPaOG53ZdulHDFVrltnzPAIYeYp39F7EOMAGxDgAAAAAAoHwEGnbmdeRlV9Vc+TvaLd83gKGJWGf/RawDTECsAwAAAAAAGPr8rS3qmufK/bp011ylwN5Gy/cNYGgj1tl/OX72+GcajNs2HNPnHZ2WxxDAzoh1AAAAAAAAQ1to7ercj7ysGKng5lrL9wygPBDr7L8cT751SoMxc90x3bHxuOUxBLAzYh0AAAAAAMDQFGjYqciEsblN040YpvCyJer0+SzfN4DyQayz/xp0rHvyrVP62eOfWR5DADsj1gEAAAAAAAwt/o52dS1akPuRlzdNkv/wQcv3DaD8FBLrnnvuuUHFp8Hev9wWsQ4wAbEOAAAAAABg6AhtWKeeipE5RbrIZaMV3F5n+Z4BlC8m6+y/iHWACYh1AAAAAAAApS9woFnd11yV23XpRg1XaJXb8j0DAJN19l/EOsAExDoAAAAAAIAS5vMpXL0w5yMvu6rmyt/aYv2+AaCTybpSWMQ6wATEOgAAAAAAgNIUfHVL7kdeThirwN5Gy/cMALGYrLP/sl2saz95SldNmaf2k6csDyx2daTluNZs3Kpp85foRzfM0T//5CZdOflWTZ67SO61m9T08SHL94h4xDoAAAAAAIDS4j98UN2TJ+Z25GXFSAU311q+ZwBIhck6+y/bxbrlq9erYnyllq9eb3lgiTVt/hJVjK/MybT5S4qyhy9OnNS9Nas07oY5qln9O723t1ltHV+q0+/XiY4v9d7eZj28Zr1+OGmW5t7/sFq/OGHJa7V03Wu64Pen/dwOFj+1xdTnI9YBAAAAAACUCJ9P4WVLpBHDsoe6EcMUrl4of0e79fsGgDSYrLP/slWsaz95SpdPmqmK8ZW6fNJMW03XVYyv1P6jbTmpGF9p+PO/s/tDXXH9rVr1u5f09dlzGW/71Zmv9dCKZ/XDSTP1wb6PTX+tiHXJiHUAAAAAAAD2F9xep8hlo3OapuuePFH+wwct3zMAZMNknf2XrWLd8tXr4ybr7DRdZ2Wsq3trl350wxztbf4kr/vVbtuuy35xsz5rPW7qa0WsS0asAwAAAAAAsC9/a4u6b5qU23XpLhut4PY6y/cMALliss7+y1ax7trZ96j95ClVjK9U+8lTunb2PZZHnah0se6qG28vaqzb0/yJrrz+Vh36rKWg+y9fvV6Tbr1XoVDItNeKWJeMWAcAAAAAAGBPYXeNekYNz35dulHDFXbXWL5fAMgXk3X2X447n9hum1gXVYxjJI3YU7opumLFus5Ov376q/l6+90PCn4Mvz+gq6ferj++875prxWxLhmxDgAAAAAAwF4CDTtzPvKyq2qu/K0tlu8ZAApREpN1XrecTre8krxupxwOR7K+70uSPC45XJ4UD+NUii/bfjmunDxXs2peJtblsKfEibqK8ZX9YifsjNr/77bUad79jwz6cV78/ZuaXvVg/+cfHzb295WIWJeMWAcAAAAAAGAP/tYWdc1z5Xbk5YSxCjTstHzPADAYJTFZFxPrEpfH5ZDD4ZIn/osDsS7m45KNdTs+/FgTps/XtPvXEeuy7Mnsybqfuar00ceHMt5m2xs7NG7yHG17Y0fS96YveFC7P9yvr858rYt/Ol1fnz2n7Tve06TZ91r+elqNWAcAAAAAAFB+QmtX53bkZcVIhTass3y/AGAEu0/W9ca4KKfc0WLndcvpcMjpTpHwMsU6lyv5sWy+HPuPtum9A1798tZ7NalqhVa92VH0WNd+8pSWr16f9pp06WLXtbPv0fLV69V+8pTpccfsa9YdPNKif5t2e8bbvLL9T7py8hyt//1bunLyHL2y/U9x32/Ys09XTr5VLV+cUOVt98vzp3c17oY5+ujAwUHv719+PiNusjCTSbPvUTAY1NJ1r2nxU1uSGDl1l20v0dvFxrpc7zMYxDoAAAAAAADrBBp2KjJhbPZpuhHDFK5eKH9Hu+V7BgCjlOJknceVcOzlwA3ldsbGPZc8HlfCkZm9U3geV4nFuv1H27Tn0FFNq3pIE+cs1co3ThQl1kUj3eWTZqaNbtPmL1HF+EpNm7+koPsXKvq8maSKdemm7Qa7ny2vv627f7MyY6i74vpb9ebufdp/tE1v7t6XMtjVbtuuX8z8te6oduuqG+fpkac3GvJ6pQtvqfzg5zP09bnzhv2uMsm2l1SxLtf7EOsAAAAAAABKi7+jXV2LFuR05GX35IkKHGi2fM8AYDS7T9ZJyu2adbFTdtFpur7pu+RjML1yO0sw1u0/2qamI8c054HHdNWMRXLXtRoe666aMi+nSaxo8MrmqinzDIs8FeMrMwYbs2Pdmo1b9WiasNY7MTenP9RFRYNdw559cbevfvwZff/fp+qnv5qv8+cvEOuIdQAAAAAAAENeaMM69VSMzH5dustGK7i9zvL9AkCxWDVZFw126f4bt5KuWeeRK3qdOo9LTrdXXrczOdYlfBwf6xKuc2fj5UgMTc2ff6F7H31aP56+sKwm6+wW65598TU99kytIbHO7w/onppV+tCA4y+JdcQ6AAAAAAAAOwscaFb3NVdlvy7dqOEKu2vU6fNZvmcAKKZSm6yT1B/oej90yOXp/W9OsS56zbqUx2jac8XFun2fHde6bW/ol7cu1PgZ95XVNeuyxborbshtKjBdaMzXa2/+p+5Z9kTa70evV5ftGMxiyXbNuuqntybFOjOuWUesAwAAAAAAKFM+n8LVC3M68rJrnkv+1hbr9wwAJiiZa9Y5HHI4nHJ7Y6bqYibsotGu98vZJuvi72v31R/r1rz4B42fert+/KuFqnryLa2q/7JosS6XcGZGcEp8zlwnxczY34GDR/QzV1XG20SD3frfv2VqqMvmX34+I2WsM+v3mEn0drERLtf7DAaxDgAAAAAAoHiCr27J7cjLCWMVaNhp+X4BwEx2n6zzuHqvR9cb2TxyOQaiXGygS4p10bjnThPrko7WtO/qj3VLVj6viXOW5RzoiHXF39OPp8zVkaPHMt5m2xs7NG7yHG17Y4fpr1k6Vsa6XBk1MZcrYh0AAAAAAIDx/IcPqnvyxOxHXlaMVGjtasv3CwBWKInJur6VGOccA+VNbqdTbq9Xbmd0Ai/6LbecrhTzc7HTdzZf/bFu98dHdOkvZ6pm6yFinU1i3Yp1L2qx+2lLYtZgEOuSEesAAAAAAAAM5PMpvGyJNGJY1lAXrl4of0e79XsGAIvYfbIu1fK6nX2hrXfSLvM16KIBL1FM0LP5irtm3ZKVz+u6u1ZaFuuunX2P2k+eUsX4SrWfPJX2mnbFYMdY5zvzta68/lZ9fKjw1/dCZ6cOf95qapgi1iUj1gEAAAAAABgjuL1OkctGZ4103ZMnKnCg2fL9AoDVSmmyrlyXY/MbOzXY6TqjYt3y1eu1fPV6VYyv7P/YrJhix1gXDofleftd/du0O3TqtK+g+y994nndW7PK1DBFrEtGrAMAAAAAABgcf2uLum+alP3Iy4svUnB7neX7BQC7KMXJunJbjuvn3R8X666fd79m1bxsSaxrP3lKl0+aqYrxlbp80ky1nzxlWkyxa6wLh8Na+fxmXTvrHh0/0ZHX/V7Z/if9ZPp8+b4+a+p+iXXJiHUAAAAAAACFC7tr1DNqeOZQN2KYwu4adfp8lu8XAOyEyTr7L8fl19+u57b9UUtWPq9LfzlT1921Uo/VtaSMcne7txb9mnWxk3VmxhQ7x7pwOKyNr7yucTfM0dbX31YwFMp42/MXLuixZ2p19dTbdKTluOl7JdYlI9YBAAAAAADkL9CwM7cjL2dOlb+1xfL9AoAdMVln/+W4a83b+qefztB1d63MePzl3e6tum76bUWPde0nT+mqKfNMnaoLh8OaNn+JKsZX5mTa/CWWBKamjw9petWDmuiq0qrfvay9zZ/qRMeX8vsDOu07oz37PtbK5zZr3A1zdPfSlQUfnVkOiHUAAAAAAAD25W9tUdc8V9ZIFxl3iQINOy3fLwDYGZN19l+OXI65jIY6M2Idsvtw/6d67JlaTZ53n8ZNnqPvT5iqf/3lLaq87X499kytDh1psXyPiEesAwAAAAAAyE1o7eqsR172VIxUaO1qy/cKAKWAyTr7r6yxLjbU3XL3I8Q6oADEOgAAAAAAgMwCDTsVmTA26zRd16IF8ne0W75fACgVTNbZf+U0WZcNsQ7IjFgHAAAAAACQmr+jXV2LFmS/Lt3kiQocaLZ8vwBQapiss/8i1gEmINYBAAAAAAAkC21Yp56KkQlh7v+LP/Ly4osUfHWL5XsFgFLFZJ39F7EOMAGxDgAAAAAAYEDgQLO6r7kqOdL9TcznI4YpvGyJOn0+y/cLAKWMyTr7L2IdYAJiHQAAAAAAQKc6fT6FqxemOOYyfpque+ZU+VtbrN8vMITVPPaEps+42fJ9oPiYrLP/GnSsu+W5Vt2x4bjlMQSwM2IdAAAAAAAod8HtdWmOvBwIdZFxlyi4o97yvQJDXc1jT6h2S53WrKvV9Bk3E+6GOCbr7L8cP3v8Mw3GHRuO69iXfstjCGBnxDoAAAAAAFCu/IcPqnvyxIxHXvaMGq7Q2tWW7xUoB9Nn3KzaLXVxovGOaDc0MVln/+WwOmIA5YBYBwAAAAAAyo7Pp7C7RhoxLOORl12LFsjf0W79foEykRjqovFuzbra/mgX/brVe4UxmKyz/yLWASYg1gEAAAAAgHIS3F6nyGWjMx552X3NVQocaLZ8r0A5iY1xUUuWPZ5y0i4a8Zi2K31M1tl/EesAExDrAAAAAABAOfC3tqh75tTMR15WjFTw1S2W7xUoN5mOv0yn5rEnOCJzCGCyzv6LWAeYgFgHAAAAAACGurC7Rj2jhqc/8nLEMIWXLVGnz2f5XoFylO74y2yamprU1NSUdEQm4a50MFln/0WsA0xArAMAAAAAAENVoGGnIuMuyXzk5U2T5G9tsXyvQLlKNUE3/9f35RzqYm2sreWIzBLDZJ39F7EOMAGxDgAAAAAADDX+jnZ1zXNlPPIyMu4SBXfUW75XoJwVcvxlulCXGO04IrM0MFln/0WsA0xArAMAAAAAAENJaO3qjEde9owartAqt+X7BMpdqlA3fcbNSeGtkFgXKxrrOCLTnpiss/8i1gEmINYBAAAAAIChILC3UZEJYzMeedlVNVf+jnbL9wog9fGXqWJdYrTLJ9RxRKb9MVln/0WsA0xArAMAAAAAAKXM39GurkULMh552X3NVQrsbbR8rwB6pTv+stAQl2+0i4bCNetqiXYWK43JOo9cTre8kuR1yxn92OOS0+2V5JXb6ZKn79Zet1MOhyMrlyfd89lrEetQNqbNX6KK8ZVxps1fYspzE+sAAAAAAECpCm6uVU/FyPRHXlaMVHBzreX7BDAgVai7e+EDpoS6TEdkMm1njdKYrIuJddJAsPO45HR75HY65fYO3NrrdvZFvPTL63ZmiXUeuRyOrI9jxjI91u0/2hanYnxlwY81mPsWg932U2r7M+PnN/LvLx/EOgAAAAAAUGoCB5rVfc1V6Y+8HDFM4WVL1OnzWb5XAPHWrKvN6/hLs6bt7l74ANHOAnafrPO4EqbhXK60k3LRsDa4yTqv3E6HHA6XXC5iHbGuhPdn5ZTaYH5+Yh0AAAAAAEAWPp/C1QulEcPSH3l50yT5Dx+0fq8AkuR7nTorol3sHol2xVcSk3Uelxyxk3WS5HXL5XTK6UyekDNmsq43FBLrTIwlZsUgq/dg1v4qxldq8VNb4pTCz0+sAwAAAAAASC+4vS7jkZeRy0YruKPe8n0CSC3d8ZfRj60OdU1NTUnX0OOIzOKz+2SdFDNd53TLG5186z8G09v7/Zjylkusy/V5iXU2n6xLNT2WSnSirBRilZGPZcdYl2niL1OsK/akILEOAAAAAADYmf/wQXVPnpj2yMueUcMVWuW2fJ8AMksMddHJtVRft0Osi412HJFZPFZN1kWDXbr/DiyPXC5X7zXrvG45Y68j1xfrpL6jL/uCXXRqLvNxmC5lGawj1pVCrEsVpFKJ7sMOscqs18uusa7QIFfsqTtiHQAAAAAAsCWfT2F3TcYjL7uq5srf2mL9XgFklO74y1RxzKpol20v9y5eGjdtN33GzYQ7A9h9sq43vHl6Y13sNzyuuGm65PsMaot9T2GTWLftjR2mxpRSOgaTWJffa2OHn7/Q6EasAwAAAAAA5Sa4vU6Ry0anP/JywlgF9jZavk8A2aWKcqninZWxLpe9xO655rEn+sMd03aDY/dr1nncbnkVjXV9R2Cmm5brK3Qel1NutyvDVF3ssZoZntsuse6Hk2ap9Yt202IKk3XWhiyjHqvYx0YO5mck1gEAAAAAAKTnb21R98yp6Y+8rBip4OZay/cJIHfpptTsEupyiXVLlj2eMeJFgx3RLn92n6zrXfGTdR6XUwMNzSNX3JGWyVN4Hpejf9LO63ZnPf4y9n62iHUPr31RN82vVjAU0t1LV6a9LtuSx58xJFoMJojUvb1LwWCoKPEpXcCxOtble928dHs04/XKtGezQh6xDgAAAAAAIL2wu0Y9o4anPvJyxDCFqxeq0+ezfJ8Acpdqgu7uhQ9kPQLTDteqK2QSkHCXP7tP1vWu2ADnkccTP2EXG9S8bmfM5723iz0S0+t1y+WIjX0ZntUusa758y90w+2L9XTtKzp3oVOP1XpSxp5Nr+80JFoUGkQ6/X7d/OvfaOHyJ+OCndnRKVMoK0YMyzcYZnssM163YoevfH9nuYTCYgdGYh0AAAAAALBSoGGnIuMuSXvkZffkifIfPmj5PgHkJ9vxlzWPPaFb591pi1iXKdo98cyGnEJdpnBn9e/Czkpqss7jSnmEpdft7I92Hld0yi7LkZkOhyHXtTNjOfYfbdN/fviJLp80S/s/9erIsXZVP73Vklj3r7+8Rd//96lpjZkwVRXjK/Xi7980NT7lE6mK8ZjEutJHrAMAAAAAAFbwd7Sra54r7ZGXkctGK7i9zvJ9AshfPtepi0Ytq0NdunCX61RdtnBHtEutNCbryns5ojHlmZc9+pmrSufPX9Af39tnSawLBAIKBIIpnTt/QbMWLlPVf/xWgWDQ8PiU6xQdk3W57ZnJunjEOgAAAAAAYLbQ2tVpj7zsGTVcYXeN5XsEULjEwJVL8Lp13p3aWFtreaSL9dJLLw861MWy+vdiR6UxWVfeyxEbVGbf94iWrnpOgUBQq1+ut9UxmKFQSC973uoPdWYEplwV85p1xDpznptr1gEAAAAAgKEisLdRkQlj0x552VU1V/7WFsv3CaBwiVN1+U6mTZ9xszbW1mr6jJstj3XZrq2X789l9e/Gjpiss/+Ki3W7Pz6icZVz9c7uD3X481Zd/NOb+qeMljz+jCHRwsggYmRMsWusy/e6eeliXrH2l+uejZxSy/f3SKwDAAAAAADlwN/Rrq5FC9IfeTlhrAINOy3fJ4DBGWyoS3d8pBWh7u23/8RUnQmYrLP/cuw93BIXKDa/8Y5+dMNcnTrtK0pMIdZZxw77K3bII9YBAAAAAIByFNxcq56KkamPvKwYqeDmWsv3CMAYa9bVGnqtt9jHWlazvGSPv2SqLj0m6+y/HHctezIpUtz76NO6s9pdlFhj1fGIhcQaYp05r3Oxo2v08TOFQmIdAAAAAAAoRYEDzeq+5qrUR16OGKZw9UL5O9ot3ycAY8TGOSNDXWK0G+x17aKPlek2Ru/f6t+NnTFZZ//lGH/jbaqt+1NcpPjQ26qfuqr02pv/aXissetkXa7HTWY6gtIOMcys12sweyhmFMsW5NJd66/YE3/EOgAAAAAAYCifT+HqhdKIYSmPvOyePFGBA83W7xOAYWKPvyxWqEucVCs02iU+FlN11mKyzv7L8d7eZl1x/a1678Dh/njy/gGvpi14UMtXrzc81tg11hkVoqzeg933V+xYl+2508W6YiPWAQAAAAAAowS316U98jJy2WgFt9dZvkcAxjMz1KWKdrle1y7TYxVjqq7msScs/93YHZN19l+OcDisR5/eqJsX1mj/0Ta98PoOXTl5jpavXq8LnX7Do4Vdj8E0KgZZvQe7749YR6wDAAAAAACF8R8+qO7JE1MeedkzarjC7hp1+nyW7xOA8aJxy+xQlyqMZYt22R5jybLHmaozGZN19l+OcDisC52d+uWsX+vGO6v14ynz9O6efUWLFkzWlff+in3cZLafn1gHAAAAAABKjs+nsLsm7ZGXXfNc8re2WL9PAEURPf7y7oUPWBrqEqNdqiMyc7mvkT8HU3W5YbLO/ssRjQmtX7Rr3ebXdNp3pqjRgljH/qxiZSgk1gEAAAAAgEIEt9cpctno1EdeThirQMNOy/cIoHjsGOrSRbtcbs9UnTWYrLP/cpgRKoByR6wDAAAAAAD58Le2qHvm1NRHXlaMVGjDOsv3CKD4ah57wrahLjGa5XJEZzQ+GhUKrf79lAom6+y/iHWACYh1AAAAAAAgV2F3jXpGDU955GW4eqH8He2W7xFA8U2fcXNJhLpU0S5VlGOqzjpM1tl/EesAExDrAAAAAABANoGGnYqMuyTlkZfdkycqcKDZ8j0CMEcphrpUk2/RaGd0qGOqLj9M1tl/EesAExDrAAAAAABAOv6OdnXNc6U+8vLiixTcXmf5HgGYq9RDXWJYu//BGkMfk6m6/DBZZ/9FrANMQKwDAAAAAACphNauTnnkZc///muF3TXq9Pks3yMAcxl5XTe7yOV6dvk8ltW/o1LDZJ39F7EOMAGxDgAAAAAAxArsbVRkwtjUR17OnCp/a4vlewRgvqEY6mq31Bk6KchUXf6YrLP/ItYBJiDWAQAAAACAzs6+Iy8XLUh55GVk3CUKNOy0fI8ArDN9xs2GTqHZhVGxjqm6wjBZZ/9FrANMQKwDAAAAAADBzbXqqRiZfOTld0cotHa15fsDYB9DLdoZFeuYqisMk3X2X8Q6wATEOgAAAAAAylfgQLO6r7kq5ZGXXYsWyN/RbvkeAdjTUIp2gz3ik6m6wjFZZ/9FrANMQKwDAAAAAKAM+XwKVy+URgxLOvKye/JEBQ40W79HACVh+oybS/56doOdrmOqrnBM1tl/EesAExDrAAAAAAAoL8HtdamPvPynUQq+usXy/QEoPU1NTWpqairZaDeYWMdU3eCUxmSdRy6nW15J8rrljH7sccnp9kryyu10ydN3a6/bKYfDkZXLk+757LWIdYAJiHUAAAAAAJQH/+GD6p48MfnIy29/S2F3jTp9Psv3CKA01dfX9we7Uox2gznOk6m6wSmNybqYWCcNBDuPS063R26nU27vwK29bmdfxEu/vG5n+ljnccVEvfjHtmIR6wATEOsAAAAAABjifD6F3TWpj7ycOVX+1hbr9wigpE2fcXNcrCu1aFfoZB1TdYNn98k6jythGs7lSjspFw10g5usSwiDHpccjoGpPSsWsQ4wAbEOAAAAAIChK7i9TpHLRicdeRm54p8V3FFv+f4ADB2pYl2pRLtCYx1TdYNXEpN1HpccsQFNkrxuuZxOOZ3JE3KDnqyLf3K5LJ6uI9YBJiDWAQAAAAAw9PhbW9Q9c2rSkZc93/krhdautnx/AIaexKMwSynaFRLrmKozht0n66SY6TqnW1555Xb2fdx3zTqPyyFHTHnLJdbl8eRM1gHlgFgHAAAAAMDQEnbXqGfU8KQjL7sWLZC/o93y/QEYmtIdhZku2g3mOnHFkG9IZKrOGFZN1kWDXbr/DiyPXC5X79GUXrecMcddqi/WSX1HX/YFu+jUXObjMHMIcH3Pl9sEXvEWsQ4wAbEOAAAAAIChIdCwU5FxlyQdedk98UoFDjRbvj8AQ1s+sc6O0S6f6Tqm6oxjxWRdPqs3vCVcR07qnXhLU9FyP+Iy8/M6LD7+MrqIdYAJiHUAAAAAAJQ2f0e7uqrmJh95OeY7Cr66xfL9ASgfuRyFaddol0+sY6rOOHa/Zp3H7ZZX0VjXdwRmumm5vkLncTnldrsyTNXFHquZ4jkTjtW0ejkWP7XF8pARDoc1bf4SVYyvTGna/CWW7w8YDGIdAAAAAAClK7RhXfKRl3//3xRetkSdPp/l+wNQXgqZrrNLtMv1eZmqM5bdJ+t6V/xknccVO/HmkSvuSMvkKTyPa+AoS6/bnfn4S69bTouvUZe4bBPrKsZXFvQ9ZLf7o/16ZtM2y/dRzoh1AAAAAACUnsDeRkUmjE0+8nLKz+VvbbF8fwDK18ba2oJjXezkmtnRLtfJOqbqjGX3ybreFRvgPPJ44ifsnDFnVXrdzpjPe28XOyTn9brlynS8pSf1RJ6Vg3bEuiHuqzNfa9zkOdr90X7L91LOiHUAAAAAAJQOf0e7wtULk468jPzrGAV31Fu+PwDo7OydsCsk2qUKY2ZFu1xiHVN1xiupybrYkBYzPdd7fbneaOdxRafishyZ7W+NoQAAIABJREFUaXGAy2dZEusyHXmZK6OPxjRiT2Yd23nosxat+t1LmnrHYv3ohjn655/cpCsn36ob5t2nx9du0r5PDisc7p2oe/vdD/TVma8tj1XljlgHAAAAAEBpCG6uVU/FyLhQ1zPyfyi0ym353gAglVTRLhq+col1Zka7XGIdU3XGK43JuvJeWWNdyxcndP2chZpx10OGhYuK8ZXaf7RtUIyetjNiT8XaW9QX7Sd1129WaOz1s7Xw0ae1+Y2deuejT/Wht1W79h3U1rcatHjFc/rxlHmaec9SXXH9bCbqbIJYBwAAAACAvQUONKt78sSkIy+77ponf0e75fsDgGymz7g5bQDLJdaZFe0y7ZOpuuIojcm68l4ZY11j08e64vpbNe3XDxsaoOw4WWf3WPfunn0aN3mOHnpyvfYcOhr3fI/VetT02fH+z1/Y/p/69fI1unzSTG3f0WB5qAKxDgAAAAAA2/L5eo+8HDEs7sjL7n+7XIG9jdbvDwDykC2U5RLrih3tMk3XMVVXHEzW2X+ljXVbPG/rB9e4dOuDT2rxU1uKEqAKCWTFmlqL3ctVN96edR+ZbmP0HhubDuiH183WS3/clfL5YmPdqzt267Jf3qKX39ylup17dOXkOdq+4z3LY1W5I9YBAAAAAGA/we116rn4ovgjL0f9jYKbay3fGwDkq5iTcEZGu3Sxjqm64mGyzv4rKdYFQyE98tQGXfrLWVrw6PNa/NQW02Kdp2Gf9h9t065mr3Y1e+O+ZmasyyUiZrqNkXs80fGlrrh+tl7c/o62v79fW3fsSfu8r+7YrXebD+nVHbv1TtMhbdzeIM+uPfrhdbN08EiL5cGqnBHrAAAAAACwD39rS/KRl3/3TYWX3KtOn8/y/QFAvooV6qLTeE1NTYZFu3SPwVRd8TBZZ/8VF+vOnD2nOfc/rB9PvVP3rtzUH+rMinWLn9qi/UfbtLl+tzbX7477mlWxLnaCLvbjTJN4Ru7x3ppVuv/xZ7X/aJs+OHhUKzf/UXsOteg/P/xEd9U8qXE3zNWYCVP1w0mz9E8/maanX/Jo/9E2PfvaDr35wcfaf7RNj/9ui1x3/4flwaqcEesAAAAAALABn09hd03ykZeTJsh/+KD1+wOAApkR64yKdqkm65iqKy4m6+y/4mJd5W3362ez79P9q1+KC3XlHOvy/djIPR5r69Dl187UnoPx16h7+c1d+uGkWVrx3Iv6rPULHf68VU0fH9IjT23U5ZNm6fltb8bdft9nx3X1tDu0p/kTy6NVuSLWAQAAAABgreCOekUuGx1/5OX3/peCO+ot3xsADEYxQ12qWJcY7oyIdUzVFReTdfZfxLoUe7FLrHu69hVVLXsy7rF37TuoH06apYY9+xQOh7X7o/264vrZ+rz1C4XDYX18+DP98LrZ2t7wUdz9frNmox5a8azl0apcEesAAAAAALCGv7VF3TOnxh95+e1vKfTYUsv3BgBGsDLWFRLtEmMdU3XFx2Sd/RfHYKbYi11i3a2Llmv979+Ke+x7H31ajzy1UeFwWF+d+Vpvv/uBdn+0P+5+z7/8B82+75G4+/3hnQ/0y1m/tjxalStiHQAAAAAA5gutcqtn1PD4Iy9vmSp/R7vlewMAIxQ71OUa6/KNdrG3Y6qu+Jiss/+Ki3XhcFjBUEiPPLVBl/5ylhY8+nzZxLpp85eoYnylIabNX2LInibcdIfqG5v1+Avbtez519T8eZsmTL8zpz384Ocz1Pz5F/333XPwqJwTpysUClkersoRsQ4AAAAAAPMEGnYqMu6S+CMvf1ChwN5Gy/cGAEYyI9blG+xyiXbR6Tqm6szBZJ39V1Ksi9rieVs/uMalWx98sixinR39yzUuNX76WdzP33+s5eqNeumPO1N+Lx3nz36lr8+es/znKkfEOgAAAAAAis/f0a6uqrnxR17+r79U8Pm1lu8NAIrFrGBnZLSLxjqm6szBZJ39V9pYFw6H1dj0sa64/lZN+/XDQz7W/WT6fNs9VqZYVwhinXWIdQAAAAAAFFdow7r4Iy//9s/Vdeet6vT5LN8bAJihlKJdzWNPMFVnImKd/VfGWBcOh9X6xQldP2ehZtz1kOEBw06xzqgjMKOM2NOc+5YbuqdJs+/lGEyLEOsAAAAAACiOwN5GRSaMjZumi4z/V/kPH7R8bwBgBbtHu5rHntDdCx9gqs5ExDr7r6yxrpjsFOt++ivjJuuMfKx0r1v0dRjMxzAPsQ4AAAAAAGP5O9oVrl4Yf126f/g7Bbe+ZPneAMAO7BjrltUs7492Vr8+5YRYZ/9lq1jnadin/UfbtKvZq13N3rivleM16zB0EOsAAAAAADBOcHOteipGDhx5+fffVNd9d1m+LwCwIzsFu+kzblZTU5Plr0m5IdbZf9kq1uWCWIdSRKwDAAAAAGDwAgea1T15Ytw0Xfe1/y5/a4vlewMAu7M62kVDHVN15iPW2X9ZGuumzV+S93XXps1fYnl4AfJFrAMAAAAAYBB8vt4jL0cMGzjycvR3FKzfbv3eAKDEFCPU1Tz2RNZYt7G2lqk6ixDr7L8cVkcMoBwQ6wAAAAAAKExwe516Lr5o4MjLb/83hVY+Zvm+AKDUGRnrOjs7NX3Gzf3Tc+liHVN11iDW2X8R6wATEOsAAAAAAMiPv7Ul/sjLv/lzdU+9Vv6Odsv3BgBDiVGxLmr6jJv7p+hiLatZbvnPWq6IdfZfxDrABMQ6AAAAAABy5PMp7K6JP/Lykn9U4MMPrN8bAAxhRoS6WInRjqk661gR65oPHtGjT9dqwk13aMJNd+jRp2vVfPCIKc9diotYB5iAWAcAAAAAQHbBHfWKXDZ6INL9z/+u0HPPWL4vACgnRsW6qOkzbmaqzmJmxbpooLt66u26bfGj2tP8qULhsELhsPY0f6LbFj+qq6feTrhLsYh1gAmIdQAAAAAApOdvbVH3zKkDR17+7TfUfctUdfp8lu8NAMqVEaEO9mBGrJu9sCYu0KVbseFu9sKaLI/qldvpkMORjUue/vt45Ir93OuW0+mWN/rfxGdwO+XyxN43xeNH7+d1y5l1Lw45HE65E58oyyLWASYg1gEAAAAAkFpolVs9o4b3T9NFrrhYgY/3W74vAEAvQl3pMyPWVYyvlLftS3359XkFw11pb9cdieik75ze2edVxfhK4zficckZU8o8LsdAjEv4Xt8X5eqPeLEfp/i+1y1n/4P1hsSB0KeYrxPrAFsi1gEAAAAAEC/QsFORcZcMHHn5v/9awZc3Wb4vAEBqxLrSZVas23+0rV9suIsNdJvq9/QzPtZ55Xa55Y0GM0+GSTjXM/FTe063vDFhzuOKBrfUsc7jSjdRR6wDbItYBwAAAABAL39Hu7qq5g4cefl331TXgrmW7wsAkBtCXenJNda9+/5edXdH4r7WfvKUjnzemjU2Jca6WLGBrqixzuPqnXTzuOTy9B2h2T8plz6ied1OOXrvmEOscw9EvpgpPK/b2Te1R6wDbItYBwAAAABAp0Ib1g0cefk3f67Iv49VwHvY8n0BADCU5RLrTnR8qRtnVmn5b59WV1e3JKntxEnNuvN+LXWvyRqb7BDr+qfdXJ6+Iy/dqa9B53AMHIfpccVc8y73yTpFP3fEPGfvF4l1gF0R6wAAAAAA5Sywt1GRCWMHjrz8h79VcPsfLN8XAADlINfJuv2fHNKNM6u01L1Gnx09pltuX6TFy1YoGAxljU1Fi3UeV+pjLGPEXTfO64255lzsNehSRLSk2Fb4ZF3/Pp0uuYh1gD0R6wAAAAAA5cjf0a5w9cKBIy///i8Url5k+b4AACgn+VyzLhrsrv/V7apevlLBUPZQJ9ljsi4uvkWvQZdhss7j6ruuXewkXuz9Eq5jFz9Z542/5l3/dB6TdYBtEesAAAAAAOUmuLlWPRUjeyPd335DkWvGy9/aYvm+AAAoN/nEOqk32C3/7dMKhcI5xyY7xLqBa89FV5bJut47xQS4vtt7XHI4nXJmjHWJj+PNem28TItYB5iAWAcAAAAAKBeBA83qnjxx4MjL735bgZ07LN8XAADlKt9YV8j63tVT9HHLiZxj3Ut/+lDfu3pKEXYyME3n8uQb6wbuH3/fxNvGT+zF9ztiHWBbxDoAAAAAwJDn8/UeeTliWG+oG/HfFX74P6zfFwAAZc6MWPfwmg268vpb9dQLr+mjwy0pY90L9Xv0yo4PtfyZzRp73Ww98tRGQ/fgccUeRyklRrU4qabl+o7RdLq9ip/K6/s49pjNjIh1gC0R6wAAAAAAQ1lwe516Lr6oN9L93TfVff1E+TvaLd8XAAAwJ9ZJ0tnzF7T5D/W68Y4H9PNb7tbWP+7SgaNfaNvOJj21+XX91HWXbrzjAW3+Q73Onr+Q9fF641uOUh5PmWI6LnF5B65ZFx/6Eq5J5/JkPgYz7n7EOsCWiHUAAAAAgKHI39oSf+Tl97+jwO4Gy/cFAAAGmBXrYldrW7tWrX9ZP5k+Xz+ZPl+r1r+s1rZ2U567FBexDjABsQ4AAAAAMKT4fAq7awaOvPyff6nwE27r9wUAAJJYEetY+S3H+01HBaD4iHUAAAAAgKEguKNekctG90a6v/8LdU+/niMvAQCwMWKd/ZcjMSAAMIfVb9AAAAAAAOTD39qi7plT+65L9w31XPKPCny4x/J9AQCAzGL/XZpYZ89FrAMsYvUbNAAAAAAAuQqtcqtn1PDeUPedv1Zo7RrL9wQAAHIT++/SxDp7LmIdYBGr36ABAAAAAMgm0LBTkXGX9Ea6b39LXXNmcOQlAAAlJvbfpYl1/z979/sj2XXn9/3+E34Q5EngAEaeJAj0IFkNHAfw2k8WMODATmA5XhiJqBZ/SlonWGEjTlfdH+ece+7vqu6e4fCHSEtrah05XC61GQlYE6aNbEzQY0nwakUMJ4lMgT1ryWusMJLWq5HFTx6cc29X93RzmjPD7uqe9wFe6OnqqrpV1ZQgzkef73c9D2EdcEpO+7+gAQAAAAA4yp/+mz/Sz3/9MyGk+0//nH7xlz6mf/+df3XqrwsAAHx4q38vTVi3nid589vfE4CPHmEdAAAAAOAs+NlvvjiNvHz/P/9P9LMvvXDqrwkAANw7wrr1P8nt27cF4KNFWAcAAAAAWHf//l++pV/8tV8Obbq/8B/p5//rk4y8BADgHCCsW/9DWAecAMI6AAAAAMC6+tN/80e6nT8dQrr/7D/WL375v2bkJQAA5whh3fofwjrgBBDWAQAAAADW0b//l2/p/Y/9BenP/zm9/1/8ef3Zy1869dcEAAAeLMK69T+EdcAJIKwDAAAAAKyrX/w3/6V+/r/9PUZeAgBwTt1LWPfSSy/dV/h0v49/2A5hHXACCOsAAAAAAAAAAKeBZt36H8I64AQQ1gEAAAAAAAAATgPNuvU/hHXACSCsAwAAAAAAAACcBpp1638I64ATQFgHAAAAAAAAADgNNOvW/yS3b9/Wu695Ld86EC5c+Zw+8cljuvKt+LhvaTn7ht5dg3AEWCeEdQAAAAAAAACA00Czbv1Psnzr8LDuDt//hj5/1yBuJaz7/jf0+buGe8DDgbAOAAAAAAAAAHAaaNat/0nevH1UWPctLY/VrHtJb95+T6/M9t/++SsvHSPcAx4OhHUAAAAAAAAAgNNAs279T3JYAPf5197THS25lTbcm1c+F8O9b2n5yZf05hhKrLbvjtXEAx4OhHUAAAAAAAAAgNNAs279z5E76+420vKwsO7d1/xe2+7IMZher3z/9MMT4CQR1gEAAAAAAAAATgPNuvU/xw/r7tqs+5aWMx/adG+9NI3BfOXKajj3nl6ZrTTxgIcEYR0AAAAAAAAA4DSsf7PuhoYLiZLkbjZ0dXrMVW2sfn9j0IULg26MX+/r1Z/8OXQM5hTEfYiwLgR+Bx4zBnevvRce+9ZL+sTK8wAPC8I6AAAAAAAAAMBpOJfNuqsbujDcWPk20cbVw392Fs4DG4P55mvf0Lurj5mCuW9p+UmvV77/nl6ZMQITDyfCOgAAAAAAAADAaVj/Zt2HPTc0bAy6oRsaLlzQcHXQhaPaeBtX7/50a3Ae4BjM/Y959zW/16iLYd+d1wAeDoR1AAAAAAAAAIDTcO6adVc3Qovu6oY2rsYRmtPoyxjgna1i3V3CukNGZN7pkLDu+9/Q58fbx6DuNQI7PLwI6wAAAAAAAAAAp+G8Neuubqy05q5u6MIwaOOIZt1ZGYd56M66T8wOjLQ80uHNuleufC7sr5uea/z5e3pl9jn21uGhQ1gHAAAAAAAAADgNp9WsGwO7o77uO1c3Dh9juWLfRMsbN7SysU4b56FZB+CjRVgHAAAAAAAAADgNp9Gs+0jPjZUddRcG3dDVs9+sO+0QA3gYENYBAAAAAAAAAE7DedtZd2O4EEZgTodmHYBjIKwDAAAAAAAAAJyGc9esk6SVNt3GVcI6AMdAWAcAAAAAAAAAOA3nrVl3dSNRkmxor1t39BjMZArx1vsQ1gEngLAOAAAAAAAAAHAa1r1ZF8K3Y9o3/nJ6hpVm3dk8hHXACSCsAwAAAAAAAACchvPWrDuPh7AOOAGEdQAAAAAAAACA07DuzToOYR1wIgjrAAAAAAAAAACngWbd+h/COuAEENYBAAAAAAAAAE4Dzbr1P4R1wAkgrAMAAAAAAAAAnAaadet/kje//T0B58UfvLOrWz/+6RSS3br1p/rOO7sf+XUI6wAAAAAAAAAA64hm3fqf5LRfAIfzIM873/uhvvPO7hSSfef6rt5594cf+XUI6wAAAAAAAAAA64hm3fofwjrOuTtvfvt7+0Kyk7gOYR0AAAAAAAAAYB3RrFv/Q1jHOXeHsA4AAAAAAAAAgIBm3fofwjrOuTuEdQAAAAAAAAAABDTr1v8Q1nHO3SGsAwAAAAAAAAAgoFm3/oewjnPuzr2Gdbu7u9rd3b2n6xDWAQAAAAAAAADWEWHd+h/COs65O/ca1r366qt69dVX7+k6hHUAAAAAAAAAgHVEWLf+h7COc+4OYR0AAAAAAAAAAAFh3fofwjrOuTuEdQAAAAAAAAAABIR1638I6zjn7hDWAQAAAAAAAAAQENat/znRsO769eu6efPm9P3Xvva1O7zxxhuSpFu3bh3688PcunXrjmsddfvBs3odSbp27dq+18g5e+c4Yd3u7u4Uzo12dna0s7Nzx+27u7t3vQ5hHQAAAAAAAABgHRHWrf9J3n//fe3u7ur111/X5cuXdfnyZb3++uva3d3V+++//8AvOIZxB/988LZbt27p2rVr+24/LER744037gjlPijYu379uqQQHK6GdOM1V7/nnM1DWAcAAAAAAAAAQEBYt/4n2dnZ0csvv6w333xTP/nJT/STn/xEb731ll5++WXt7Ow8sODujTfeuKM9N369du3aFLgdFtZdu3btyEbdalg3BnCHhXrjfQ97XYe9xsMCPs7ZOIzBBAAAAAAAAAAgIKxb/5P85Cc/0fvvv3+ojyK4u379+hTCHSesGwO01VDt+vXrU4A2hnXXr18/9Pkk6ebNm3cEdUcFcwcPYzHP3iGsAwAAAAAAAAAgOK2w7o/+7b/TX/7EE/rlTzyhP/q3/+7ErnsWT3JUUHdYcPfmm2/eV3B38+bNfYHYcZt14/djoHZwPOZRO+tu3rypa9eu7bv/Yfcbz+qIzOvXrx/ZxuOs9yGsAwAAAAAAAAAgOI2w7mc//7n+yt9+Uo98odEjX2j0V/72k/qrf+cz+tiv/Kr+6t/5zIm8hrN0jh3WHRXcvfzyy8e60GFh270268bQ74033jgyrPugkZgHn2ccqbn6WEZfnt1DWAcAAAAAAAAAQHAaYd1//+hv6G889rRe/r1/oZd/71/obzz2tP6rv/Y/6Sv/+Jo+9iu/em9PemPQhQuDbhzx46sbiZLkmDauxqe8oPhHSVe1cdh9x2veGHThWM9/QcNRL/KIc89h3Xvvvae3335bzrljXWgcJzl+XR1bedgeu4PNuoNjK1dvXw3ajtpvd9j+uTEMHJ9nfH1jWDfexjlb517Dut3dXe3u7t7TdQjrAAAAAAAAAADr6KTDus/OO/3VX/2svvT1N/WVf3xNX/nH1/Slr7+pX/4fn9KvuSv3HtZJ0tWNKWi767lLuBefUBvTfVb/fMjPbwy6MF37hoYLie58KTc0XPgIw7rVgO7b3/725LhhnXR4ADfuk7tbWHfweVafY7zvGPod1YobQ0JJ+wK58Ywh4Gqz7mDrjrP+517Duvu5DmEdAAAAAAAAAGAdnWRYt/jib+kv/o0NPffqP52CutFzr/5T/bf/w2PHD+uubhy7KXdhuKEjm3F32NDVGLbtb8/tBXNXN8bA7fCw7vAW3wUNN+4xrLt9+/aHDugeVFgn7e2WO7gbbvW+q824g023g826DxphuRrWHRzFudqiW32Ow14bZ70PYR0AAAAAAAAAAMFxw7rff/Nf6j/8h1/su+2PfvBv9f/8f+8e6+/MX/u9f6Zf+uuf1OLlr98R1I0WL39dv/TXP6nXfu+f3c9fzx9xjmrBhXAtfHtVG8mGVgtxN4YLsa13nLBu2Av5Vlp4N4YLMTC8x7Du5s2b+uEPf6hbt27p9u3bxwroHkRYN+6wG0Ox1UBsDOA+aJzlqoNh3XHHYB687upzsLPu7B7COgAAAAAAAAAAguOEdTf/zQ/1dx/7ddXL5/Tzn/8HSdLuzR/o8f9lpnK4cte/L/9Xf3hDv/TffVLFs189MqgbFc9+Vb/0331S/+oPj5NofUD4dWPQhX3B24Fg7UDz7dCw7upGbNrtf/zdmnU6eI194zHvMaxbdZyA7n7Dups3b+7bOyft30l37dq1DxyDefBx99KsW3386s+PavBxzs4hrAMAAAAAAAAAIDhus+4Pvntdf/exX1c5XNH/+73v69Ffu6jUb+nP/uxnd/378r/4Nz+tX29euGtQN/r15gX9pb/56LH+Ln6v+bb/XN0Yx19Ot3y4Zt0dYdu9N+umkZ0XNrSx7mEdh3M/58aNG/rFL/ZXcH/0ox/pBz/4wb7bVkO0P3hnV9e/t//nD+Jc/9c/0HfeuUlYBwAAAAAAAABYax9mZ90Y2P3tR35Neb2tP/vZ3YM6SfrLf+txfexXfvVD+ct/6/Fj/o38VW0kBwOwI277EGHd1Y0LGq7G+13d0IVhiI+Pu+8O7LHb/5wHdt5N7bwz0KzjcO71/OhHP9ILL7ygr3/961Ng9yd/8if68pe/rKtX9yfqq2HdrR//VN95Z1dvfvt7D9R33tnVj3/6p4R1AAAAAAAAAIC19mHCOikEdvXyOf3sZ7c/9N/lf+xXflV/8L3dD/SxX/nVD/28B1t0h7ft7mEM5r4ALj7+6oaSCxd04QPDugPnxo3YsiOs45zz89577+mFF17Q1atX9cMf/lBf+tKX9Du/8zv6+c9/vu9+H2Y85UkhrAMAAAAAAAAAnIYPG9bdz/mowrr9++kOa9XF2z/MGMxD7qfYqtu4uvJcd9w3Nu/2hYDTnQjrOOf/jIHdlStX9LWvfe2OoE4irAMAAAAAAAAAYHQuwrqVc9QOu4Mh2tGOCOtiGy80+FbDuvjnQ9p6hyOs4zwE57333tPXv/71Q4M66cAYzFt/+pGMwfyDd3Z168c/JawDAAAAAAAAAKy1sxrWXd04TjAWjY23g224O5/18Gbd1Y39Id7BnXQbVz94DOa+xxHWcTj7wrrvXN/VO+/+8IFf453v/VDfeWeXsA4AAAAAAAAAsNZOOqw7Ds7+c6Jh3RtvvKGvfe1rd7V6Vr+/deuW3njjjenrwXP9+nXdvHlz32MPGh9369atY72Wr33ta7p169aH/Vw5p3hWw7qP8r94Psy4TcI6AAAAAAAAAMBpOMmwjnNvZ62bdTdv3tT169en769duzaFcQd/Np7VEO+wQG81rLt27dq+21eDvtXbCevO1iGsAwAAAAAAAAAgIKxb/7PWYd0Ypo1B2lHNt2vXru1r7Y2B3Pj12rVrU+B2WFh37dq1Ixt1hHVn7xDWAQAAAAAAAAAQENat/1nbsO7g63rjjTfuaM0dFqJdv359X8gnfXBYN4Z8q899/fr1qbVHWHf2DmEdAAAAAAAAAAABYd36n7UN68a22zj68vr160c268ZgbWzfjee4zbrx+9Wm3upzENadrUNYBwAAAAAAAABAQFi3/ueewrpvfvOb+t3f/V29+OKLevnll499sQ8aZTla3Rt3MCT7oGbdYWHbvTbrxtc5tvkI687W+TBh3auvvqrd3d37vg5hHQAAAAAAAABgHRHWrf85dli3GtDt7Ozo9ddf1+7urt5///2P5IWthm9jkPZBzbqxgbfaxFt93ME9dgebdas77w628wjrztY5Tlj39ttvyzl3LG+//fZdr0NYBwAAAAAAAABYR4R163+Sd99998iw7qQDutWzuntuPHfbWXdYAHdw391RYd3B5/mg63DW+xwnrLt169YU2L3++ut6++23j3TU75+wDgAAAAAAAACw7gjr1v8kOzs7+vKXv6x/8k/+id59991TDegOO6vjMT9sWDc+/uBjD973qDGcR12Hs97nXnfW7e7ufqiRmIR1AAAAAAAAAIB1R1i3/id5//33tbu7q9dff12XL1/W5cuXTz2gk8KeudVxlNLRYzAPa8uNYzSvX78u6fBW3t32540I687WOU5Yt7u7q1dffXWfnZ0d7ezs3HH7UQEeYR0AAAAAAAAAYN0R1q3/SU7qQmP4dhxHjac82I47eMaw7ubNm3cEfas76a5du/aBYzAPPo6w7mwdwjoAAAAAAAAAAIJ7Ceteeumle/wb+gfz+IftnFhYx+Gc1GEMJgAAAAAAAAAAAc269T+EdZxzd44T1t26dUtvv/32kV5//XU55/T2228f2awkrAMAAAAAAAAArDuadet/COs45+4cJ6x7++235Zw7lrfffvuu1yFPJuhZAAAgAElEQVSsAwAAAO5fkiST034tAAAAwHlBs279D2Ed59ydex2DuXrGnXbHvQ5hHQAAAHB/kiSR761851QPntAOAAAAeEBo1q3/IazjnLvzIMK6D3sdwjoAAADg/oSwzslUuQqfyVS5XGMJ7QAAAID7RLNu/Q9hHefcHcI6AAAA4GxJkkRV72XqQlk5V+bmMlUhUxUqfC7XGEI7AAAA4B7RrFv/Q1jHOXeHsA4AAAA4W0Krzsu1TqYqZOtCvrUyPldepsrLVKmdK3Mpe+0AAACAD4lm3fofwjrOuTuEdQAAAMDZEVp1pcq2lK2NbGPULKoQ1lW5UjtTamfK3FztolQ9lOq3G/U7NaEdAAAAcAw069b/ENZxzt0hrAMAAADOhiRJVA9edV+qWVQatht1y0quCSMwy9bJd6FtVw+lFjuNTJ2rbI26rVrdVq1+i9AOAAAA+CA069b/ENZxztW5/q9/oO+8c3MKyf7gnV1d/94PPvLrENYBAAAAH15o1TltPdNpeanT8y9e0v/9f/2uvvilyypbq6zMZGujsnOqulKuMbJ1oap3qvrQsqv6Ur6zsnVBaAcAAAAc4kw1624MurBxdfxGw4UNXf3AB5yPk7z57e8JOC++886ufvzTP51Csls//qm+887uR34dwjoAAADgw0mSRKYqlJeZbF2obK3qwevZF7b0zPNLbT3Tq+5DQJeXmUxVyDXhPiGgc/KdVdlaucbKtVamLmTrnNAOAAAAWHGmmnUPa1h33LABwL0jrAMAAMA6O41way+sy5X7XIXP5RoThfbcsFNr63KrZuFlayPXWJWtC+FcDOhsE0I6UxdyjVHZWi0vt3KNIbQDAAAAfnp+mnVXNxJtnNPkjrAOOAGEdQAAAFhnSZIoK+cnFm4lSaKydTJ1aM0VPgtBXOdka6PUzZWXqUyVTe25whcytQkqo6IqZJsQ1uVlqqLKlftMuQ/PV/hUmZsrtbPpfRHcAQAA4GG07s26G8OFff+bPbkjrLuqjSTRheHGqb7Oj/IQ1gEngLAOAAAA6ypJEs3NfArIPurdb2NQV7ZWvgtf87ibruq9yrZU4XOldq7MpTJVHgK9qlBRFcp8bOJVhWxt5RqnosqVlZmyMtPczjUzm8rcXMZnKlsTWnutVb2oCO0AAADw0DnbzbpESXJB5zink0RYB5wIwjoAAACsoyRJlNpUczPT3M5imy2XbYxM9dHsfhvDuqovVQ9e3VYd984Zla2T70rZ2sr4IjTofC5TFbJ1aNOlZTaFdbkvphAv9yHUS11o1OUuDY+tR0audSo7p2arJbQDAADAQ+O0mnVjYHfU10MPO+sAfFQI6wAAALCOkiTRZj7TrNiMTbYsjJusjGxdqGzDCMoHNUYySRIVPjTiwnM7ucbId04+jsAMu+lcZGVrI1MVU9hmmjAK0zZWeVVM4zFtbZS5VHM7V2ZT5WUWHlflck2hsjUq27ATr+xKVX2lavCEdgAAADj3znazjrAOwANCWAcAAIB1kySJZmaui9lFXcwuxoArV+HzGJjZ2HIzapf19Of7CbeSJFHmsilIq/pS7aLSsNOp22rCbroyk/HFFNTZupiada51cl0p25hpX52Zwr0wTjNzqVKbKnWhgWfr8NiydTJVrszNp/dn6kLVUKndagjtAAAAcG6t+8666VzdOGJn3fjtapB3vg5hHXACCOsAAACwbsIIzLmeTr+gzXxTmctiQFbI1iEsCw07o8WlTlVfylSFiiq7pxGZIahLw3jKMlPhM5k6V7us1G83qocq7q8LoeFewBZHXcbGn+9KudbJNlautXKNnYK9cL9xbKZVURllZWgLVr1Xs6jlGqvC58p92JNX9l7NslLZWWVlSmgHAACAc2f9m3VXtTGGdB/UrCOsA3A/COsAAACwTpIkkeucMpdpbufTbrggNN8Knysv87ALLu6DK3wed8vZOCbz+E27JElCiFblcTSlke+s6sGrXVTyXalmUavuS5WNVeGzMJozXjeMtDSyjZsadWOYaKpCRbl3n9AOdLKNk6mLqS1YdqXK1sXxm1ZlV8q1VrYxyst0GgeauvSBjf4EAAAATtu6N+uubiTay+c+IKy7uqELw42Tf4EncAjrgBNAWAcAAIB1kSRJHHdZKLXpFHDlZRaDr1xzO49Szc1ccztT6lLlPgRtpgqhnq1zVb1Tc5fdb0mSxKacle+Csb1n6729dHmZybdW/XajdlkpL9PQxotjM21jZdswvnJ8rIvjMIv4+DHAc7VV2TiVrZVrzRTShdDOyXelqj6GdXWhwoe2X+rmSt1Ms+JiYC4S2gEAAOBMW/9m3co50J67MVxY+T/SXdA5zeoI64CTQFgHAACAdTGGdePuuCKGc6kbwzqjvIy32VSZG/fAzZWXWQzQ5spcKlsXapeVlpc6LXY6tYvqjmArSRJVvYtBnVPVO1V9qbK1ISisQ7hW9X7aUecao3oo1QxeVedk60KZSzW3IbyzjVE1eJVduRfUxUbgagPQt1bNwu9dv/eqBq9qKFX1Xr4rJ2HsZ665mWmzuKjN/Gk9nf2GCp/GULIktAMAAMCZtO7NOg5hHXAiCOsAAACwDkLDzcZmXS7fhT102UqDLS9zFVWhavBKXaqZnSsvQ/iVl5kyN1fq5nG0ZBhjeem5hYadVtXgVQ9eZWv3jZGshyqGY24ao9ktGw07nareT2Msi7irbtxN1y4qDduNqs4qszOldqbUzmWqXLYx8n0YnVm2dnoPhc9UxCbeGPr1280UEPrOqd9qtNhpVQ8hsAutOxubd6Fll/tUpsrkOytT7YWUhc8I7QAAAHCmnKlm3UN6COuAE0BYBwAAgHUwturmZh7bZ1ZFlcv4IC9zla1Tv9Pqf/8/vqR64bVp5ip8IVPlU1iXl3ncDVfEEMwptamKyqioCs3NpuZ2FnbjNXvBXdX7EIg1oU0XRlF6+c7LxkbfuKNu3J9XdVbNUMbRm2m8fgjlXGPluxC42Tq8Hhf3z4WGXRafw03tOd851YNXs/Dqtmq1y0b1UKld1Oq3u722XR/ua+o8jMa0M+VlKlPlqvtS/dadLUIAAABgHdGsW/9DWAecAMI6AAAAnLYkSWQqE3bQmZlca5WXmeYmhFAu7pTrtxstL/dql7U2i5nmZqa5mSu1c82K0GwrfD7tkSvbEIKlNtVmvqnfmP2Gns6+oFkRdr21y0qLS51856ZwyzVWWZkpc5l8G8Zi+nZsye2170KDrtDWlU7DTiPfWbkm7NWz9XhtN+29c03YSxf26mUycTTmXusuV7es1Sz81KSrh0rddqt+u1W31agaqimwC8GincZ/uqaQrYv4vq3qvtwXRp727xgAAAA4DM269T+EdcAJIKwDAADAaRrHXxY+16zY1KyYxd1wYRfc2Jareq92WavfbmUqo8yFJlnmsimwG8dlZmU2BWSFLzQ3Iay7mD2tzM2VJIkKn6keSrXLSlVfxqCtmMKtmZkpdamKqpCNYeF4v/H7MRhrl5W6rUpluxfYlW1ozIWmXzE158Zxm+NuvazMptGdZWti0BhGe1a9V72oQrtuWavdauIoTxf32BXKyxAq+m4ck5mrbIyWO42aOEqz22r2jf487d85AAAAMKJZt/6HsA44AYR1AAAAOE3j+MvUznUxe1pPp1+QrXOZKg9hmc807LTaeXapaqjkWidThQZZ2CFXKCvzlVGYafxZIVOFn4dRmSFEG1t8IcyzE1OH+4WAMJ2CrbwMgWCxMrpytSkXHm/kOxtDRiPfOTWLSv12o7K14TFNGK3ZLEI4WPhMqZ3FMDKbpHYckxlGgYbddU5l51Qv6ziuM7zmqi9l6zx+XoVsHW/vwijMbrsNbbzeq45fy9YR2gEAAGBt0Kxb/0NYB5wAwjoAAACcljE4y1yqebGpzfyiNvOLU8Muc6m6rUpffeXv6/Lz2/LduB8uj3vlwljJospVD179dhNbbo1sHQO51qqoQuMsK9Np1KXvfNyLVygvww668bkLv9eGW22kZS5VGsO10GALoypXx2NWfal2UWnn2YWaRRX31GVTiDfuobO1CTv5qjwGfi4Gi3lszO29BteEsZijYafV4lKrxaVOi0uN2qWXrXNlLg2fSx+CubBzr5yCSd+XMnWh3OeaFXNCOwAAAJw6mnXrfwjrgBNAWAcAAIDTkiSJijKf9q6ldq65nWlu59MYyq989UW99n9+RTtXhtCis3Nlbi5bF6o6J9cUYb9b79UMXluXB11+bmva/RbGQ4bALISDWdwpF0dW+lxFGYx77uqhCiMo+1JV72LrLp/CrdSGwC4Ehn7ajTeOvgw75cq4o65QEZuAhc+m+9k6vLYQ9O219MZ23Hi/cJuR8cU09tLVhXxnVfVOzdJr65lO3VY1BY15mamo8hhY2hhK5krdXFmZTg3EMM6zJLQDAADAqaFZt/7n0LDu3de8lm+N339Ly09+Tp84aPYNvXv7tm5//xv6/GE/v4PXK9//oOuE7z//2nv7X899PD+wLgjrAAAAcBpCw81MQV1otoUxlHMbdrgNW7V++7V/oC995VktLreaFTPNi5lSG3bU5T6Njw0hVtgf12jYaVUPoYVnGxPDvDKGdXkM60wM7MZxmvnKrrkwNrJZVHEMZQjjbGzijeFWCPf2ArXQrPMrbbtwe+ELpTa08kwM0VwcixnuW+5rzvneq+zcFNg1iyq2Co0ylyl3qYoyXXkvVvXUogv7/8I4zzBWMwSDPr6WPASjcU+ejbv06oUntAMAAMCJo1m3/ueIZt23tBzDuH1/PuTn3/+GPn/lW/H29/TK7HP7Ari9271e+X74+d2Dt+jKt8Lz77v++FyHPf/phzLAYQjrAAAAcBqSJJHvXAifYmCX2VRzM1NqZzJVod/8ynN65rmlTJUrc3PNzUxFGe4z3m9155ttrGzj5Fon37mpaebqIl6vVDOExlw9hNZcaLfZGNZlcZyli/vlanVbbdwT52JjzsVG3d6ITOP3j6wcx1kWPlfZWuU+09zMtFlc1Nxsam5nISyLj7F1MF0jXmcvBHTTdTMXAkpbhZBuHKdZ9aWGnVZVX8YQNA0tRTNT5jJVU+jopjAvtWkYuxmVrVHV07QDAADAyaFZt/7njrBuX5g2+4beXQnm3rwyBmKHh3VvXjmq8XZ4mHbsZt3sG3rzNX9kqLd8i7AO642wDgAAACctSRKVrZGN4yFNVUzB0tzMlbtUw3aj3/zKc+q3ahU+18xs6mJ2cQrqsnFspglNu6Iq5Hsv15UytYkjJ41cbZQkifqdVpeeXWpxqVW7rNQsvKo+jNEMDbV8ati5xsjFfXT1opbvvepFpTKGXWPjbtw9t9e0M7KNUVFlysowrrPwmXIfXuss7uXLy1SZm8d2WxGUuVzrVHalbAz9qt6rXdbTTrzwfgpldqbCZ2HkZu9DS6932nlu0DMvLNVvN6p6J1uHFl1epnKNmRp/pjIyVWgU2qpQ2TnZupjeu+9Cu291X99p/zMDAACA84lm3fqfI3fWvfuaD822Y4V139gL+VZacHvh24Ew7a2X9t3vA9GswzlAWAcAAICTNI6iLHwWxjDG4GgzHxtnIVi6/PyWLj2/CDvjqlypSzUrZkrNXGls1c3NTLNiUzMzUxHbbLaxKhsXd8oVWlxqYjjodOm5pbavDFrstOq2KlV9Gdtp+TQGs/AHxksOXr73oYE2Bly1UbdVq9tqpjbduBMvSRI1Cy8zBmU+m5p1pi7ULv3Krjobmm5lobzM5brQiiuquEPPh9cQdu9ZVX2pfquJr7mQq/f22pmqmNp1W8906rfrEEh2pcomhnKtU9mWsfkXQjrfhx17tjEr79uFzzG+znpREdoBAADgI0Gzbv3P4WHdWy/pE598SW/evq3jhXXf2nvs6o65feMxD4RpYwh3xE66qXF3l/uF10lYh/VGWAcAAICTNO6qCzvVQjDWbVUqqlx5mSlzuarB6/LzW2q3KrnWTO2wvMxCyNS6GNRdDLvrXDY19IwPQdesmGluNpUkifIyjIlsl7WG7VZbz/QadpppL12zrFQvvMrWqqgymSqbGnFjiDWOnwyhXgjGfBfGVla9jw25XNXglCSJlpc6+bh3rvB5aP+VhWxdyNa5sjJV2TpVfSlbF8p9CCTHhuEsNgZzn8tUJgZ7Jo7ptNOITBPHZI7fr34tW6etZ3r127V8N4Z+ZWwAWlXDneM9qz6MBy3bvWuVnVPVe1U9e+0AAADwYNGsW/9zZ1h3R9h27826EPp9Tp+YvaRlDNPevPK5/aMu72jOHRiPSbMO5wBhHQAAAE5KkiSydTE12sbdaYUPQV0YwxjGP3ZbjdplFdtpqUwd9r/ZqpjCuPGxrrZTmJWX6dTCy2yqJEk0t3NVfaluWYdwblHJd1a+c2qXtRaXujgWMwRnod1mVFSF5mY+7ccLozWLqX1XtqHF55rQtit82I3XbTcatlv5NuzPC89rZOti33u1cVxn7jPZOHozc6kuZk+HpmEcCzrulnONUdU7tctK/XYr35fxM5zH/Xil6r5SXobP1VaFhu1Gw04zBYd7jb64m6/dCx3LNoz+9J2Tj+29wmcydTHt9quHSt1OS2gHAACAB4Jm3fqfO8K6N694vfJWbMu99ZI+/9o3YjD3LS0P2WO3v1n33v6dd1M7b3+Ytm833SFh3V4oOP78JS1nh++rY2cdzgLCOgAAAJyUJEnke6fFpXGUo5kaaa42cZdcpWZZq1vWsSVWyHdmGlWZl5nmZh7CuDKL+9fMFP7lZRb2w5mZkiRR6uZxp11o1/nWTq24cbyk70J4ZRsrW1tlLpOpjfKq0GZs6GVuLlPlqnon341BVjHtfyt8FluDe+MjTW20uNRpebnX4lKnfrsJQaDP5bvQZAttwiy8l9pMAWZq50ptCAnHFmLhM1WdU7dVq+p9GF9Z2xD4lalsHdt2PozVLGLLMHNh5Gjhc+U+j4FkMY36DG06P33eNoZz9VBNzcBxBKjvwh69ZlHJ1AWhHQAAAO4Lzbr1P4ePwdwXwMVg7q2X9ImZj8HaB4zB3Pc878UQ7gPCtMPGXK6Gd3dp1oVgj7AO642wDgAAACchSRL51mrYadQsytgEG3e3OTWLWtvPDKoHr3YR2l1hVKOTa/dCvTyGTyG8KsLON1/I+CKGZvm0P67qrHKfxuZZFkdYxvGWtZHvwr628NxBvhJuZS7smkvNpgqfqh6chp1mat/Z2OgzVaHcpXEfX3ie1M5lqkI7VwZtXxm0vNzrmRe21W01sVnopvvaOrT8QiBWTIFeUY67/bIYmIXmoW2sTGz+hQAum0aEjg08F0dkmqqI4V8aP7fwXN2yDoFpU8TGXqkmjgU1dfgcbNyp5xonW4cQ0g8+jskslLqZ8vi5EtoBAADgXtCsW/9zjLDutm7HVt3yrZWQ7o77xubdwZ1zt2/rsLBuGnV5SLNu3/MeFda99hI763BmENYBAADgo5YkibqFV9kU+/a+uSaMtbR1GH3ZbzfavjKEsY29k2uK2KZLlbsxsDLKYyAXRkuaECxVJozI9CHIC8FZeGxop82VlXPNzObUlCumXXTZFPLlZWi5pTHgMlWuurNqF6UWl1r5ziqPIyfHoNHWZmrV5WWu2dj8c2Ek515TLQSR/U6rYaed9seZahyjmU9tt3DbOK4yfD714FUNVdyjF1p9WXzN43swVXj8OO6ymD6DeXhPLoR2Ya+dke9cHK3pVQ+lmkUl19oQ9NXhs7ZxZGZo84Wxn2GMZ66iymK4GNp9Y2hHcAcAAIDjoFm3/ufuYV1svIWxlathXfzzaiPuA+0fg/mJ1ec/LKx766VwzXt4fmDdENYBAADgoxZabi6OdRxbbkUYWRl3srnGaNhp9ewXt0O7K462DDvo5jE4C/vuMhfCOzONdDSx4ZarqMJoxtXRlWOYZOtcWTnX3Gyq365l6hgErgRdY2g3K2bKXap28Bq2G5WNmZ4vhIQ2jpsMjw37+EIDcGz+mSrskxsDyrDzzWt5qdfWM722LvdhjGUVHpPHUZghbAttu3HHXrOo1W41apd1HLG51zQ0VRHCyrqYQtBxB90YAo6B3dzO44jMEJKWbRiB2SwqVb2LwnhN1zqVXRm+tns778KOOxdDxb1AdLN4Wlk5l22M6sET2gEAAOCuaNat//ngsO6tl1b2zt3WHTvpxubbUWMw9z0uhmlvvbQX1N2+rYONvDvCt6PCvKOefw2CGeAgwjoAAAB8lJIkmfazpTZVUeZxT1uquZ1pM7+oWbEpVxfautxp2G5iiOT2wro4wnHcmza26rplPYVGZWumPXJjWDc3m1NbzdZ5HF1p1G3V8r1V6sJuuxB4xbZaXUx770yVT8FUCBnz2EgLe9zCXrl52I1n56FpFpt94+jJ3KUqyr0m2/gaF5c6/dY/elHNslLqwh6+vMzkmrBDrh5Kdctay8udhu1WzaJWPVTT6M4QlIXxn2Ec6MpozKqYPitbmWkXXV6mysp0X1gXxlzaSdmGBuDYGnStVbOo1G/Vcfylnfby1YvwekLTLpOpM/neTjv9QrDJXjsAAAAcjWbd+p/DwzoADxRhHQAAAD5KSZJMLbDUhpaZq43yMtXcbOpi9rRmxUy2MnE0ZGhx1YtqCuYyl04jL0017ngLYVbY/2ZjkBTGUc7tTKmdKXdzGZ+p6kuZqpDvrHaeHdQtKxU+09xsxkAtCw23GHxlNlXZWnVbscVWmWnXm1kZtTkrNjU3sxDWuZnmdqa52VQe98yFtlwq39kYgIXWXOFzzew8jNu0ITwLgWQax1gatctKw06nxaVOW8/0aheVqhjSjaM3bW1iey58Hr61e0GomYe9fmUu17gpjCyqPOzD88UUPJrK7HsNY6vPtVauKVR2VvVQql1WaoYqNvFqbV1Zql02aoY6jOiMv4vcp8rLNLYZx98ZoR0AAADuRLNu/Q9hHXACCOsAAADwUUmSJAZXuTKXaTPfnEZZhlGTm9osNjU3cxVVIdc62capGiq5xio1sxjwZdOIR1sb1X0YDbm81Gnrcq+qK+UaG64Xx2bOTQjssjKVqUNY9Nu//SX99u98WXXv4o61TKbaC6yy2JQzPo/BUwy4fBGCL5+r6kqZKp+ukSSJbGPCbjgfbs+iMbAawy8fX2fh833747LY5BtDyXoo1W3VGnZabV0e1C0bVX0YV1mujKQsfBF31xXTGMtw3UxzM9PMzJS6+UqLzk5tuzGwOzj+MzQC59PnXvWl2oWPo0bD7r1u2ajf7jRc6tVuNaqHSvVQqRoqlV0Z24mpXF3EYDabAsyxiUhoBwAAgJ/+lGbdWTiEdcAJIKwDAADARyFJkrCXzmcqWxdaWzadAqOxmTbLx91yRQzOwp60osyUu3QKvcawzHflXjjUl6pjgGWqsDeu8GEUY9ilFnbAhcdZ/YPfel6Xn1vIdzaOuIwjJZs4UjK2znwb9rblLp120KV2rrJ1qnofwroY1O3bYVeZsBfObIaQMI7gHEdHjs29uZkpK7MQUDZ2Ggk6j6M3u61KL/79S3r+xR395m89p9/66hd16dmFqiG83mZRq+p9CEHLTJmby03XMVPwtplfjLv70mmX3djKMysjPcfddtlKgDg3IbAb9/1NYWVfqt9uJ8NOp3arjb8PH56/MSo7p2aopvGbaWwdGp+pbEJzkNAOAAAAZ6lZd2O4oAvDjfu69lk8hHXACSCsAwAAwEchSZK4cy40uFKbytaFXGOm5ldmUxkf2ldhlGUl3/kYHhVTS25mNjUrNuNeuEJl69Rttar6UrY28p2Le+Nmuph9QblPVbZGrnWhrVeHZlu/3agevAo/jrQ0KzvtjKreqx6qGP6FYM13pXKXKS/zlaBxryEWxmuGvXausTL1uPvOTK21qvdqF7Vc40LAZtO4Ay+bGn55GUZHmipXUeWqB6fFpUaLS70uP7/UMy9sabETdte1W63arVauCZ/v+PjxeqPUzUO70O199uPnWvhMpsrlWquq9+F9TqNBZ/saduNewTyGpe0yjL30nVOzqNXE3YG+c/vGfY7hYRj9Gd7rsF2rW4b71ItS7dZeaEdwBwAA8PA5O826GxouXNBDmNUR1gEngbAOAAAAD1qSJKo6p7K1sfkVdsKVbQi7UpuGsM5lU/OsGsKYx7GdlblUmZ0pi4HTzGxqbmcqylS2yqe22ihJEmUu1Wb+tFI3k20K+dXRkY3VsN3EUZFpbJHFHXoxUGqXtbqtWvVQyndOeZmFNlzc++bbMu7eS8P4yzhSMuyZC4GgrQu51qpZ1nFkZdhXVw9errUxlAtNtdXdbmG/29juC+GbqXOVrVGz8Nq+0uvSs4O2rwxTI9C1Lo7eTOOevrD/btyrV/hMRZnFQHJs/+XTaxg/+2YZRlmOOwKLKpsCzHxlRKepwo68cP3wNfzOSvXbjZaXOy0v93rlt7+sf/jVF1XFz9A1Vr4v5ftS9RDGiLomhKztslKz8KqHcto5SGgHAADw8Fj3Zt3VjWTf/7nsg2xcva+XtbaHsA44AYR1AAAAeNCSJImBmoutr0zdVqOytZqbmZ7OLupiFnbV7TXTSrnGTe21uZ3FACtX4UO4Nzcz5WU6hUhjY2zcVRd2ooX7jCMrx7Zc1ZfyrVUx7WULgZ1vrbplPYVHoRlmYxssn0Y/hiBuDBrnceTmXpOtqPKpvRZ271mZxsj3Xt1Wo3ZZy6607caxm2Ojbgrr6jyOscxjEGnkmrDHbutyqxe/dEnPv7SjbqtWt12rbG3YEVeFvYDjHroQNGYqO6N26afm2zjqc3y9hc/C2Mq4By+MxbSydfg9FFWhvBxHZobfU7ivm3YIFj4Lr7Ev1Swqvfily/qHX/2innl+qar304688f4hwCxV9U5VH15XGa9tGqPcZ4R2AAAAD4mz0qy7upE8lCMwJcI64EQQ1gEAAOBBSpJErs7l4j600J4zU1MttRtsb8gAABwNSURBVKk2801t5iGsK6pCVV9OYZGtQ1gzhli2yeXaYmrY5S5VUebKXCrXliE0q4rQVBtHSdaFfAzpmmWtLu5U8205jbc0sRHnmiKOsDRT8FT4TL6z04jMxaVerrGam7kuZhenICmPrbW8zGJLL5tCrRBOhQZZs6jD6Mjey9Z7IWBouhVhv12Vycb7jy24scUWwrNiCvS6rVpNbOtVfSnXroRhjQ1BYVXIVkUcSWmUxvDTxJBu3OkXxnGOzTsTdgL24yhQMwV4Y/A5tvrGADSMEi2mz2Js6/kuNAK7rVpbl1o1C7/yvsrpfY1MbWVjMOkao8VOre1nWkI7AACAc27dm3XhXNVGsqGrq99fGPSwRHeEdcAJIKwDAADAgzLuqfOdle/dFDiNDbss7n6bm7nmJrTbTGVii8tO4xszN45dDCMhszKOwiw2ldm5ijIEXd12F3bVuVRzs6nCp7JNIdc6ddutFpcGDZc6NYtqCp0KX8jWYY/cGFCN4znDa5wrc3OZKoRt43jL8fvQqAuB3urIm8zNlbr5FMSNYy7HHXuucdNnMQWTscXmO6eys9Out9DyCyMmm0UdR16GvW+5z6fQzVSFfGs17DRhF9xWraovVQ8+hnZmJZhLlcXX5xozjfOcFXv7ADOXqvCFXG2nNtz4+uuhUt1X8l05hXqhDWljmy+L4ede6Jn7ELZWvVW3FX4He79vE/8cmoimLpTH5xg/6/F1p3ZGaAcAAHBOnVazbgzsjvq6em4MF5Tsm3FJWAfgASOsAwAAwIOSJImq3qleePm+jI2s0KDKXKrUzJW5ENqlLpWt7RT+hMCnmMY0hkCtlGuMsjLVbBqDmcWAzSlJEtWLKt4vjMt0jZlCsHqo1G+3aqb72CloGptj4fpWeRnCq9TOlbu9vXhla6dgzNYmhnV7++7y+L7GMKkYx0yujH0MoyXdtGfOtVZlV6pd1hp2WvXbjZqFn8ZC1oNXFcOwqvdqlrX6nV6uLZWXuWZmptTNY9hZqFvWWlxq9cwLW9p5diEfw8dmMTbkxtGYceRmlclUIZjcLC7qYv60UhsC0bmZxddfKHNZ2FPXOfnYqqt6r26rnYK6sQk3BoFlG+4TwsC55nYmU2VTky+MDC1i6FhM7b2xYZiV2bSDL4ufsa1zmSqM+FwNSE/7n3cAAADcv7PQrDvW3rpzHN4R1gEngLAOAAAAD8LYqrN1IRe/hmaaUeay2Kaba1bMNDNzZWUm33uVbWjg2crEnWshqBtDrjw23VI7U2Zn00jGKaxbVlOoF3bG2emxdV+pXdZTWFdOO9lCgDU2xgpfTLvo5sUsNMziSMqxKVbGkZu+sypi22tmNrWZX9TMbMb9d276l/XQGivi9cr4XKGFNgVVvpgCuxCshZbduCNvfIzvvfzgZWq7L+ycFTOlNlW3VWt5uVO7rMIuu60wdrPfatUM4/N72dheG0dWzu1chc/UDG669vjZ52XYgRdGVvrpd7vaqhtfa79Vqx7KqaU4Ne7KXEWZTw1JUxUytVFaZsp8rtwXKiozBXZFlSuLOw5DeDhXVqbTLj9TFyo7F8LDwRPaAQAAnANnZWfd/kOzDsADRlgHAACAByFJEl16bqnhUqt2UU3BzzhucWytjaGYa5yqvorjEAsVZb4yijGMkZyZTc2j1M7CPro4OjEEZ3GUZWNVxgafjeFa1buV8ZXF1HIbR3O6xq206jLNipk2803Nitk0rnMc6+hjKy5JErkm3GaqfGp+FVUWG2CFys6qHsopSBqDwRBcjs248DnYyqjqSzWLsH8uhF+xWdf7KSwMTbO5UpcpK7Np3964L8/WhdpFJbcS9tWD17DdaNhp9fxLl/X3/8Gz2rrcy3d740BnZqbcZXHUpZneQz2Uss1q621vHGXqUuU+D427NnzGozHwGwNR1+ztIQzhbdipZxqrog7BXVEbZWWuIgZ5e0FdOoWKe59faPKNLcVqqOV7QjsAAICz7Cw066QwCvPCMMZzY1h3Q8OFCxrOeWpHWAecAMI6AAAA3K8QYhnVg9fl57d05YVtNYsqhlxuCmAylypzqWxt1C4qlc04orGIP8umUC9zqVIXxjLOTRiJOAU+U1gXHp+XmUxs05nayHcu7kgzyn24dniOsJNtrxlWyjVOhc81M5t6OvtCbJsV04jHsSmWJIkuPTso9yFEKlurqitVxkZf4TPZOpdrzb5m3DQe0+dTMPiF9Au6mF+Ua6yaRaVmEfbB1UM1BXUhACvVLhv5rtzbgxcDrL1xn07Gj0FkCBHHwMw14bV0W40WO622nunVLuupFVfEIDO07dJ9ewILn6lsXdztV2gz7rabmxAa7oWZNoaDpYbtTlVfxvA1mxqOYyA7hnWuK2VbK9OYoB7bdeH3mbl0JbAbx4kWcq2Ra4r4+vKpYen7Uu12Q2gHAABwBq1/s+6GhgvJSlAn7W/WhZ/v32l3vg5hHXACCOsAAABwv1Z3NYxjKl3jVPelXBPCtNyHHWmZm+9rXtnaKHNpDNMyzcxMF7OnNSsuTsFYXqayjVE1VFNwVscm2RTWVTH0qY3qvlTVu2nn3Ga+qYv5Rc2KTaUunVphbnoNdnptq/vpxnAwSRL9o1de1G9+5TkNO20YJ1nG3XoxSCrbEFpVvVPVuTjecxyjubdrreqdUjfXzGwqL1P5Lnxe4bHlFN6FAKzaC/OGwDUmts2MTGOncZWhDZipqHL5zqpdeLkpRCym9putCtW9j7vyarXLMH4z3M+sfJ6F9kaO2vj7Cw3JzI6/l7CLrh5KDTutuq0m7qvLpt2CY2g47qozlQnjT7syBHeti/8s7I0nzcuxQVhMY0Nzn09jS11jp9Cy8LlsY1UvKrVbtVxrCe0AAADOkPVu1u1vzt0YLuz9u8+BcO7qxsFA7/wcwjrgBBDWAQAA4H4lSaJPPfYpferxjX0724oyn4KbvEyVxxGXZdxpFkYsFnHUZWi+jeMo52amZijj3rfQEBv31I3jFYsq19zM4lhIo9TOQ8OutSqqTGVr1AxlHHO5qbmdh5GLvpjGSIaxmOW0w863bgrYihgShRafUT04NQuvxU6jbulVtU4m7tjzXXjsGBCG92ZW2nlWz31xuS/YzH2qsjWqe69mZQzmGNzVQ6l2WU3BY9V71b0PrzHu+gvh1t6o0TFAK1sj3xnZOp9Cx7wMgWnVOy0uhabds1/c0fJSJ9+VMSwzyn0uW5tpNKdrrHz8Wdi1l8v4fAoCy9aqXVZqFvUUPLo40nI1VBuNLboihqur7bvQGrRTYOqaUqa2Yc9fVahsS1V9pbINO/JMbVT2Puyx610cmRp23RHaAQAArL/1b9ZxCOuAE0BYBwAAgPuVJIk2nvi0Np74tD795KN67DNP7AVSZa40hnS2Do22Mu6KG8cthl10e42uMKIxtMTGRlXYLxfGSpZdOY1GDPf3KyGTnfbahSAwjNGcmVkMi2Jbq8xioy+MWyx8IVvb6TU2i2q63thmy8s0jIfsjNqlV7esDjTxzN7IxrgXLo8718LIyXzf/rfxM6oHr2bpV3ay2Slwa5fjaMxxbKeZwsAxdLS1nVpre+MmjXwM+Qqfa27m2ixmcbzkfGV8ZaV2UavfamIzrpx+V/UQ2ouuMXEHoZnagmH3nYm76twU6uVlLt861UOpblnJ1kUISV0WW3BGritlahP3C9pJ2Fk3BnpjWBeDzzq8p73GolXZuWlk6DiKNCvTaWxqGKc63xeQnvZ/VgAAALDfejfrONIZDet+8Mc/0u9/8x29/s//8EP5/W++ox/88Y9O/fXj4UNYBwAAgPuVJIke+8xj+vSTj+rRpx7TY599Qk/+2mf05N/77L7xmOOoSN+VMlUeR0+mysp0CsOahVez8NMOtb0AL4y/LFsXd5wVsnWusrVxlGam3O8FVlUfGnWb+UXNYkhV+GwKt0xlphGSYxstc/P94xVjWFf1Xq610y61vEzjKMy911dUe80xG4OmEAhmSl2qWQwMwzVSmTpXVqbK/V4DrGxDo28vpCria85WPjurZghfbR2bblUIvZrBT+248fax4TfuAzRVuG7Y37f3vMvLnbavDFpe7lW2ZWiuxfaia2xsDtopmBvbfiGANHvNxO5gG9LKx3GlYe9eFltyucpubwRmCOtimzF+puE5rarOqV1W8p2V70v53sv3YVfd6v7BEOSF38vcbOpi9gU9nf6GLuZfUF6mck1BaAcAALBmaNat/zmTYd3vf/Md/fGf/PhDv9k//pMf6/e/+c6pv348fAjrAAAAcL+SJNHjn31Cj33mcT361KN67KnH9fjnntRTf++zevLXPqPHP/vkvnZTCG6yvbDOpTH4SlX1Tt1WpaIK4dLczJSXmerBT6HfOHoxtLlMDGLC+Muqd9N+ttTNY7NurllxUVls8PnOy9ZWeQywwvOZldcTQrYkSWRrE4OgcmrkhUbgXgOsqAqlZaYsjs00vogjGsP9U5dOe+pmcdxnaAXm07V9t7drbRrTWeVTmGmqPIZ1TtVQxlbZ2LazMr5QHttrpiqmz3Vspo3fp/FrFtuOpipCa60q1C5r/aPf/rKeeX57ChuLGMKN4y1Dky4Er/VQqdtqVfXh8zRTWBoaeFVfql1UGrYa1Z1VEVtv48hT14bwrYohY77yz0RRZjI+n1p8IayLLb4+jAftt+o4PnQvrAth5V57MXWzKewMwWKmvJwT2gEAAKwJmnXrf85kWPf6P//De37Dr//zPzz114+HD2EdAAAA7leSJHr8MyGse+wzj+uxp8LXxz/7hJ747JN68tee0uOffVKPPfXEvhGZqQttN9cUU5vO1rlsU6wESqFlFZpnIXAJt4XwahyR2Cwq1UM5jYgMIy5nodVWbGpmNuPzFXJ1GNc4K8J+M1vnU2A4jrIcW3wujl50TWiNudrIrYy8DHvbrIraKI+jKAtfhAZZHOOZ2nncpTab2oJFmanw4f2G9++mHX17od1KGBj3sBU+VT2Uqoaw0251ROZqiBiadHPN7TxcNwZ+4/jPsGfPTk2+osw0t/Pp8xtbe3mZT02/uveqh2oax+kao2ZRxfGZfl+bcG9HXSbfWS12mqn1FgK5+fT+QhBYhcBuZQxm7sfwMVfduymwC02/ENgN243aZa26Dz8bw8MwbtXKteF9Fj6Gd3amIu4KXOzUhHYAAACnjGbd+p9jhnWv6ZGPt/ru7du6/doj+/7fmvs88tqJBB+EdThrCOsAAABwv8IYzCf06FOP69NPPqZHx7DuM0/o0afCeMxPP/mYHn3y8SmwWw3tQmAVRkC2Cx/bclkIa6pcSZLID+XUmDLVOCbRyDWhTVX3Xs2iVNWHnWapTeOutBD6marYG7cYG3KbxcW4G85OTayxfTeGdWObbAyfDoZ14/O6LoznHHevFXHsYwjuwnPPzKbS2BS0seVl6tCuG5alti+3IYjrQ3Nu9d9p/VBN40LHttyw02rn2YW6rVrtstobn9k62WYv2EzHwM7Np9GbYUyli7vnbNwZODbtzBQ6jtdrFn5qLI4NNlsbZWUIK+uhmsZgjs837hTMy1TtVqV26adRn0WVxaDTTCM3x89uHGdZ+FTGh2AzL1PlMaT1rVW/1ajuS1WxYdhttZNmUatsx/GYLu73G8ecxlZjHXb/1X0p3zpCOwAAgFNCs279T/Ld9uNHhG8fV/vdMWzYH9Z9vP3uqQYfhHU4awjrAAAAcL/GsC6MwXxMn35y3F/3+HTbpx7b0P/86Uf0qcc/rcc+84Qe/+yTevSpx/XIYxvTv+ttPdNp65luGgM5tsqSJJHv3BS62SaEdOMePB/DHd9ZNYtKrrHTPrqwey40saqhCi04X2huZrqYP61ZcVH1EEYnjk2/1T179VDFIMrG4MqojG2+0KwLzbS691NI5sY9bFMIlk1jPvMyUxYVVR73v5Xqll7Ly526rUb1olLZlfIxtBsDyyRJphGbti5UD6WahZ/2yLkm7vKL17aNlalDy3BmNuO+vWwK0samW+FzpfGz2tspGNqBRZmqbEMw2G81UxtvfF+hnbgXhobGW62qL6fw0NZGZWfVbVXqt2vVfTmFduNjxt9L+J2OIaKJYyuzqRGY2XnYXde5OEbUyHdOzbJWu9Wo22rU73RTA3AM68adeaGNaeJIzELNUKpbVnJNGPVJaAcAAHCyaNat/5madd9tP74Swn1X7cc/rva731X78f0h3iOPPKKPt6/dcXuSJHrktZMJPgjrcNYQ1gEAAOB+JUkSRl8+9bgee+oxPTYFdnstu08/8ageeexT+uSjn9KnHv90bNk9rkefelwbTzyqRx791PTvb2OgVPh8Cs3GcKjweQjDYrNrDINMNQZpLjS0VpphtjYx4LNhh5ydaTO/qKfTL2hWbMr4LO57y1T1dgoHV/+dsmxDu24Mt8bW3DQqMoZjhR8bf+MoyXwKxwqfyzZGpjHKfWgOusaE/XODVzWUqnov3zu5Ntxe+NAAHEc4TqFdbOT5zk4Nub1gaq9xWHZl/Cz2xlIWPrQJm9hiLHwWdu1VeQzRzPT5G19MO+qm569NDENTpTZV6rLwfZnF95/L1OF9r7bwwr5AF8dSxvfehn10zaKaxpuGxptX3YexoOG9h1bguGsvtAXTKbys+r1GYjV41YtaZRuDwrjHbvxnxNbhdlcbdYPTsN2EUHZRhdBv2ez73Z/2f74AAMD/39655MaRXFE0t6X1qFhfSoaH3YBY+Yl/ZOSniqJa3Qa8By5Gi9HkevBeRGbJ7YFNq5tqvAQOBIkqVmSlODq69wp/ZSRZ9/qvKifofl/WsWz4kvDmPyTrnjfrBN4fg8g64UdDZJ0gCIIgCILwUqqqwv7dgVnSdPt3BxzeUR3m7p5k3eawxfa0w/a0x/ZIv+7vj0Xu7e73y6adqUuajCRbUzbU3GhXQqwtaS8ddKFzHW+gqVKpmRN0ta5xVmfUmsTdWT2gdU0Rc4Qpki2fKYwOLlnUpubaSE3ycHBUg8lnykIonz2nBQ1XaKqwbLPlukpKmuny/lTd2KA2ZzyoD6jNGbV+QLuSdiTsLGyvSlKtpNk4cZd36cIU4AZK/2VJFidX5GgWWllw5u9le3sj8Ehatry/15V0oQ4KraH0W8tJQl2Sh5R0o008rqCcPOanAcM1Ik6u7NORSIzo58hbfMtO4bfiNm/cZaHokoEfPcLo0c8B47XHeO3x8dcZcXYlTaiDghs8wuTRXyKlJweq4yRZSvK1MY1IO0EQBEEQhO+IJOte/3WTrFuScbeyrlRlvkn4IrJOEP5rRNYJgiAIgiAIL4Vk3WqvjoXd4f0Jx/drWbfFZk/CbnfaY39/wO60xx1Lu/z6/TtK4q3TTbU+F0GWt9XUSjD1c4Di3bXWtmgtVycakkatrUsNZBY9yud6SpJPWX5R+kwVCZQF2zptZ/u8fdct0o4rHV1yN2myjtNsimWdS7Zs9Jmoy5nWEsolStllGdmYM87qA36uf8LP9U84qw/o3CKSKM1Gn4fhClHtaRfPxA42mVKr2c8R4zXh+suIMLpVAs6s7p+23Yrw41rMfD76PKgyM4wWYaR7ygKvtQ1qfebEYldqJnN9aX5tnEisZTlpooZmaUmfZU5Q6lKRmdN9JSFXpKIpQjRXlvZcFZouHtdfBjx+HljYtatK1Sw46f473/K2Hwli5To42bUTBEEQBEH4Lkiy7vVfRdY9b6pvZN0Gz1+/gvbq3lCy7nmDN28ogffvW3f5739/RNYJPxoi6wRBEARBEISXUlUVtsc9peVYwi3C7ojj307Yvzvi7rjD3WFLHFnYcQ0mCbsdtscddvcHqsNkyaV5t44qMruyFUeJLpJqLSfvGtOgtUsKT7N0o9rEutQoZhpzRusamKhRVRXSJSJOHpYrLUm46SKF+skjzaGcJ0upsz5zzaNDHEMRba2tmWYl9XI1JMm1znXl/VpLoqgtaTdV6jcbc0ZtHtDYM0yvSppOr3b2FhHZcXUkJdL8YIuYGh8HXJ5GPH6eeI+P9+5iV7b2OkeSz0QFnwxsVEUCZqkWRo9+iohzQJx8qcnM+3OtbdBybWiWb2tZl5NzWYSR2OzKM7I91Zf6waKfA/zg+bW8V8jCLycR/eB5y06VVKJyDXRoWfbpsvFnooXmM5IspWfjkuPnxpKXn4WJJAr71bP/s3/uBEEQBEEQ/gpIsu71XytZt07ILbKOEnfP2EgNpiD8z4isEwRBEARBEF5KVVUrCbfD3XFXknN73rBb79PtTgdK1d0fsL8/YnvcYbO/w92RJN72tKP0WjSlGrFz3U0loettSVI1pkGtG9S6xkP3AbU+F+GTZdu6wlF5qnBsbI3G1iWhRhWMFuM1IU6hCLSGxU3eqbORElvzx3gj7TpPgs32BnFaCTt+7ToVaLmKMldmjo+piKZ1NWZOBSrfQkcF0yu4pGF7BcVfy7WOOnQ3/3G1NpRGbExTNulsr7iC0pWkHaXjXEmtZfkVBnOziZcFY67sJEHmEKaAdO0R51B28mgnTpV7zek8HTp+rSmpuZxovE1Rnune/LJTSH/flPfwo4dLrvw7cMmWlF6RfjlBxzWpLhmu3aS9PqpXzZWoNddgctIvdJzIbG4qS10yCKMTaScIgiAIgvB/QJJ1r/+qqO7yGZubZNzy++eU8OWryDpBeAki6wRBEARBEISXkmswt+tKy9MB29Nhqbu8P3Dy7sBfz7WXB2yPO7zdbfB2t8HdcYuqqjA/jYijv60+ZOnW3tQ/Kk631UXykIBrV4Il12UquOTQuQa1fkBjzuhcU8SLS8semu1JyGSptuzK6SL85qceYbQ3ommplCSxpIOG5lRel3fcYhZLrqTEbG/hc8ItdNC+K3WNlPCq0fkGtldl+02FFq2rYThhl8Vd5xrUvPeXt/88b8V1NgtFjTA6xIkSa7l2s79EjB9T2ZLrZ49+zqm5XN2pivjLKbl0SQgsKD0/N9sbWBZ6/RQwXGORZlmwkeisyyZda+uVtKMUYW0e+FnqsoGXP+P8/nQflIozfM6Wn6/taa8vb/kN14CPv04YHiPCaMv7tiw9w+T5e5lSh6pcB8MJy5zU84NFGLxIO0EQBEEQhBcgybrXf1WbZ96k2zyv5MLvyLsbWZewuanAJNYS73sisk740RBZJwiCIAiCILyUqqpw//f3OLw/lirM3X1O0x2wuyeJt1kl77ZrTvS1t/s7bPZ3qKpqJbJyBaUtskUHhdqQnFvETs2JurpIulwrSdWYDZRvWYa1RWwp3xXJlqsjH7qHVQLOIk4e6RLg0rKNZqJCPztcPw1IF5ZUq027/D110DB9TtCpIvxos83wfS71kDYt9+iSYWGZN9uWZFr+M5cM4uxhYofO1qj1A+/Z1dC+QZyWMy2Sbdmby4KL0mf03pdPI3775xPmjwnDNSBMbrVn16x27VpYFmdxCgiTR3/t0V97uMHRpmCkasl10lAHRVt1fDaq+KxLdWVja9ikvjm3YpHawUTa3yvnDizORjqnHwzSHJBmXzb8FoGqEUaLx88jPv3jgvkpIV1YRnKlaH4+trelCtUNliQki1sTO34GS8pv/ez/7J9JQRAEQRCEHwVJ1r3+619XSWWvdKFRMQAAAABJRU5ErkJggg==;" parent="1" vertex="1">
          <mxGeometry x="40" y="50" width="1771" height="472" as="geometry" />
        </mxCell>
        <mxCell id="Ifqd4glUJlzsPcNajbn5-1" value="BmQuickCutSettingDialog" style="swimlane;fontStyle=1;align=center;verticalAlign=top;childLayout=stackLayout;horizontal=1;startSize=26;horizontalStack=0;resizeParent=1;resizeParentMax=0;resizeLast=0;collapsible=1;marginBottom=0;" vertex="1" collapsed="1" parent="1">
          <mxGeometry x="40" y="570" width="180" height="26" as="geometry">
            <mxRectangle x="750" y="193" width="180" height="104" as="alternateBounds" />
          </mxGeometry>
        </mxCell>
        <mxCell id="Ifqd4glUJlzsPcNajbn5-2" value="+ func1() : bool" style="text;strokeColor=none;fillColor=none;align=left;verticalAlign=top;spacingLeft=4;spacingRight=4;overflow=hidden;rotatable=0;points=[[0,0.5],[1,0.5]];portConstraint=eastwest;" vertex="1" parent="Ifqd4glUJlzsPcNajbn5-1">
          <mxGeometry y="26" width="180" height="26" as="geometry" />
        </mxCell>
        <mxCell id="Ifqd4glUJlzsPcNajbn5-3" value="+ func2() : bool" style="text;strokeColor=none;fillColor=none;align=left;verticalAlign=top;spacingLeft=4;spacingRight=4;overflow=hidden;rotatable=0;points=[[0,0.5],[1,0.5]];portConstraint=eastwest;" vertex="1" parent="Ifqd4glUJlzsPcNajbn5-1">
          <mxGeometry y="52" width="180" height="26" as="geometry" />
        </mxCell>
        <mxCell id="Ifqd4glUJlzsPcNajbn5-4" value="..." style="text;strokeColor=none;fillColor=none;align=left;verticalAlign=top;spacingLeft=4;spacingRight=4;overflow=hidden;rotatable=0;points=[[0,0.5],[1,0.5]];portConstraint=eastwest;" vertex="1" parent="Ifqd4glUJlzsPcNajbn5-1">
          <mxGeometry y="78" width="180" height="26" as="geometry" />
        </mxCell>
        <mxCell id="Ifqd4glUJlzsPcNajbn5-5" value="命令入口" style="swimlane;fontStyle=1;align=center;verticalAlign=top;childLayout=stackLayout;horizontal=1;startSize=26;horizontalStack=0;resizeParent=1;resizeParentMax=0;resizeLast=0;collapsible=1;marginBottom=0;" vertex="1" collapsed="1" parent="1">
          <mxGeometry x="40" y="10" width="180" height="26" as="geometry">
            <mxRectangle x="750" y="193" width="180" height="104" as="alternateBounds" />
          </mxGeometry>
        </mxCell>
        <mxCell id="Ifqd4glUJlzsPcNajbn5-6" value="+ func1() : bool" style="text;strokeColor=none;fillColor=none;align=left;verticalAlign=top;spacingLeft=4;spacingRight=4;overflow=hidden;rotatable=0;points=[[0,0.5],[1,0.5]];portConstraint=eastwest;" vertex="1" parent="Ifqd4glUJlzsPcNajbn5-5">
          <mxGeometry y="26" width="180" height="26" as="geometry" />
        </mxCell>
        <mxCell id="Ifqd4glUJlzsPcNajbn5-7" value="+ func2() : bool" style="text;strokeColor=none;fillColor=none;align=left;verticalAlign=top;spacingLeft=4;spacingRight=4;overflow=hidden;rotatable=0;points=[[0,0.5],[1,0.5]];portConstraint=eastwest;" vertex="1" parent="Ifqd4glUJlzsPcNajbn5-5">
          <mxGeometry y="52" width="180" height="26" as="geometry" />
        </mxCell>
        <mxCell id="Ifqd4glUJlzsPcNajbn5-8" value="..." style="text;strokeColor=none;fillColor=none;align=left;verticalAlign=top;spacingLeft=4;spacingRight=4;overflow=hidden;rotatable=0;points=[[0,0.5],[1,0.5]];portConstraint=eastwest;" vertex="1" parent="Ifqd4glUJlzsPcNajbn5-5">
          <mxGeometry y="78" width="180" height="26" as="geometry" />
        </mxCell>
        <mxCell id="Ifqd4glUJlzsPcNajbn5-10" value="" style="shape=image;verticalLabelPosition=bottom;labelBackgroundColor=#ffffff;verticalAlign=top;aspect=fixed;imageAspect=0;image=data:image/png,iVBORw0KGgoAAAANSUhEUgAAAYwAAAJxCAYAAABR3YUQAAAgAElEQVR4nO29XY/syHmgyf/jS164WX1tqG72Tm0MeCWoibypmeu2xrvDkTFQeyTTTtvYj14sFrn2ri1Ic2yLtqurZXnktD22e06f/jyH3VJ1q/uUPdiVABsaDFAGEqN+94JfEcEIMpiVH2Tm8wIPzqlMJslMRsbDN4LJN3jjjTcEAABgiOCNN96QH3zyDwAAAFYQBgAAeIEwAADAC4QBAABeIAwAAPACYQAAgBcIAwAAvEAYAADgBcIAAAAvEAYAAHiBMAAAwItJCCMIglGP9z0/9Bp1ORd96+tb1mfdfa8DAJgykxHGth2zz2Pm+szlXP8fet5nv4a2BwCwa1588UV59Ed/an3u0R/9qbz44otbrffowjA70qHO1nxtnwiGtjX0/zHr6NsvMgwAOCS1FExpuB735ejCMBnTybrk4nvmv01nvk2mgCAA4NCYcnioLH7wyQSE4TNU5DP0ZC677dCSSyp96/QVEVkGABySWhK/9hu/9WBZ/OCTCQjjB5+4x/l9s4u+ddjWN7Tc0La2fX8AAIemlsWv/fpvPnhdOxXGtmfXruGkoaGlsZ3/tkNS5v75ZApkFgBwbJoM49d/8zQyDNuZ/5hOWf3X/L9red/Hbc/3SWgX2wIA2AUnOYfxg0+2v2LJtoyvMLbJMMy/9yEnAICHctJXSQ1lFz5DReZjru1sM0fRN4w29J7G7B8AwC442d9h/OATvUPednhpm05/zGttf4/JZny3BQAwVSYjDPPfvgxjzESz73I+k9KuTMN3qIvJbwCYM5MQBgAATB+EAQAAXiAMAADwAmEAAIAXCAMAALxAGAAA4AXCAAAALxAGAAB4gTAAAMALhAEAAF4gDAAA8EITxmazAQAAcIIwAADAC4QBAABeIAwAAPACYQAAgBcIAwAAvEAYAADgBcIAAAAvEAYAAHiBMAAAwAuEAQAAXiAMAADwYiLCKCSLEsk7j0WSFeZjgQRBS5Ik2t8t5ms3UmSRJLn+d5QV+r4UmUTW9Q2vHwDglJmGMIpMoiQ3HrcJw7J8nkhQ/b8VQv3armB6SfJy3VEmRe9+9OwbAMCJMg1h5EaWEGVSjBHGrjOMKJM8i5xiSXKEAQDnxySEkSdK59vIoM0O1E5eX2YzkGFs2mW0rKEHMgwAACvHF0aRSRTonXt51m8MK1WdeJ4YWUTmmWHUInDMUTRSGlguCBLJEQYAnCHewvj44493Sr3eIoskSZJmaKjIkqoj1jvlIouaTGJMhpEngT7s1MkgjKGqLTOMXX8+AACHZqfC2L2x6qujckmiTIrmX1dHrXTqnUny7hyF+ngjDYswOkNiUSJJz2Q5cxgAcGrMQBgtdabRdvh+wih6J6cdrzWHnFSBDGQYpVwQBgCcFrMSRnm1k9oJDwjDMk/hyjC05ywZRrPOvstqm7kS5jAA4PSYjTDa+YlckiDoXura0HPl1KZ/SEqb/7AJo55s54d7AHCGzEIYnUnpTc8wkzlvMdS5R5kUyqR4SSklpwBcQtEgwwCA02IWwgAAgOODMAAAwAuEAQAAXiAMAADwAmEAAIAXCAMAALxAGAAA4AXCAAAALxAGAAB4gTAAAMALhAEAAF4gDAAA8AJhAACAFwgDAAC8QBgAAOAFwgAAAC8QBgAAeHF0YTx+/FheeeUVuby8lBdeeEEuLy/llVdekcePHx/9wwHYFto1nCJHE8Y///M/y9e+9jV5+eWX5fXXX5cf//jHstls5Mc//rG8/vrr8vLLL8vXvvY1ub+/H15fp8TqZqCMai5J/Zy6XF2ze1NIFiWSV8s7y8EatLXC9de3j5klW9v64806koT64DPmaO26yCRS20iRSZTkjrZoW8bVrruvLbJIaevl32YJ5e3q3vO9mTpHE8ZXv/pV+frXvy6ff/652OLzzz+Xb3zjG/LVr351eH22L9bGXgu8RBHGZtN+CfNEoizvNFDrF8JA+xI1X0R1mZ4a3+ryyntp10l98Llw9HZddZB54tFBa+3U0lk32+8TioUkt4jN1fG79qfvdZbl+d4chKMI46233pIvf/nLzZfou9/9rrz00kvywgsvyEsvvSTf/e53m+e+/OUvy1tvvdW/TqWxuL8o5ZfMfN59ZtJ+KUdnGLmxziiTYkzD50xplpjtui923a5dr3NlGJ3vQb4RVTibPKnabXe/vDOMKJO857uT5MZ3gu/N5DmKMH7pl35Jrq+vRUTke9/7noRh2KGWxvX1tbzyyivOdekNP5EksTcQrVHbvgxFJkkUSRTpX4bOax2oX6I8cQ0NmENX5jIbzpRmjNquh2K37fqmaVvdduozJKWvzzUU1ScR67pHZhh8b6bPUYTxC7/wC/KP//iPIiLy0ksvWYXx0ksviYjIT37yE/nCF77Qv05L6u5O25UvY3MGU/2/msPIk0Bbn48wGsyxZG1eJJKsULa3MTuGSLKMM6W5orbrodhHu96o7XdoyKhuq0an3K47l8Rcvn5NlEnhmKPQhmV7liuFpHTofG9mwVGEEYZh88V54YUXrMJ44YUXRERks9nICy+80L/OOh1Nsv6x1iiTYpNLkiTlHEbVmNXMQxuGMs5Y+oemyjOyIoskSdT1JFWD1c921PVzpnQaqO16KHbfrvX2q7cfY86upunM9WzCHHLabCyisky+d+bxRmQYfG/mwcwzDGUyrmfMNk/aM5+yMVm+QI4JRr0BDlFvu16/uh3PsdittgtTYHcZxvh2vdlsOsJon1faYZ5IkLzWWX/fyZD63WnWbxFGZ0gpSiTpEV07h8H3Zi4cRRivvPKKvP766yIi8md/9mdWYbzxxhsiIvL666/3jvVuNpvO2UVguwKq+jvP1AY5cPVHM+HYl/JazvQ27RmTfqntcMP3+eLCNFHb9VDsul3Xy9vn6XRhaJ3+th2ubcipd/9s8xXd7wTfm2lzFGE8fvxYXn75ZfnZz34mIiJvvPGGfPGLX5Sf//mfly9+8YuNLH72s5/Jyy+/PPxjJzM70MZNbRN+eoahnRltckm013SzET1jyewTinki3WvMexq+ZbyVM6V5YbZrV+yrXdcZQEcu2omRZWLZeYWR40Qo3/T/HqTvstrmxMuYw1DfM9+byXK032G8+uqr8o1vfGPwevVXX311eH2d4aR6wi6RrDrz0BuQKoFc8lzPNMxx4PbvcjntksIiay9FVF5T7k+5H+4J854rQDY0/DlytHZddbRRNOKMemSG0Zk/sAmjzmC2+OEe35vpczRh3N/fa7+I/clPfiKbzUZ+8pOfjPpFbH21RHNm5Tj70iftKmGoZ1bGWVS9zjyp1zX846Ukt1/F4kyXbb/i9TzTg2lyrHbdZskeP7JLcm395ratHa5TXg4B9N5poabNHvjezIPJ3EvqC1/4grzwwgvyhS98gXvuwOyhXcMpcnRhAADAPEAYAADgBcIAAAAvEAYAAHiBMAAAwAuEAQAAXiAMAADwAmEAAIAXCAMAALxAGAAA4MVRhPErry4BABqO3RHCxIVBEAQhIg8WxqNHj2AAhEEQxEnELoTx/PlzcIAwCII4mUAYCANhEAThFQgDYYwWhq2u9xAEQcw/EAbC2EoYY2J4+WtZXCzlVkTkdikX9f+vF3KxvBWRW1leLOS6Wvp2eeFRTjKQxbVrewRBbBMIA2FMSxgirTSuF3KxvJblxYUsb9ulb5cXlUjccbu8GBDGtSyCYHA9BEG0MUdhrOJAgiCWle35dSphEEq6Vv6OV/L8+VrS0PEahLF7Ydzd3cnl5aXc3Nz0Ln+9MLKCxcKZMdSd+8MyjFtZXgQSBAtZLBAGQYyJuQljnYYShKmsV3H5r3W5lcSVNEq52FCkgjB2K4xaFldXV3J/fz8smOuFBGqGISJyu5TFxYVcXHQzhd1kGKWsEAZB+Md8hLGWNAwkiFftY6vYnWnUzzfLk2EcRBimLIaWF1GyjIul3NYZQDMkdVs+r/T+PsLwCYRBEONiFsJYxRIEgcQry3PrVMIgkDBdt1Jp/jaFgzB2Joybmxu5vLyUu7u75nGbLOrl3XEti8WinMO4XcqFOq/QTHpXw1CVNOrsoX9oqp0kd24ZYRDEqJi6MFZxIEGcNiKwE0taD1VVggnTdc9wVIWarSCMccK4v7+Xq6urRhouWdTLu6Ls/I1Jb5FymMoxpuQz3OQTCIMgxsXUhWFjnYaWDELPSNTn12lYZScriZ3zHghjlDBERJOGSxbq8ra4Xi7ltrlKqp6QdlBZ4npxIcule3K8wZSQuW2EQRCj4hyEsYqDrjC0+Q2EsZUwRFppuGRhLm8PPcO4XqiX0V7LQhte6mYj14v2iqjb5XJwKEp9HcIgCP+YhTCqOYw+NIGowtCuptKF0SsdhOEnDJ8YJ4xrub7WMw21U9cnvMvl1OGp29ulLAL9dxvOrSIMghgVsxDGyAyjfn6tzms8fy7qpDiX1U5RGNcL63BSPbldXjFVZxsDw1f80psgdh4nJ4xVLEEQShg6rqo6MCcrDO4lRRDnF5MXhsdwlDostYrrzGE9cGUVV0ltLQyCIM4zJi+MmYMwCII4mUAYCANhEAThFQgDYSAMgiC8AmEgDIRBEIRXIAyEgTAIgvCKXQgD+jk5YXBZLUGcZzxUGHA4JiWMMUGJVoI4jUAY8+E8hCGy/xKt6i/KPW8jQhAEwpgTsxLGdEu0GnK6XnjVziAIAmHMidkIYy4lWquNe9+skCDOPRDGfJiFMOZUorXaOBkGQXgGwpgPkxLGKZRolWp7TI4ThF8gjPkwKWHMvURrKRuGoghiTCCM+TApYYjMt0SrOcRFEIRf8MM9fri3tTBEZlii9XYpF8xZEMRWwa1BuDXIg4ThE5Mq0Xptz0xIOAhiOBAGwpiOMCjRShCTDoSBMLYSBveSIojzC4SBMEYLgyCI8wyEgTAQBkEQXjFlYaziQIIglpXluXUaet1OKAgCCeKVPF+nEgahpOtqHetUwnglz5+vJQ3t20AYCIMgCCWmKox1GkoQprJexeW/Pq8zpdBhJXH1fCkjG32vRxgEQZxxTE8Ya0nDKiuoH1vFzkyjk5Gor3OxipXlyDAQBkEQXjEpYaxiCYJA4pUrewgkTNc9r3V1/JWErK9HGAiDIAivmIowyuwgbTp2O7Gk9VCVTSZhKPFqLWnoGFZaxRKm657hKGXOA2G4hcFltQRxnjEVYdhYp6E7o2hYSVxlDus0rLKT8rFOx18JQ11/s7zvPAnC2MMP95SyrM470JpFjyy/ytvFTQkJgnDHvIWhz3e0AlCyFnWYyhDGKg66wtDmNxDGwYVhRlkrw7j3kyoM5f8IgyD2G5MSRjWH0Ufb4XezCFMYzToVGTSv166+0oUxnNUgjMGGtV2JVuUeUGZtDP1FbmE0JV65dTlB7DomJQzvDKPMLEw5WIVhWd+6Mw+yVuZOuKz2wcIYXaLVyDCuF65bk5v3j1rIdedmgmU2ot/xliCIXcQ8heFe3imMVSxBEEpoEc0+OTthbFOi1WsOw6jEF5Ql9+RCqZPRDkndyvICYRDErmMywvAYjuoOS/kLYxXXmcN64EosrpLyEsbuSrSKZQ5DqYFRlWnVbms+OIdxK8sLal4QxK5jMsI4UU5WGLsq0SoiXWEotbzr4kjXC0uGYfxfm8NwTKITBLF9IAyEsZUwRHZTolVE2qGl4EKWt2qFvfb/alU9v6ukzEp9BEE8NBAGwthaGCIPL9FaXyVVdvTXslAKH6mS6AijFszSIYyeS3UJgtguEAbCeJAwfMJ3eVMQ7Y/z6kns+iop4/Jb248vHD/uIwhi+0AYCGMywqjjdnlRdfZlxtE/J+Eq1cpVUgSx69iFMKCfkxQG95IiiPOLhwoDDsdkhEEQxHkGwpgPCIMgiKMGwpgPCIMgiKMGwpgPCIMgiKMGwpgPCIMgiKMGwpgPCIMgiKMGwpgPCIMgiKMGwpgPCIMgiKMGP9zjh3sIgyAIr+DWINwaBGEQBOEVCANhIAyCILwCYSAMhEEQhFcgDISBMAiC8AqEgTAQBkEQXjFvYawkbsofxLJ6/lyer1MJg1DSdbXMOpUwXsnz52tJw2oZhIEwCIIYH7MQxiq21MdRJGEVSSmNVWx7XSCBKhWEgTAIghiOuQgjTNfbiSZeVX+TYSAMgiAeFKcljLWkYZlBdJdHGAiDIIgHxVyEYR9WatEEUQnGPRxV0WQfCANhEAQxGHMRRpiuZZ2GEq/sWYX2uJGRtK9bSRymsibDQBgEQYyPOQmjnMzWh5XWadjNFAxhrOKgKwxtfgNhIAyCIAZjDsLQMgv1stlVbL9SShXGKpagySp0YWw1kY4wCII415i+MNaShsYlsOtUwp7Latdp2AxhBdoQVDspzmW1CIMgiJExeWFoGUI1BFVNWJeT2kbHv4olCEIJzXmNI4EwCII4mZi6MFZxKOl66HLZQJFILRA1m+AqKYRBEMSDY+rCmDsIgyCIkwmEgTAQBkEQXoEwEAbCIAjCKxAGwkAYBEF4BcJAGAiDIAiv2IUwoB+EQRDEScRDhQGHA2EQBHHUQBjzAWEQBHHUQBjzAWEQBHHUQBjz4WjCAACoOXZHCBMWBgAAzA+EAQAAXiAMAADwAmEAAIAXCAMAALxAGAAA4AXCAAAALxAGAAB4sXNhAADA6bIzYQAAwHmDMAAAwAuEAQAAXiAMAADwAmEAAIAXCAMAALxAGAAA4AXCAAAALxAGAAB4cTRhhGE4mmN/WAAA58xRhTEmvIVRZBJFmRTNY7kk9d/mc3kiQRB0iTIp8kSCJJfNppAsSiRv1ldIFkWSFe028ySQJHfvU5FF1bqOf8ABALblhIVRSBZZZKBKYbORzSaXJKiE0EhC/b8hjGr9WVJKo8iinnVXy7v2QQWhAMDEmbQw7u7u5PLyUm5ubjyE0RVEedbfk2FsqudHCKPIIomyQvIkkiSpZVE/n0sSqNlGLkkUWbapkCcSZcXRGwIAwBCTFUYti6urK7m/v/fOMIosas/wXUNOQSL5QAaSJDZhlEKohdEOS5WPB4E5VBVJVtTPuUEYADAHJikMUxZjhqTyRBni6RVG9Ro16xjIMIoskiiyZRgWMTRDTEqGY4MMAwBmwtHqYYRhKDc3N3J5eSl3d3e9svAWRpGVHXqUSZ5FkiS2zlgfYsoT5QxfFYZl+Twr12tmGOU8RvV3UViGvMZlGMe+Jz4AnCc7FcYuTRWGodzf38vV1VUjDZcsfIWRJ4EkmZEx9GUYpiC0v5WOXskQCk0Y7RBVRxwdadgeBwCYBpMXhoho0nDJwlsYWSaFdWJ7Y8w5uCmyaPAS2c4cRnUlVCkO87Jb5jAAYPrMQhiqNFyyGDOH0c5JDHTUlVSaOQ+PZTebVhjl9qqJcyOjaYSj/Z1LYgx35QmX0wLANJiNMHxi+x/u1fMUuWRJz+RzhW+GoT1eD32ZQsiM7RlDZH3bAQA4JOctDKVzbjpm9Ud0yWv9P+xzZBmaMByi0Pal58d5WnZDpgEAR2TywuBeUgAA02DSwgAAgOmAMAAAwAuEAQAAXiAMAADwAmEAAIAXCAMAALxAGAAA4AXCAAAALxAGAAB4gTAAAMALhAEAAF5MWhjcSwpoB8dkoHQwx3fmjD++kxfGXu5Wu9lIU6diRJ0Lk7J6nlL726RzG3XlAJnPuSr/1XfVNWqHuyv06eVlN9b1q8+Xn8OUb6O+33awcZTdraoz+n4uY9ZhLeDlOG7qaxzr7yuulSeuNqyUFU709pZnkbUt7quI176Pb5FFzbEpHO9t6DiPWscJH98zFoaF3Fbfu6cB1Z25SypNwxmQU/P6XBJbaVirMOpGEUmWucrMKrdFb9ahn1WUt2LP2u1OkEMKo69YVm+nMnIdnZopjiqQ2vMe69fWWbXN3LzdvrUt2eq4KG1lxHdjcsd3o3T49ftQ3o/vicGYdZzq8Z29MOoa3zc3N6MaklcVPWuWYVTQ29gyja4gmop6rgyjPoCjhGGjJ8NQG/tGkZ65vYmxz3agf776MWo7gXxYqKPXUR6nzHG2p3YQelsts0qziFdvZ6CWBHa1pebEx68K5VyOb5MNNJ1xe9Zdf37l5+suz7zdOk7z+M5aGHUjqsu2btNRmMYe+ttVyKhuVOZBNkuzdkkkH8hAkqTbCPQGNfD6vG5IWdOwbMNp2v5OiH22g+1PHHa5Dg8hdYYslA6hI3vL+opMoiCR3Dm8adv+NDKMB3/Pm+9LIXledN5vnpRZ+tD7234dp3N8ZysMsxGJbDkUMfAFV1POIAgkitxnDM1zZmpZDwk5haEcdNsZv6URFHkikZmimg3NfK9JUjacPJEgiCSySCZJeobYjsRB2sFDs6sR62jakmU4w1n+t+5QzAqNFiG9lkSSJN12GkWR9eRDa5sTm8PY2fHVhn0D42QrkqwYmAAesY7XTvj4Tl4YNzc3cnl5KXd3d72NaNuGNCrDGEORSRRFElUHKEls69I7d22Cy9oBGTKoBJMNneGqE+eW9zRUo/zYHKIdHHoOoz0O/UMEndLBSptQJ2JNbEMababpGt40O83DXSW1v+ObS1J/RkUmUTNspHzug6LfYh0nenwnL4z7+3u5urpqGpOrEe07w2g+4N7l9c4/yYyMoe81piDMMfGthjRsaW0uSZRIMjSEtcPjOIt2oHT2Sa7PNSVZoXxB1TagjFmPWsfGeTLSlbcy3Nibqeodl7me5izXlq3Wy1ZnuU7h7Ukeez++ls/YfSLoOL6j1nG6x3fywhARrTG5GtEuGtJwRtFnZCNbyDIpHFdG5Im7IfY3ru7+NhIYkpjjKimv7RyZvbeD5kuaSFJ39sZJg9exGLOOqq25LtE0Owh9jFuZ5HS0qXq8vZ3bMtuB0l6rdpp33uPhMox9Hd9R80uOs/mt1nGix3cWwlAbk6sRje8oPH+HoZ25+wujaQQjrkzwapjK9oev4rGPY7apsnoGMt3fY+yzHZjXsbsusewTxlbr8D4DVdpS07nkTYZYX2UzPMxodkLd4dCyrXsOoczk+JqfSXsZaub4HdOO1nGix3c2wvCJg2QY3nLZWC+dLQ9+LlkybPb+s1pVEmMyjOr/yr6q28kT95nWsThkO9h6DmPMOpqJzW5n49WhKO3V1fa66zFPdmwdijkscdgMYx/HVz0W6uXk5f+Nk0aPDMNrHSd8fM9UGL7Zhfkhb5lhKAe+M8kVBBIkr43fn85VG75zGLYGOf5M65AcWhhjM4yx62iHFzzaoTLm3Bni6FxqaVw0Yawrygq93SmZrfbbnIH9mfPxrd/jQ6/46lvHKR/fyQuDe8z4YAjDuIxuSpfI0g6A4ztfJi0MAACYDggDAAC8QBgAAOAFwgAAAC8QBgAAeIEwAADAC4QBAABeIAwAAPACYQAAgBcIAwAAvEAYAADgBcIAAAAvJi0Mbkp2LA5zW2vawZQ43jHn+E4Re3uYvDD2edtjtWau67a/g7e0tlbVc9xu3Lqsrfau8RrLLYdtRVXM5+13qm23p9VteGBx+H2y99tfd+qg1MfPcWzM4+iorMgxn8jxtR7jklG3Onccl1H9yMzbw1kLQzvYdYNSGparrkHnYNoOiq3+hK2B9nU2RmPpK8yjrbOqlZGr2+opDt/90ihnF4NFpfbP4YRRVy0zhWFUIzSOme24qJ8Zx/yIx3eoRrbxeXY6/CiRpK5kZxwXtW8Y04/MuT3MXhh1sfibm5tRDalpGM2BaI2rVZ/rKS6kH7xIkqSnOIlWrzeRbKCQSV2aUV1/VnQL+fQeaLVso6uxNIWY/MrIHqoTOVQ70D/j8riUpTcVYbi+sOYXslmn2WY45sc6vg2jMoxCqYipfJ4WYWzXj8y3Pfz5nIVRN6K6/u+2GUaSF5Lnep3r5oufDZxtaZXvhhuojqtSnkInHe2romdZX5FJFCSSWxuLa/vzyjAe3A7U91hkEkVR+ZlVX7Yo0gVQ13Uu1Opm3h0ux/zgx7f+3HzOzKtl2w65Xxhqm9iuH5lXe5hthmE2IpHthiL0MqeBpaH0TwY6xwktXzq1FKPZ6AZr/Xp0Tq8l9iwniiJJEktjMSrzTWE8+1jtYMwchnrM62PY1EIvckki/RhzzI98fB3fx/oY6I/rZVWT3F1mtTl2I/qR12beHiYvjJubG7m8vJS7u7veRjS+IeWS1GYuMomalFFJywbrF/cs6zpLax7vT/86tb+V9auTbLYvQPfMZ9M7ftm9ImJ6V0ntrx0oXxpFAkEjDMvxiKLymESZZFoH0J6NamegHPOjHd++MX9rRpgnzdBPZw7TOvm8RT8y4/YweWHc39/L1dVV05hcjWjrMw/jg3afWakHVxlLzKoJqzwp/z908HvOdPSzC+XMpppM623sylUa6nqaRm9pLM2y1RfB+eU6sjz21w7az1g746uPqWXSW3ved0iKYz6B73kuiTkfWQ/VaJ9/IkmiCkPpOBVh9PUVg1dezbg9TF4YIqI1Jlcj2uuZh8PkeVZ1GmPmMKrHXZffdbapndUo46nN++iOr+tptDnWqZxdVPuedxrq9DKMfbUD7Vgp/7rOxPRj3j0efevnmB/v+KonbVqHbjynfr4+wtiqH5lxe5iFMNTG5GpED8kw6knMvLlCxqMTqNlSGLZ96B2/3Gya8fH6jNh2Hbb9LKV7hUY7IVc3KM/0+AjsvR1ox0S9hNaYHFQ7juaqkkgijzFujvlxjm97hZLrvUaS5fqQjyqBMRmGdz8y4/YwG2H4xLYZRv2Bt43AmOjqm8sYI4xmCKPbkLwai7Lu9kB2r6fuP1OwNRZzCGKaGcY+2oF5rJoroMzPSvvStmdlQZLZf3RVX2nDMT/+8TUYGjLqZBiODtTMMLz6kZm3h7MVxjYNyYo2PNGXkibyb5vUcWjZsnGpV9ho6WvnMrqgk2KbDVu7wkKZ3NU6Sp/0+Agc4sShGeM1viS2DqE85okkkT4xbjsjyznmR/6eD/y2wNHpPqSv6Htu7tPDGeEAACAASURBVO1h8sLgHjNAOzhtOL7zYdLCAACA6YAwAADAC4QBAABeIAwAAPACYQAAgBcIAwAAvEAYAADgBcIAAAAvEAYAAHixc2EAAMDpsjNhAADAeYMwAADAC4QBAABeIAwAAPACYQAAgBcIAwAAvEAYAADgBcIAAAAvEAYAAHhxNGFQ6xcAYF4cVRhjwlsYRSZRlEnRPJZLUv9tPpcnEgRBlyiTIk8kSHLZbArJokTyZn2FZFEkWeGxL3kiUVa020pyy3K5JEHgeA4AYDqcsDAKySKLDFQpbDZSdtiVENRO3UsYVWdvI8lLYSRJuT/V+ooskijLlNep6wYAmC6TFsbd3Z1cXl7Kzc2NhzC6gkjyjfRmGJvqeU9h5IlLOhVFJpGaKVQZRp4EEkWRBFFUPa/sEwDATJisMGpZXF1dyf39vXeGUWRR25G7hpyCRPKBDCRJthiScgij/r+W1SAMAJgZkxSGKYsxQ1JNFlANCbmFUb1GzTpGD0kZ2ISRJBKZMsotQ1kIBAAmztHqYYRhKDc3N3J5eSl3d3e9svAWRpFJFEUSRZnkWSRJopzhN+gCyJNgYGLaJoy6ozfE4cwwqtc0z7UZRpFF1dDZ/j5rAAAfdiqMXZoqDEO5v7+Xq6urRhouWfgKI08CSTIjY+jLMExBaH8rWUC1vnYOY8yQVC5ZVM1hNFdD9QsDAODQTF4YIqJJwyULb2FkmRTWie2N5InfpbDDHfgWQ1L18Fh9lVT9mNf2AAD2zyyEoUrDJYsxcxjtnETPJa/WrMHnEtyNPGjSW5FE/TjCAIApMBth+MT2P9yr5ylyyZLhieVdZximfMrfYLSvRxgAMAXOWxhKZ910yEXWXrGUvNb/wz5LlnGTRZYf2+mX53Yn2XXU7KL+G2EAwLGZvDC4lxQAwDSYtDAAAGA6IAwAAPACYQAAgBcIAwAAvEAYAADgBcIAAAAvEAYAAHiBMAAAwAuEAQAAXiAMAADwAmEAAIAXkxYG95IC2sHpw/GdD5MXxl7uVtuQS6LdVbbEeXdY87bojkJM6nrU+ha2O9xyF9optION1HcUVo+Hevyc5LYSv91lbOvJE47/YY7vfr/nanXMY3+W++ashWHeRnxsQ9JqffdsI6iq6UVZoXUwdBjHbwdexbGa291b5DFSGH3bO9e2MP/vuSIMtTyCT/uZGWcsDPWso+ivexF9Rb6iPR9JlrsbRpIrGUXTUZTbUiVRdh5+ZWHPGZ92UNd6v7m5Gd2hmKV5x4jc1RlpmHXglUqO5XbsZ8Dnwn6P7z6/5931RUkykI3Mm7MVRnt20a2O5zzzyJOqFGuuVcSzr1f9u5A8L8TsGPIkkizzOEM9c4baQd2Z1OV7xwvDLf0oK/QzTkuFxAeX97WW+T0f9nl8D/I9V9vH4PDVvDlTYai1vMsG4ZpjUIcK8qT7pTbHubWz06bhtdtsG2jdgM9n/HMf7cDsTMaeOJTHzJ5hWIVhYO10zDkLxxwG7Pv4HuZ7XqhVNp1DUqcxknCmwqgPdDZiGEBpfOrwgjGU0HY+uST1ckUmUaA8fkJjmocgDEO5ubmRy8tLubu76+1MthPGwHxCjzCsw1c9wmAO4/DHd+/f8yhqSj7XQ1KZdhJSSBadxpDjmQrDHHvsOzMoD3SRRe34ZJ40Z6Dlv0nTOMyzVb3heox3g7Ud3N/fy9XVVdOpuDqT7YShHjOlc9Dqu9vk3h3m2Gw23YlwQxhJrk+SJllx1nXb93d89/89L58zJr1redRt4IQyzDMVhoUik6hzUNszgzzLpDDHKpvlleWqhvTgq2+g0w7UTsXVmTy0HdQXJ3gtrw05tnRODJp5j0SSWhjqRCnCONjx3fn3PKvmOtQ5riSXTTP/4TipmCnnLQzlbCPJ+htSs3zVMKxjoZ1UtKTIIgmiTPIskijLnBNpMNwO6k7F1ZmMbwcDV84YZ6B62xmeEDXHw11XYCGMfR3fzQG+560wtJOFarundFzPVBjVGZ7545yhjmLwCgj1DEQ/g9xojcnopMgwjtQObO3ClmEYj+dJzyRm9weAKsxhHPL47v973mwnqjITYzgzyU5LGmcqDAsDqaq7IenDC32dP3MYU2wH6vFrj7V5Zqn+2LI7DGW0gZ7Ohgzj0MfXYC/f81IYmTrcqL2+OkE8gRPDyQuDe8wA7eC04fjOh0kLAwAApgPCAAAALxAGAAB4gTAAAMALhAEAAF4gDAAA8AJhAACAFwgDAAC8QBgAAOAFwgAAAC8QBgAAeIEwAADAi0kLg5uSAe0AYDpMXhh7u+2xWUbT8rx5O2K1ELyrmPy53qJ6n+yzHZj1KaIsr251bdzO2ji23VvVK1XXPNpSvW3aC8yJ8xXGZuAL6/iSN9KohaOIhw5gP+y/XoJaD0GvjaDXblbbjllAyU8YFFCCOTN7YdTF4m9ubrboKKoveVNz2V1zu8komi9+W1lPK8dJ+dWdc5BSvZa6zeUxtQijKrCTDdRtbzIQ7eSjFUvbdlyV/gCmxayFUcuirv+707HrngwjyQvJ80LML3qeRJJlA0NdsPN28FBh6NlDKYwk0Ws3q8t0h6MKyZJIoiiSxDj2fRmFrVa0uywowPGZrTBMWYztKOovcltj2zjDswkjT5QvdTnGrXc0kWRFz9AE7LwdPFwY3bmKdnioPqaqMMrlNWEUmSRZJkmUSJJYjr3j5ANgbkxeGDc3N3J5eSl3d3e9stjmzFKf+DaGBTpf8lyS+u8ik6gZelI6HDqFvbBPYZRDjZFkRX3SYJ/PqIVRZGUmoQqjHLYqTxTyLOkOSTKHASfC5IVxf38vV1dXjTRcsni4MDb6WLbHWWF3aAL2wf6EUWYQUeQSRnsSUQsjz8o5r+a4N22myiy1+ZC2nanCSHIlCy0ySbKiM6kOMEUmLwwR0aThksVOhGE8pwpj1Fg0mcZe2sE+Mox22MkQRp5IlCRN569dFdW0m3bIyj6ZrbSlIJAgKOdGklwfBosQBsyEWQhDlYZLFrsShioG1xe4yCIJokzyLJIoyyThyqi9sn9hBE2HnheZRJX09SvgusLIk/p3G+bVUW2byBN9Mtt16TXCgDkwG2HsvKOoOwbPzl4VSS2Zdkiq0DsNMoz5tINOhrFpjm3b0auZxKYURpJIpF3cYFzsoF0gYW9HzGHA3DhbYbRnjEXnDNF3iIk5jMOw/x/umbRzF00Hb8ige9z9ro4jw4A5M3lhcA8hoB0ATINJCwMAAKYDwgAAAC8QBgAAeIEwAADAC4QBAABeIAwAAPACYQAAgBcIAwAAvEAYAADgxc6FAQAAp8vOhAEAAOcNwgAAAC8QBgAAeIEwAADAC4QBAABeIAwAAPACYQAAgBcIAwAAvEAYAADgBcIAAAAvpiGMIpMoyqRoHsslqf82n8sTCYKgS5RJkScSJLlsNoVkUSK5ur5A/XtbyvVmWSRBEElWHP8AAgAciokJo5AssshAlcJmI5oAGkmo/+8Thmsb5fNFFkmUFY59NdcLAHA+HFkY3c47yTfSm2Fsquc9hZEnhhiSzNLpqyIoJIvK7KHIIre8NIEBAJw+k8gwiixqO1/XkFOQSD6QgSSJb4bRJ4xNKakklyKLKoE5lgMAOCMmIYwmC0jyAWFUr1Gzjq2GpAaEUVFkkSRZJlGTUSSSRD5DVwAAp8fR6mE06y4yiaJIoiiTPIskSRJLR6x36HkStMuownAsXwrDd0iqlUE3w9hInkSSFV3BHPs+9gAAD2WnwtiHsfIkKM/ivYakLILQ/lbE0JlE988wSilU+5arssnLxxKbpAAA5ss8hJFlUlgnttuOe2gdtkxAZ8yQVL1sPfldTcAr8xrBTi7RBQCYDrMQxmazUeYklLP5nquSOlc+DV7BNEIYTcZSX6nVzTD0549/oAEAHsoMhdE+Vs5T5JIlw53y+AzDPeRVDkOpk9qtGIosquZAIsnyMuM49kEGANgF8xOGMn/RCKBQrlJKXuv/YZ8ly7ipf0vRCMnnKqlu9lDKItf2qV9SAADzYT7CAACAo4IwAADAC4QBAABeIAwAAPACYQAAgBcIAwAAvEAYAADgBcIAAAAvEAYAAHiBMAAAwAuEAQAAXiAMAADwAmEAAIAXRxHGr7y6BABoOHZHCBMXBkEQhIg8WBiPHj2CARAGQRBHj5/+9KcPQmQ3wnj+/Dk4QBgEQUwiEMb0QRgEQUwiEMb0OUlhhGE4GoIgjhsIY/qcrDDGxLjlb2V5cSHL24GllhdyoS10LYuLpdhfdi2LYCHXlnUszAfLJ+RCXZf599DyPdssn1pIYN2wT8zv87ldXjTv93Z5Ya3XvvXHQXgHwpg+CGOL5Xs723qJhdlpujvEbufZPu7TIV4vAuvrXcsrO2kXg/K4qwMNgj4pzOzzEUUa14ty2frf6vUIY/9xrsJYxYEEQSwr2/PrVMIglHSt/B2v5PnztaSh4zUIY/fCuLu7k8vLS7m5uelf/nYpF9YOs+cstOqwlov+5csOSe1cb2V50fOai1+WX74wOu1r9/6V/Z++/GLhEkDQysMiEr3TVrKImX8+jRCrnbtelNtSJVF+hsNZE/Gw6JPBl770pZMUxjoNJQhTWa/i8l/rciuJK2mUcrGhSAVh7FYYtSyurq7k/v5+fIahnH3aontGfCvLxYVcXFzIwnhde5bcHcpxnkFfLyS4WMqtXMvC0ZFpr22WH34f151OvFy/Uxi2mNvn0/x9K9fXpqSqbGjZ/56Ih0efLGpORxhrScNAgnjVPraK3ZlG/XyzPBnGQYRhymJoeWv0dojXsgiMIZDbpSyWS1lcLGSxUDvuclmzYx46Q79eBB0BqOPw9TJ9y/e+D0eG0T70EGFM7/PRhVpus/te++ZYiF3EkCyGpCEyE2GsYgmCQOKV5bl1KmEQSJiuW6k0f5vCQRg7E8bNzY1cXl7K3d1d87hNFvXyo6KnQ7xdlmfK6vPleH3Z4VwvF52O9na57B3vNzbedqJtj9eZM2jnCGzLD7wPizD0cfxbWV70zFHM7fOpl7tdykXg8bkRe4mhzGJIGiLTF8YqDiSI00YEdmJJ66GqSjBhuu4ZjqpQsxWEMU4Y9/f3cnV11UjDJYt6eXcMjJs34+fl2ef1cim3aod5u5SLxbU0k7rN37Z1L+TaOSdQdni3ywu5WCzKSd3rRTMOX/7bdrZ1h3i7vJDFctkuv+wf069ebBGGmlGowpj352M94o5JdmK/4RLG0GNzEoaNdRpaMgg9I1GfX6dhlZ2sJHbOeyCMUcIQEU0aLlmoy3vHwBh9+7w6dNMOafRedaN1mM2DTQd9vaw61Xp4pNPB1pO25XY7y/u8j0YYynCMdoY+cBXUnD6fgYl360UBxF7Cd6L73IWxioOuMLT5DYSxlTBEWmm4ZGEu7xWeHWJ5Oed15wz8YrnUJ2OVs+bFsr9DbJavOkTrmP7FUpYLY/1jhWFeSaTt026EMZnPp3nZhQQXS7leXnT3gdh7nM1ltdUcRh+aQFRhaFdT6cLolQ7C8BOGT+xFGPWwSPugPml6vZDgYiH/QhmuEZGey1TtHaI93B2oz/vo/pDNkMPQ9mf0+agZRr3P7ZCUMSRGhrHXOBthjMww6ufX6rzG8+eiTopzWe1EhDFqyKLupKwdpudVNgNDLs0y1l9uOzq3Zvmh+QZDDNcL5TF9/eqP2mb/+XQ2wRzGMQJhuLKRUMLQcVXVgTlZYXAvKYKYV5yFMDyGo9RhqVVcZw7rgSurAuYwthUGQRDzi7MQxsxBGARBTCKePHmyNQgDYSAMgjijQBjTB2EQBDGJQBjTB2EQBDGJQBjTB2EQBDGJmIowoJ+TEwaX1RLE/GIKwoDDMSlhjAlKtJq7s02J1vJHgWaNicH1DP0qvGd/qIR3WoEwzoszEYbI7EqQ7rFE64Nv3jdSGH3bQx7zDoRxXsxKGJRo7enQx5Rola4cx5z5e92GQ9sf211thwVOTD8QxnkxG2FQotX9PrYp0Wo766/vcntRvrjNcJQ74frcd2qre1URswyEcV7MQhiUaPV4HyNLtLoyDKswjLBK0dz+VnMqxNwCYZwXkxIGJVoPV6LVlWEob9ApDOvwVY8wmMM43UAY58WkhEGJ1kOVaDWfU+Slvhf77L39ijNTZIYwFtfKBQS3S1ksb93Dd8RsAmGcF5MShgglWo9RovV6MWLy2TG30pkDauY9FrKohWFcPIAw5h9TEMaxfxQ3B05WGCKUaDWX93ofo0q0emZgtqp9HhP25vyLS7YIY/4xFWEc+/YbU+bkheETlGg1Xr11iVZX5mE8fr1oJvnt++7OwJjDON1AGNMHYQwsfxIlSPdYolV/vH29mfloJV2H9r3ncyLDON1AGNPnZIXBvaQIYl6BMKbPSQqDIIj5BcKYPgiDIIhJxKkLYxUHEgSxrCzPrdPQf+g7XsnzdSphEEq6rtaxTiWMV/L8+VrS0L4NhIEwCOJk4qc//emDEJmuMNZpKEGYynoVl//6vM6UQoeVxNXzpYxs9L0eYRAEMdM4TWGsJQ2rrKB+bBU7M41ORqK+zsUqVpYjw0AYBHEGcXLCWMUSBIHEK1f2EEiYrnte6+r4KwlZX48wEAZBnEGckjDK7CBtOnY7saT1UJVNJmEo8WotaegYVlrFEqbrnuEoZc4DYbiFwWW1BDG/OCVh2FinoTujaFhJXGUO6zSsspPysU7HXwlDXX+zvO88CcLY1y+9J1SClBKqxAkGwtDnO1oBKFmLOkxlCGMVB11haPMbCGNav/Q+VAlSSqgSJxgnJ4xqDqOPtsPvZhGmMJp1KjJoXq9dfaULYzirQRiDjdO7RKtMsAQpJVSJE4yTE4Z3hlFmFqYcrMKwrG/dmQdZK3MnXFb7YGGMLdE6pRKk/wclVIkTjfMVhnt5pzBWsQRBKKFFNPvk7ISxTYnWyZUgpYQqcYJxUsLwGI7qDkv5C2MV15nDeuBKLK6S8hLGLku0Tq4EKSVUiROMkxLGiXKywthdidYJliClhCpxgoEwps/JCkNkPyVaJ1GClBKqxAkGwpg+Jy0MkV2UaJ1gCVJKqBInGAhj+py8MHzCf/lplCClhCpxioEwpg/CGFx+wiVIKaFKnFBMRRjQz0kKg3tJEcS8YgrCgMMxGWEQBDG/QBjnBcIgCGLrQBjnBcIgCGLrQBjnBcIgCGLrQBjnBcIgCGLrQBjnBcIgCGLrQBjnxWSEwWW1BDG/QBjnxaSEMSbGLe+4IZ+5VKfwkHJDvk7Yf4Ht/LGb+UvunrvN1usZqtDn/lHd8Psdvf4H3g596EeAD3u/xLFiCsI49o/i5gDCGJ1hDFeQM2tQ9AnDVdXOVxjXi2CwKl7TidZ3mlXuODtcgW/4/Y5a/4gSs90SsfqdePfzfoljxFSEcezbb0yZsxWGd4lW9RbgAyyulddcLGU5UI2u7MBG3Cjw4pflly+MTvXavX/NjQmV25fXd6tVO83y/k9VBz3y/Y5ef/nAyBKzihB7KgJuvT/EJAJhTJ+zFMbYEq2d6Jz16tHNGG5lubiQi4sLWRiva7OI7tCPM8Nobjt+LQuPO8q2f9/K9bUpqSobWva8p4H3O2b93ZsTDpeYbbMK1/BYN+t40PsljhIIY/qcnTC2KdHaid4OtLxR34Xe88tiuZTFxUIWC3VYSr2pX9txDmUwthsEmrc414ZdtLoW5Ta75Vx75liGhDF2/SNLzGrbaW/Z2wzLWetzPOT9EkcJhDF9TlYYuyzR2omeDvR2WWYS6vPlfEbZQV0vF52O8Ha59C9qpEqmNUJnjqGdQ7mWhdrJBsrjnfWMf79brX9kiVn9/SjrcN3C/aHvlzhKIIzpc7LC2F2JVs8CRFXndb1cyq3awd4u5WJxLc2kd/O3bd0LuXbOIZQd6O3yQi4Wi/Ls+nrRjNuX/y6UcX/3GL1rkn2b9zt+/TK6xKxon5myjYuufLfaH2ISgTBWEjffsVhWz5/L83UqYRBKuq6WWacSxit5/nwtaVgtgzCmW6JVRLyGaMrn1aGVdgik9yodS+eodqDXy0o6Ss1sXUD1JG+53b6CRh3cVZGc73er9Y8sMduRX/P+lWziIftDTCLORhir2NEmXQJYSVxJYxW72rMiFYSxnTBEdlGi1RKewiiv7rnunLFfLJf6ZLWSVSyW/cJollfG721n/0tLhnG7vJDgYinXy4vuPjzk/Y5d/5gSs51t6xP9fdnD1u+XOEqckzDCdL2daOJV9TcZxl6E4RN7EUY9bNQ+qE+yXi8kuFjIvzCHdwaGpJpleids1UxDFdVt9fILJQPaXYbhu37/ErOGKB2lY68X6mW0O3i/xFECYZisJQ3LttpdHmFMUhijhjiUq4C6HaznVTkDQ1LNMkNlVHs6w76z8q3e74j1GxuT4RKzyn4NvCfX88xhzCPOSRhD3y1NEJVg3MNRFU32gTBGC4N7SRHEvOKchBGma1mnocQre1ahPW5kJO3rVhKHqazJMLhbLUGcW5ybMMrJbH1YaZ2G3UzBEMYqDrrC0OY3EAbCIIgTj3MRhpZZqJfNrmL7lVKqMFaxBE1WoQtjq4l0hEEQxBzjPISxljQ0LoFdpxL2XFa7TsNmCCvQhqDaSXEuq0UYBHFWcRbC0DKEagiqmrAuJ7WNjn8VSxCEEprzGkcCYRAEMYkwBfClL33JKgbX4yLTF8YqDiVdD10uGygSqQWiZhNcJYUwCOLMwyYGUw62x+YkjLlzksLgslqCmF+4hFELwvwbYSCMnQljTOxbGEMlRfddotX9Qz9H5boHllAdG8f+fCjpOo1wDT+ZzHoOY+YgjC2W740tSoruvUSrq8N0iWFMCdWxMcXPRyjpOoVwicBHFggDYexVGN4lWre43feYkqL7LtGq3+rjQhYLd4Gm7t1klU/BWRFv3p8PJV2nE30yGJIFwkAYexPGg0u0DoZ/SdGDlGh1FRuy3PNquxKqY2Nin0/zNyVdjxlTuawW+jkrYeykRKtvDJYUPUyJVtvy9f5ZO8FtS6iOjYl8PpR0nUZMQRhwOCYljL2WaPUI/5KiByjR2lm+3SdfYQyVUB0bk/p8KOk6iUAY58WkhLG7Eq1bhHdJ0f2XaL1dXpRFmerll/1j+tWLx5VQnfHnY989bod+jEAY58WkhCGyxxKtAzGmpGgndl2i1Vxe39GBDMOvhOrYmNTnQ0nXyQTCOC8mIwyCIM4zEMZ8OJowAABqjt0RwoSFAQAA8wNhAACAFwgDAAC8QBgAAOAFwgAAAC8QBgAAeIEwAADAC4QBsEPmcMdRgG1BGAA7ZF+1GRAGTAGEAbBDEAacMggDYIf4CONv3/9Yfud7T+V/e/19+c7ffCQ/+PhThAGzAGEA7JAhYXz66Wfyje+8K1//w7dk+Z3H8ku/959l/c4PEQbMgqMIIwzD0Rz7gwLwwSaMT370mfzNex/LX7/7sXznP30kv/mdt+T/+1Eh//BxIY/feV++/ofvyN+9Xz7//kc/QhgwWY4mjDHxMGEUkkWRZEX/ckUWSZQVymO5JFEmhXX5XJIgkdyyjiS3LF9kEqnrMv/2XP927z2RLIskCIY/A1+c7/Ngn890MYXx6Wefybf/qpD/+U/flt/64yfyv1w/kcfvfiBPnz6VDz54Kh8VT+UP1u/Kb+RP5Lf++Im8+gdP5EnxiXz22WcIAybHGQhjIz4dcJ6YHapbGF25tI/7dIh5Elhfb9/fQrLIVhyofN61L5vmtQ8UT54Y6x9e5/4/n+miCuOTTz+Tb/7lh/L7//EdeX77TJ7fPpPPfvhMnj19Kne3z+Tvb5/JDz98Kj/88Knc3Rby97eFfFg8lVf/8G35i3duEQZMjskKoy7PenNzM04YRSaRZzW2pvOqOqws6V++7MR8OvOK6CvyFe35SLLcvX9JXnaW2uNJZumg1U67zaCKLOp/z1EmxdA+a8uW29M68DwZ+Dz3+/kc+wszhCqMt4tPZPF/vinvvPeBfPiszCiePX0qb779vvybbz2Wr/z+W/K7f/a2PHv6VJ5W/JePC/nao8fyzb8sEAZMjkkKw6zl/eAMo3OWrNM9Iy4kSyKJokgS43XtWXJ3qMt5Bp0nVQecS+IYGtJfa3a6fcLYlMJLcsv2d5BhaOtxDe+12znM5zNdVGH84ONP5f/6/jP5D3/xjnz4rBTCm2+/L7/2p0/lzc/+q7z79/9Nfu/Nf5D/+8/fkR98WMrk44+eyf/4zcfy509+iDBgckxOGKYsdjIk1SuMXJLAGAIpMkmyTJIokSRRh6XKZZuz4YGz+rqDyxP9jH2zqV6X5M3feRJsLwxlnUmmnKFHiSSRz9CV/+fY7LMyjNSu+1Cfz3Qx5zA++vhT+Xf/4S15+70P5O72mfybbz2WNz/9r/L555+LiMh//9nn8qs3H8vNX78tHxVP5Xe++0R+7y+eySefMocB0+Nowri5uZHLy0u5u7vrlcW+hVFkZSahPl/OZ5RzGHmWdM54iywbcdaudKJNB9idU9HnUNTXDA1JtR227Sy8XO/DM43OHE+TFdg+031/PtPFFMaPPv1Msvxd+bsn78vdbSH/+puP5cndf2va9uefi/zq6x/Ln/7lE/moeCr/7tuP5V3LlVIIA6bA0YRxf38vV1dXjTRcshgvjHFj9HmWSaEKpRreaSa9m79t604kd86ZKGf2SVKejeeJJHk7vFIoMmo7dv31PhlG3ZmWZ+F6B5wngSRJop2tj0b7DEpK0Zoy3ffnc/wvzBCmMN784GP5948ey7OnT+X2w6fyu3/2tvw/b/6D/PeffS6ffy7y6T/+s3z9T57Kk3fekw+fPZW/e/K+/Ovff0ve+fAThAGT46hDUqo0XLLY/5CU+rw67t5eJdU7HGLpTNUOPc8q6dRn4x0BVct1MgxfYdTL1vuui64cEtpxdtG8n1ySIRHt5fOZLqow3vvwR/JL33wib77TTno/ffqB/O733pFfvb6VV1//WH71jz+QCpEHjgAAFBRJREFUv3vyvjx79lQ+ePpUnt8W8uqjx/IH/+lDhAGT4+hzGLU0XLI4pDDKq4HyToYSZZk+GaucNSdZf4fYLK+M99uynWxbYTTzCrXguhmG/vxDPzt9Yto6N7L3z2e6qMIofvgj+Z++/UQev/OBfFi0V0L9oHgqN3/9tvzxXz6RJ++8J8+etc/9v58U8m+/9aZ8+68QBkyPowvDJw4ijHpYpHnc6GDzRIIokV80Ljl1X8Zr7xDt+2BKwf93GHX2o008q51vkpWZR1523J3LdvtIXtP3K0/E9gNATUoH+Xymizkk9faHn8hv5m/L3zx5X/624oMPPpDi2dOGt9/7QP7myfvy5tvvy+9972355rqQj4z7SyEMmAInJ4xRHWLdSVmF4nlGPjDk0izTWZd6RVE74ducYTfL+1wl1d1X7SqjqtN+yFVGrRTsz5tXNe3r85k6tluD/Odnn8j/evO+/MafvCvZH78rf/SX78kPPyyHoD4qnsqvf+eJ/Nb1e/Ibf/Ku/M5/fCqf/OgzJr1hknAvKYAd4rr54KeffiaffvqZvPvRj+RXvv1E/vbJ+/L4nfflf79+S765LuSzz8rnzVuCIAyYEtytFmCH+Nze/Nt/Vciv/dHb8uv5u/Kbf/KevOe44SDCgKmBMAB2CAWU4JRBGAA7BGHAKYMwAHbIo0eP9sax3xsAwgAAAC8QBgAAeIEwAADAC4QBAABeIAwAAPACYQAAgBcIAwAAvEAYADtin7/BANg3Pm0cYQDsiEeP9vMrb4B9gzAADgzCgLkyaWFwe3M4RRAGzJXJC+NwFffUOt1uuqVG+wooqRXx9HVYixSZBYIGKsypxYisJUvNYkhNmVZ9Pe5a5Pb93+6zTSTLImslvnMDYcBcQRgjO8i8UzPaLQxrHeuNvzDK2uE9JWM3ijTqaoBKVcCOCBRh9FUcbF/jXwLW9V43zWvnUTr1ECAMmCuzF8bd3Z1cXl7Kzc3NOGE4a0j3dKBVh54NlHdtamYPdrZ1CdivyFe056va2j3702QUjQD02t2tFBTBaRlGK7r2Ne0+d4SSZAMlYNsMzZXtdEreniluYawlDQOJV+1j6zSUIF71f5FXsYTpenAZ23pWsb69oeX9WEsahpKu+5dbp6Gx3yuJw1TW1uVXEgexrCzrsO7/OpVQXZf5t2U99ftdp6G13Vq3c2bMWhi1LK6uruT+/v7hGYa1ZndL9yy6kCyJJIoiSYzXtVlEd6jLmWHkSdWZ5pI4hm7M15Z/F5LnpqSqbCgr39NWNcw70huoGV7V5e6+PzIMFVMYq3jEsbF14iOF0be9plNUlnd1oEHQJwV7B6+/b/P1bmF05TJOGKs4GPyMGmnUn6fyuTrFembMVhimLHYyJNUrjFySwBgiKjJJskySKJEkUc+ay2WbbGHgrFvLCIyzb3Weol6m6YwbwbTbbDvqWlTKkJljDsPNSGEo+5xkSoYUJZJEPkNX54EtwzA7zzEdlKszdQlD7Zjb7RgdvCXD0LejZBHrVEJP4TXvqerQ0wFZlttT963MwpyvCf+l/Cvt+VDSlXv/4pUixEao5bbUY1BKdjhrOnUmL4ybmxu5vLyUu7u7XlnsWxhFVmYS6vPlfEbZIedZ0skIiiwbcVatSEYdNjLmVNo5lFySerkikyhQHu+sp31/4+cwfIekWhnYMqhyv8k0NhuXMNydWZiu9TPmVeyXjShS8M5gwlS+3lm+7CidwnAIqk9iXcmtJY3LKx1j43VtFtHdpjPDWMXV+19J7OjozdeWf69ltTIlVQk99cjkZkZfW5ilMO7v7+Xq6qqRhksW44UxMK9gDM/kWSaFKpRq+KWZC2j+tq07kdw5Z6KceSdJOemdJ808RflvK6PupHvL4Nm7IYwkV7KPIpOk6ezV/ffPMOp9a9atiCtPAkmSsRnOaTImw7AKY6DjazpMNUMYOyfhyDDa7TxEGCuJA2OIaJ1KnKYSh7HEsfo+y2VNcQ1lMKu4Faa6/+p70rK4RjDtNrvvtW+OZb74ymIWwhARTRouWex/SEp9Xp2XsE0eW9CE0u1w86ySjtKB6wKqJ6PbTtn7rLFeT540EkjMTj0ILNnBmCGpelljKEyZ1wh2conu/BmTYagdqksY1uGrHmGMncOwb2ctadgzR9EjjHVa/W5Keb4UZtkhr9K4I6J1mvbOh9iEpA4z2eZUWkmvJK6XW6cSBsrjnfWcJj6ymI0wVGm4ZHFIYZSXu+adDCXKMn2yWskqkqxfGM3ylTCscx5RJpklwyiySIIokzyLuvtQYc6PuOS2tTCa7KUWaDfD0J8/fsd9LIYzDKVzU+cHrJ2W40zf7LANYcQr5Wx5nUqcrvUMwioMdTuqMAbmFcwhsjSVtbp/61TCeCXN3Erzt23dsayccybl/qzTUMI4LgW7iptMrfy3lVF30t2Q2okNP/lIY2iZ2QjDJw4ijHrYqHnc6ADzRIIokV8M9A7afRmvXRj2fVAzDT0z2GzUISljSMzxYz3XF3ub32HUAmr3of1cyon7rMw8cps4z4uh32HUk65eX3RtKKWnw2vmPWKJa2EoxzF0CkMZjtHO0Aeughq6cqt5XhWebTLegiaUrsBWaSUdRYi6gOpJ7XK7D75K7Yw4W2FsdZmpVSieZ8wDQ1LNMp116cNGfXMAY65AGsowmgyn2R+fq6S6n4V2lVclTeew3ZnQFYbnGbrZQWvDJ11huMbzXZ1xRxjKMFX39yC7EUZ5ueuq8/7DNNUnq5WsIk77hdEsX71n65xHmEpqyTDWaShBmMoqDbv7ANMXBveSglOjP8NwdcSWy16dnVn3B4AqPnMY3R+yWWTVNwHsI4x62Eh9j+rfq1iCMJb/IdCF576M1y4M+z6omYaeadXvuc2AyDBmIQyAU6QrDHV4qO30zDNj9Udk3WEofYjJNkylCmMww9DEVO9TdxhrSECueQy7UDyvQhoYknILw/iMejr/c5zDQBgAE4R7ScFcQRgABwZhwFxBGAAHBmHAXEEYAAcGYcBcQRgABwZhwFxBGAAH5tGjRwCzxaeNIwwAAPACYQAAgBcIAwAAvEAYAADgBcIAAAAvEAYAAHiBMAB2xLEviwR4CD5tnNubA+yIR4/44R7Mk8kL46AV90ailzO1oVas83idWUBpoAKfWpzIWtLVLFbUlFHV1+OuRW7f//GUhZayLJLAUj723EAYMFcQhi+danu2CnQ6rgp4vsIoa4f3V9BrpFHvn7KfHREowth1idb+an/Dn9U5gTBgrsxeGHd3d3J5eSk3NzcjheHqAB3lWTdGB54nAx2uT2dbb+Mr8hXt+ar2dc/6m4yiEYBeW7uVgnJGr2UYbTnV9jXtPneEkmQDJVqLsmZ34c52bJ/pOYIwYK7MWhi1LK6uruT+/v4AQ1J1B9l2jvbn1Syiu6wzw8iTqjPNJXEM3ZivLf8uJM8LMYeQ8iSSLCszjq1qmHekN1DTu6pb3n1/ZBgqCAPmymyFYcrioHMY6pm6MozUDsvkkqjZwsBZt5YRGGff6jxFvUzTGTeC2TTbbDvqWlRtJuGaw3AzUhjKPieZkiFFiSSRz9DVebAPYVjLq2rYa4U7X2eWOB2okd2tAe6uF/78+fOy9KtnfWyzBGyYrqpyrEbJVWMb3TKrPSVgHfvjKmd7rkxeGDc3N3J5eSl3d3e9sjiUMPLEOPPXOm2z48xGnFUrklGHjYxJ53b7uSSqtALl8c56lH0dPYfhOyTVysCWQZX7Taax2exAGJ162EY9a0eHbqtR7SuMVRwM1rhupFHvn7KfnY5X6aBdggmCUNK17T3q73cVl8uZ76V+fKww+mqUn7s8Ji+M+/t7ubq6aqThksVBhFENuaiPFVkkUZQYw0fmnEUieeGak1DOvJOkzFbypJmnKP9t198RlrkvfWfvhjCSXMk+ikySprNX998/w6j3rVm3Iq48CSRJxmY4p0lXGGtJQ4+hQlcHvooHOjg1uxjYVvgv5V9pz4eSrlIJe9bfdPhNh1tuS5VE2QkrHbjljF6X2lrSUFl+nUrYLO8hjEp4aU/nX2Yra8v+tGJp34M9Qzs3Ji8MEdGk4ZLFIYTR6ayb4SjlbN+FRTZqh5tnmRTqVVLa8spySqfsPSdRr6eZqE8kMTv1ILBkB2OGpOpljaEwZV4j2MkluvNnN0NSdadpdKyd59WOtLusM8NYxZWgVhIHtvV3X1v+vZbVat3pYFdxKGlaZhzdM/i2w3cJQ99W+d7iuJRoahFGN6NaSxqXv9WKjUypL6Pok/Yp0PdeZysMVRouWexdGJ3LavWJaevZvZJVJFm/MJrllfkQ22R0ZskwiiySIMokzyKJssw6YW7Oj7h+e7G1MJrspc5auhmG/vzxO+5jsdM5DPXMWBlGajtMdZy/7ViHhlxWcbdzVOcp6mWaTrwRzPNmm3oHH0q6VoaEHBlG9zXPjfdg7mu7XPv6cnlNGOtU4jSVOIwlji2d/og5lVPDVxazEoZPjBHGuDP01/TOMk/E9gM0rVMM9A56MzAkZQrDvt9qpqFnBnVnX/7fGBJz/FjP9X63+R1GLSBt4l+VX5KVmUduE+d5sSthdMbotU5bZ52mI4ZTlA5aHaYxhmTa7a8kVqUVWDp6szO2dND6PIeeIZWyU7Oq7nxGLYx1Wt35QRFGua+lsFZp3M2YznwOw0cWZy2MbWmlYH/evKqpYWBIqlmmIwx92Gho275XIA1lGE2G0+yPz1VS3exB+zwqafb/Ov702YkwtDH9WgqhhKHZGZpzFrGs1q45ibbjDeO4zFZWcdMJl/+26+9OKhv70jdJbhWGbZK7zCDC0CWMVmT1Pq7Scr+b7TefVZXhWD47UxjxSsmG1qnE6drjSrR5MySLWQiDe0nBqbELYXQ662Y4SjnbHyEb9Ux9lVadqtJh2iac630YNQdQr6fpoJXhKi2DMSfqLcJYxaXYmo5en1QvhWEMbXUmsxVhVNKMa2Eo+x2egTB8mLQwAE6R3V9Wq09MW8/ulawiTvuFoQvIMeehTDar61mnoQRhKqs0lDBNnRPm6pVdzZVW2j65ruxSMqR4ZVyJ1RVGeTXZqnNlmLpv5nyN67cXCANhABwcUxjjztD/vd6xr2IJLJ3yKq7P5qszZfNHeD1DUqYw7J2HmmnoZ+K6tIwhMfW3F9rvMIxLVrXtmxmGLid9GUUY9bCaKiH1b8eczznOYSAMgImyu0lvy2SyQvesXemMR2QY7TLG1UoD2x76oV/TaQfqfERXPnbaDKTp4A0ZdF/f88M943Mlw7CDMAAODPeSgrmCMAAODMKAuYIwAA4MwoC5gjAADgzCgLmCMAAODMKAuYIwAA7Mo0ePAGaLTxtHGAAA4AXCAAAALxAGAAB4gTAAAMALhAEAAF4gDAAA8AJhAACAFwgDAAC82LkwAADgdNmZMAAA4LxBGAAA4AXCAAAALxAGAAB4gTAAAMALhAEAAF4gDAAA8AJhAEyIn/vF34YH8K1vfQsewFD7HCWMY1eNmgPH7nBg3vzcL/62ENtFLYx/+qd/gi3YizCOXZ92yiAMeCgIY/tAGAhjViAMeCgIY/tAGAhjViAMeCgIY/tAGAhjViAMeCgIY/tAGAjjoKzTUOKV+thK4jCVNcKAA4Ewtg+EMSdhrFMJ41X79yqWMF0PdtCB+pq+dQeBBBqhpOvn8vz5WtIwljQNte2t4vp5lXLZlXU71XOr2NiOQc/+Igx4KFMRxosvvrjT5Q4RcxfGiy++iDDGScDRQTfrrs/415KGujBW2mNVdhCYcugRhrn/ZBhwBA4tjBdffFFj6HHXOqYQxxCG+TnV+IrB5/8nLoyVxH0CCFNZP19JHIYS9nXGqnBqucSxxGEscdjNMPwkYJNIm+2U21tLGvbtO8KA/XGsDMOURd9zvhw6jpVh2Dr6IYG4XnMsWRxWGKtYwjiuMoayQ17FgTEf0FIOFw2IJQh0YVgyjDgORw0ZuYVR7ksrDMtw1jrtFxzCgB0wBWH0PT7loaopCWMbAZzNkNQ6DSVO6059Leu1etbvGtYZGO6xZRjWOQxTAkqGYBtiCroyWKehhCEZBhyfYwjDJoUpZAxj45jCsGUTNmGYUujL0E5WGKs4lHSlDP9UGUecrrUzc32Se0SG0SuZcj2dbGYVd4VRTWib612lqay0ISkyDDgOxxKGKgXzX/MxhqQelmH4zFWctDD0YaO2w13FoaRpLEGodsjDZ/y2bKMrlOp1q1iCMCzlNCCMcpjMntkwhwFT4FiT3vX/1cd8BTCV7GMOGcbQa88iw1CFsTbEUA/3dOczdpNhlBKwTHzXwmgyg3boynbJ7ZoMAybAMYekfDIM298IY/s5jPPOMMyz8M5ktZ4xlBJZSWzJBNTsYJ1aJreDoJw3qSRgiqrNStpJeG1OxOj8yTBgCkxFGEMZxtCVU8eIqQhjzJDT2WcYeoetnPWv4qbDXaVGx2sMOVmzkTCWOE5lvYoliNOmU2+X1Ye31PkSU0DN84oAyDBgCkx9DsP29zlnGEMdva3jZw7DFIYih04nXQ8T9VwKu4r15+pLdLWhJNektiVzcF1qqz5XCiMdHCbryzIQBjyUqWQY6r+u/9uWO2ZM4Zfe21wldZ7CAIQBD+bYtwaxdf627MN8bgrDUlMSxkPEcB5DUoAw4MEcWxhzjikIY84gDIQBMwNhbB8IA2HMCoQBDwVhbB8IA2HMCoQBDwVhbB8IY4LCgH6O3eHAvEEY2wfCmJgwAGC/IIztA2EgDICz4ud+8bfhAXzrW9+CB2C2x+9///vy/e9/v/kbYQAAgBWEAQAAW4EwAACgQc0qyDAAAMAJwgAAgAeDMAAAzhxXVkGGAQAAGggDAAB2SiMMAACAIf5/+1b7PqJGksIAAAAASUVORK5CYII=;" vertex="1" parent="1">
          <mxGeometry x="40" y="616" width="396" height="625" as="geometry" />
        </mxCell>
      </root>
    </mxGraphModel>
  </diagram>
  <diagram id="hp-nN89RR42H99GRyXRd" name="Class diagram">
    <mxGraphModel dx="981" dy="545" grid="1" gridSize="10" guides="1" tooltips="1" connect="1" arrows="1" fold="1" page="1" pageScale="1" pageWidth="827" pageHeight="1169" math="0" shadow="0">
      <root>
        <mxCell id="4t9aSsUAtkAjxOPeEYDE-0" />
        <mxCell id="4t9aSsUAtkAjxOPeEYDE-1" parent="4t9aSsUAtkAjxOPeEYDE-0" />
        <mxCell id="4t9aSsUAtkAjxOPeEYDE-2" value="ICommand" style="swimlane;fontStyle=3;align=center;verticalAlign=top;childLayout=stackLayout;horizontal=1;startSize=26;horizontalStack=0;resizeParent=1;resizeParentMax=0;resizeLast=0;collapsible=1;marginBottom=0;" parent="4t9aSsUAtkAjxOPeEYDE-1" vertex="1" collapsed="1">
          <mxGeometry x="395" width="90" height="26" as="geometry">
            <mxRectangle x="750" y="100" width="160" height="86" as="alternateBounds" />
          </mxGeometry>
        </mxCell>
        <mxCell id="4t9aSsUAtkAjxOPeEYDE-3" value="+ field: type" style="text;strokeColor=none;fillColor=none;align=left;verticalAlign=top;spacingLeft=4;spacingRight=4;overflow=hidden;rotatable=0;points=[[0,0.5],[1,0.5]];portConstraint=eastwest;" parent="4t9aSsUAtkAjxOPeEYDE-2" vertex="1">
          <mxGeometry y="26" width="90" height="26" as="geometry" />
        </mxCell>
        <mxCell id="4t9aSsUAtkAjxOPeEYDE-4" value="" style="line;strokeWidth=1;fillColor=none;align=left;verticalAlign=middle;spacingTop=-1;spacingLeft=3;spacingRight=3;rotatable=0;labelPosition=right;points=[];portConstraint=eastwest;" parent="4t9aSsUAtkAjxOPeEYDE-2" vertex="1">
          <mxGeometry y="52" width="90" height="8" as="geometry" />
        </mxCell>
        <mxCell id="4t9aSsUAtkAjxOPeEYDE-5" value="+ method(type): type" style="text;strokeColor=none;fillColor=none;align=left;verticalAlign=top;spacingLeft=4;spacingRight=4;overflow=hidden;rotatable=0;points=[[0,0.5],[1,0.5]];portConstraint=eastwest;" parent="4t9aSsUAtkAjxOPeEYDE-2" vertex="1">
          <mxGeometry y="60" width="90" height="26" as="geometry" />
        </mxCell>
        <mxCell id="4t9aSsUAtkAjxOPeEYDE-6" value="BmQuickCutCmd" style="swimlane;fontStyle=1;align=center;verticalAlign=top;childLayout=stackLayout;horizontal=1;startSize=26;horizontalStack=0;resizeParent=1;resizeParentMax=0;resizeLast=0;collapsible=1;marginBottom=0;" parent="4t9aSsUAtkAjxOPeEYDE-1" vertex="1" collapsed="1">
          <mxGeometry x="375" y="180" width="130" height="26" as="geometry">
            <mxRectangle x="200" y="180" width="480" height="130" as="alternateBounds" />
          </mxGeometry>
        </mxCell>
        <mxCell id="4t9aSsUAtkAjxOPeEYDE-9" value="+ ExecuteCommand(const CommandParameters&amp; cmdParams): OwnerPtr&lt;IAction&gt;" style="text;strokeColor=none;fillColor=none;align=left;verticalAlign=top;spacingLeft=4;spacingRight=4;overflow=hidden;rotatable=0;points=[[0,0.5],[1,0.5]];portConstraint=eastwest;" parent="4t9aSsUAtkAjxOPeEYDE-6" vertex="1">
          <mxGeometry y="26" width="130" height="26" as="geometry" />
        </mxCell>
        <mxCell id="4t9aSsUAtkAjxOPeEYDE-10" value="+ IsEnabled() : bool" style="text;strokeColor=none;fillColor=none;align=left;verticalAlign=top;spacingLeft=4;spacingRight=4;overflow=hidden;rotatable=0;points=[[0,0.5],[1,0.5]];portConstraint=eastwest;" parent="4t9aSsUAtkAjxOPeEYDE-6" vertex="1">
          <mxGeometry y="52" width="130" height="26" as="geometry" />
        </mxCell>
        <mxCell id="4t9aSsUAtkAjxOPeEYDE-12" value="+ IsVisible() : bool" style="text;strokeColor=none;fillColor=none;align=left;verticalAlign=top;spacingLeft=4;spacingRight=4;overflow=hidden;rotatable=0;points=[[0,0.5],[1,0.5]];portConstraint=eastwest;" parent="4t9aSsUAtkAjxOPeEYDE-6" vertex="1">
          <mxGeometry y="78" width="130" height="26" as="geometry" />
        </mxCell>
        <mxCell id="4t9aSsUAtkAjxOPeEYDE-11" value="+ ShouldClearSelectionBeforeExecution() : bool" style="text;strokeColor=none;fillColor=none;align=left;verticalAlign=top;spacingLeft=4;spacingRight=4;overflow=hidden;rotatable=0;points=[[0,0.5],[1,0.5]];portConstraint=eastwest;" parent="4t9aSsUAtkAjxOPeEYDE-6" vertex="1">
          <mxGeometry y="104" width="130" height="26" as="geometry" />
        </mxCell>
        <mxCell id="4t9aSsUAtkAjxOPeEYDE-13" value="GbmpCommandBase" style="swimlane;fontStyle=1;align=center;verticalAlign=top;childLayout=stackLayout;horizontal=1;startSize=26;horizontalStack=0;resizeParent=1;resizeParentMax=0;resizeLast=0;collapsible=1;marginBottom=0;" parent="4t9aSsUAtkAjxOPeEYDE-1" vertex="1" collapsed="1">
          <mxGeometry x="355" y="120" width="170" height="26" as="geometry">
            <mxRectangle x="360" y="290" width="160" height="104" as="alternateBounds" />
          </mxGeometry>
        </mxCell>
        <mxCell id="4t9aSsUAtkAjxOPeEYDE-17" value="+ IsEnabled() : bool" style="text;strokeColor=none;fillColor=none;align=left;verticalAlign=top;spacingLeft=4;spacingRight=4;overflow=hidden;rotatable=0;points=[[0,0.5],[1,0.5]];portConstraint=eastwest;" parent="4t9aSsUAtkAjxOPeEYDE-13" vertex="1">
          <mxGeometry y="26" width="170" height="26" as="geometry" />
        </mxCell>
        <mxCell id="4t9aSsUAtkAjxOPeEYDE-26" value="+ IsVisible() : bool" style="text;strokeColor=none;fillColor=none;align=left;verticalAlign=top;spacingLeft=4;spacingRight=4;overflow=hidden;rotatable=0;points=[[0,0.5],[1,0.5]];portConstraint=eastwest;" parent="4t9aSsUAtkAjxOPeEYDE-13" vertex="1">
          <mxGeometry y="52" width="170" height="26" as="geometry" />
        </mxCell>
        <mxCell id="4t9aSsUAtkAjxOPeEYDE-18" value="..." style="text;strokeColor=none;fillColor=none;align=left;verticalAlign=top;spacingLeft=4;spacingRight=4;overflow=hidden;rotatable=0;points=[[0,0.5],[1,0.5]];portConstraint=eastwest;" parent="4t9aSsUAtkAjxOPeEYDE-13" vertex="1">
          <mxGeometry y="78" width="170" height="26" as="geometry" />
        </mxCell>
        <mxCell id="4t9aSsUAtkAjxOPeEYDE-19" value="CommandBase" style="swimlane;fontStyle=1;align=center;verticalAlign=top;childLayout=stackLayout;horizontal=1;startSize=26;horizontalStack=0;resizeParent=1;resizeParentMax=0;resizeLast=0;collapsible=1;marginBottom=0;" parent="4t9aSsUAtkAjxOPeEYDE-1" vertex="1" collapsed="1">
          <mxGeometry x="380" y="60" width="120" height="26" as="geometry">
            <mxRectangle x="210" y="80" width="480" height="190" as="alternateBounds" />
          </mxGeometry>
        </mxCell>
        <mxCell id="4t9aSsUAtkAjxOPeEYDE-20" value="+ field: type" style="text;strokeColor=none;fillColor=none;align=left;verticalAlign=top;spacingLeft=4;spacingRight=4;overflow=hidden;rotatable=0;points=[[0,0.5],[1,0.5]];portConstraint=eastwest;" parent="4t9aSsUAtkAjxOPeEYDE-19" vertex="1">
          <mxGeometry y="26" width="120" height="26" as="geometry" />
        </mxCell>
        <mxCell id="4t9aSsUAtkAjxOPeEYDE-21" value="" style="line;strokeWidth=1;fillColor=none;align=left;verticalAlign=middle;spacingTop=-1;spacingLeft=3;spacingRight=3;rotatable=0;labelPosition=right;points=[];portConstraint=eastwest;" parent="4t9aSsUAtkAjxOPeEYDE-19" vertex="1">
          <mxGeometry y="52" width="120" height="8" as="geometry" />
        </mxCell>
        <mxCell id="4t9aSsUAtkAjxOPeEYDE-22" value="+ GetCommandId(): const std::wstring&amp;" style="text;strokeColor=none;fillColor=none;align=left;verticalAlign=top;spacingLeft=4;spacingRight=4;overflow=hidden;rotatable=0;points=[[0,0.5],[1,0.5]];portConstraint=eastwest;" parent="4t9aSsUAtkAjxOPeEYDE-19" vertex="1">
          <mxGeometry y="60" width="120" height="26" as="geometry" />
        </mxCell>
        <mxCell id="4t9aSsUAtkAjxOPeEYDE-25" value="+ ExecuteCommand(const CommandParameters&amp; cmdParams): OwnerPtr&lt;IAction&gt;" style="text;strokeColor=none;fillColor=none;align=left;verticalAlign=top;spacingLeft=4;spacingRight=4;overflow=hidden;rotatable=0;points=[[0,0.5],[1,0.5]];portConstraint=eastwest;" parent="4t9aSsUAtkAjxOPeEYDE-19" vertex="1">
          <mxGeometry y="86" width="120" height="26" as="geometry" />
        </mxCell>
        <mxCell id="4t9aSsUAtkAjxOPeEYDE-24" value="+ IsEnabled() : bool" style="text;strokeColor=none;fillColor=none;align=left;verticalAlign=top;spacingLeft=4;spacingRight=4;overflow=hidden;rotatable=0;points=[[0,0.5],[1,0.5]];portConstraint=eastwest;" parent="4t9aSsUAtkAjxOPeEYDE-19" vertex="1">
          <mxGeometry y="112" width="120" height="26" as="geometry" />
        </mxCell>
        <mxCell id="4t9aSsUAtkAjxOPeEYDE-23" value="+ IsVisible() : bool" style="text;strokeColor=none;fillColor=none;align=left;verticalAlign=top;spacingLeft=4;spacingRight=4;overflow=hidden;rotatable=0;points=[[0,0.5],[1,0.5]];portConstraint=eastwest;" parent="4t9aSsUAtkAjxOPeEYDE-19" vertex="1">
          <mxGeometry y="138" width="120" height="26" as="geometry" />
        </mxCell>
        <mxCell id="4t9aSsUAtkAjxOPeEYDE-28" value="..." style="text;strokeColor=none;fillColor=none;align=left;verticalAlign=top;spacingLeft=4;spacingRight=4;overflow=hidden;rotatable=0;points=[[0,0.5],[1,0.5]];portConstraint=eastwest;" parent="4t9aSsUAtkAjxOPeEYDE-19" vertex="1">
          <mxGeometry y="164" width="120" height="26" as="geometry" />
        </mxCell>
        <mxCell id="4HSmWIvrit-CgAIsykAb-0" value="BmQuickCutSettingDialog" style="swimlane;fontStyle=1;align=center;verticalAlign=top;childLayout=stackLayout;horizontal=1;startSize=26;horizontalStack=0;resizeParent=1;resizeParentMax=0;resizeLast=0;collapsible=1;marginBottom=0;" vertex="1" collapsed="1" parent="4t9aSsUAtkAjxOPeEYDE-1">
          <mxGeometry x="750" y="193" width="180" height="26" as="geometry">
            <mxRectangle x="750" y="193" width="180" height="104" as="alternateBounds" />
          </mxGeometry>
        </mxCell>
        <mxCell id="4HSmWIvrit-CgAIsykAb-1" value="+ func1() : bool" style="text;strokeColor=none;fillColor=none;align=left;verticalAlign=top;spacingLeft=4;spacingRight=4;overflow=hidden;rotatable=0;points=[[0,0.5],[1,0.5]];portConstraint=eastwest;" vertex="1" parent="4HSmWIvrit-CgAIsykAb-0">
          <mxGeometry y="26" width="180" height="26" as="geometry" />
        </mxCell>
        <mxCell id="4HSmWIvrit-CgAIsykAb-2" value="+ func2() : bool" style="text;strokeColor=none;fillColor=none;align=left;verticalAlign=top;spacingLeft=4;spacingRight=4;overflow=hidden;rotatable=0;points=[[0,0.5],[1,0.5]];portConstraint=eastwest;" vertex="1" parent="4HSmWIvrit-CgAIsykAb-0">
          <mxGeometry y="52" width="180" height="26" as="geometry" />
        </mxCell>
        <mxCell id="4HSmWIvrit-CgAIsykAb-3" value="..." style="text;strokeColor=none;fillColor=none;align=left;verticalAlign=top;spacingLeft=4;spacingRight=4;overflow=hidden;rotatable=0;points=[[0,0.5],[1,0.5]];portConstraint=eastwest;" vertex="1" parent="4HSmWIvrit-CgAIsykAb-0">
          <mxGeometry y="78" width="180" height="26" as="geometry" />
        </mxCell>
        <mxCell id="4HSmWIvrit-CgAIsykAb-4" value="" style="endArrow=block;dashed=1;endFill=0;endSize=12;html=1;rounded=0;entryX=0.5;entryY=1;entryDx=0;entryDy=0;exitX=0.5;exitY=0;exitDx=0;exitDy=0;" edge="1" parent="4t9aSsUAtkAjxOPeEYDE-1" source="4t9aSsUAtkAjxOPeEYDE-19" target="4t9aSsUAtkAjxOPeEYDE-2">
          <mxGeometry width="160" relative="1" as="geometry">
            <mxPoint x="540" y="106" as="sourcePoint" />
            <mxPoint x="700" y="106" as="targetPoint" />
          </mxGeometry>
        </mxCell>
        <mxCell id="4HSmWIvrit-CgAIsykAb-5" value="" style="endArrow=block;dashed=1;endFill=0;endSize=12;html=1;rounded=0;entryX=0.5;entryY=1;entryDx=0;entryDy=0;exitX=0.5;exitY=0;exitDx=0;exitDy=0;" edge="1" parent="4t9aSsUAtkAjxOPeEYDE-1" source="4t9aSsUAtkAjxOPeEYDE-13" target="4t9aSsUAtkAjxOPeEYDE-19">
          <mxGeometry width="160" relative="1" as="geometry">
            <mxPoint x="450" y="90" as="sourcePoint" />
            <mxPoint x="450" y="66" as="targetPoint" />
          </mxGeometry>
        </mxCell>
        <mxCell id="4HSmWIvrit-CgAIsykAb-6" value="" style="endArrow=block;dashed=1;endFill=0;endSize=12;html=1;rounded=0;entryX=0.5;entryY=1;entryDx=0;entryDy=0;exitX=0.5;exitY=0;exitDx=0;exitDy=0;" edge="1" parent="4t9aSsUAtkAjxOPeEYDE-1" source="4t9aSsUAtkAjxOPeEYDE-6" target="4t9aSsUAtkAjxOPeEYDE-13">
          <mxGeometry width="160" relative="1" as="geometry">
            <mxPoint x="439.8" y="180" as="sourcePoint" />
            <mxPoint x="439.8" y="156" as="targetPoint" />
          </mxGeometry>
        </mxCell>
        <mxCell id="4HSmWIvrit-CgAIsykAb-7" value="BmQuickCutUtils" style="swimlane;fontStyle=1;align=center;verticalAlign=top;childLayout=stackLayout;horizontal=1;startSize=26;horizontalStack=0;resizeParent=1;resizeParentMax=0;resizeLast=0;collapsible=1;marginBottom=0;" vertex="1" collapsed="1" parent="4t9aSsUAtkAjxOPeEYDE-1">
          <mxGeometry x="980" y="193" width="150" height="26" as="geometry">
            <mxRectangle x="980" y="193" width="180" height="104" as="alternateBounds" />
          </mxGeometry>
        </mxCell>
        <mxCell id="4HSmWIvrit-CgAIsykAb-8" value="+ func1() : bool" style="text;strokeColor=none;fillColor=none;align=left;verticalAlign=top;spacingLeft=4;spacingRight=4;overflow=hidden;rotatable=0;points=[[0,0.5],[1,0.5]];portConstraint=eastwest;" vertex="1" parent="4HSmWIvrit-CgAIsykAb-7">
          <mxGeometry y="26" width="150" height="26" as="geometry" />
        </mxCell>
        <mxCell id="4HSmWIvrit-CgAIsykAb-9" value="+ func2() : bool" style="text;strokeColor=none;fillColor=none;align=left;verticalAlign=top;spacingLeft=4;spacingRight=4;overflow=hidden;rotatable=0;points=[[0,0.5],[1,0.5]];portConstraint=eastwest;" vertex="1" parent="4HSmWIvrit-CgAIsykAb-7">
          <mxGeometry y="52" width="150" height="26" as="geometry" />
        </mxCell>
        <mxCell id="4HSmWIvrit-CgAIsykAb-10" value="..." style="text;strokeColor=none;fillColor=none;align=left;verticalAlign=top;spacingLeft=4;spacingRight=4;overflow=hidden;rotatable=0;points=[[0,0.5],[1,0.5]];portConstraint=eastwest;" vertex="1" parent="4HSmWIvrit-CgAIsykAb-7">
          <mxGeometry y="78" width="150" height="26" as="geometry" />
        </mxCell>
        <mxCell id="4HSmWIvrit-CgAIsykAb-11" value="BmQuickCutProgressBarDlg" style="swimlane;fontStyle=1;align=center;verticalAlign=top;childLayout=stackLayout;horizontal=1;startSize=26;horizontalStack=0;resizeParent=1;resizeParentMax=0;resizeLast=0;collapsible=1;marginBottom=0;" vertex="1" collapsed="1" parent="4t9aSsUAtkAjxOPeEYDE-1">
          <mxGeometry x="750" y="270" width="180" height="26" as="geometry">
            <mxRectangle x="750" y="270" width="180" height="104" as="alternateBounds" />
          </mxGeometry>
        </mxCell>
        <mxCell id="4HSmWIvrit-CgAIsykAb-12" value="+ func1() : bool" style="text;strokeColor=none;fillColor=none;align=left;verticalAlign=top;spacingLeft=4;spacingRight=4;overflow=hidden;rotatable=0;points=[[0,0.5],[1,0.5]];portConstraint=eastwest;" vertex="1" parent="4HSmWIvrit-CgAIsykAb-11">
          <mxGeometry y="26" width="180" height="26" as="geometry" />
        </mxCell>
        <mxCell id="4HSmWIvrit-CgAIsykAb-13" value="+ func2() : bool" style="text;strokeColor=none;fillColor=none;align=left;verticalAlign=top;spacingLeft=4;spacingRight=4;overflow=hidden;rotatable=0;points=[[0,0.5],[1,0.5]];portConstraint=eastwest;" vertex="1" parent="4HSmWIvrit-CgAIsykAb-11">
          <mxGeometry y="52" width="180" height="26" as="geometry" />
        </mxCell>
        <mxCell id="4HSmWIvrit-CgAIsykAb-14" value="..." style="text;strokeColor=none;fillColor=none;align=left;verticalAlign=top;spacingLeft=4;spacingRight=4;overflow=hidden;rotatable=0;points=[[0,0.5],[1,0.5]];portConstraint=eastwest;" vertex="1" parent="4HSmWIvrit-CgAIsykAb-11">
          <mxGeometry y="78" width="180" height="26" as="geometry" />
        </mxCell>
      </root>
    </mxGraphModel>
  </diagram>
</mxfile>
